outward-round.ufo
<glyph name="exclam" format="2">
  <advance width="79"/>
  <unicode hex="0021"/>
  <outline>
    <contour>
      <point x="-40" y="0" type="line"/>
      <point x="-4" y="146" type="line"/>
      <point x="62" y="146" type="line"/>
      <point x="27" y="0" type="line"/>
    </contour>
    <contour>
      <point x="-1" y="158" type="line"/>
      <point x="129" y="700" type="line"/>
      <point x="196" y="700" type="line"/>
      <point x="65" y="158" type="line"/>
    </contour>
  </outline>
</glyph>
<glyph name="quotedbl" format="2">
  <advance width="158"/>
  <unicode hex="0022"/>
  <outline>
    <contour>
      <point x="94" y="554" type="line"/>
      <point x="129" y="700" type="line"/>
      <point x="196" y="700" type="line"/>
      <point x="161" y="554" type="line"/>
    </contour>
    <contour>
      <point x="173" y="554" type="line"/>
      <point x="208" y="700" type="line"/>
      <point x="275" y="700" type="line"/>
      <point x="240" y="554" type="line"/>
    </contour>
  </outline>
</glyph>
<glyph name="numbersign" format="2">
  <advance width="237"/>
  <unicode hex="0023"/>
  <outline>
    <contour>
      <point x="271" y="356" type="line"/>
      <point x="231" y="356" type="line"/>
      <point x="228" y="344" type="line"/>
      <point x="268" y="344" type="line"/>
      <point x="252" y="277" type="line"/>
      <point x="212" y="277" type="line"/>
      <point x="145" y="0" type="line"/>
      <point x="78" y="0" type="line"/>
      <point x="145" y="277" type="line"/>
      <point x="133" y="277" type="line"/>
      <point x="66" y="0" type="line"/>
      <point x="-1" y="0" type="line"/>
      <point x="66" y="277" type="line"/>
      <point x="27" y="277" type="line"/>
      <point x="43" y="344" type="line"/>
      <point x="82" y="344" type="line"/>
      <point x="85" y="356" type="line"/>
      <point x="46" y="356" type="line"/>
      <point x="62" y="423" type="line"/>
      <point x="101" y="423" type="line"/>
      <point x="168" y="700" type="line"/>
      <point x="235" y="700" type="line"/>
      <point x="168" y="423" type="line"/>
      <point x="180" y="423" type="line"/>
      <point x="247" y="700" type="line"/>
      <point x="314" y="700" type="line"/>
      <point x="247" y="423" type="line"/>
      <point x="287" y="423" type="line"/>
    </contour>
    <contour>
      <point x="161" y="344" type="line"/>
      <point x="164" y="356" type="line"/>
      <point x="152" y="356" type="line"/>
      <point x="149" y="344" type="line"/>
    </contour>
  </outline>
</glyph>
<glyph name="dollar" format="2">
  <advance width="237"/>
  <unicode hex="0024"/>
  <outline>
    <contour>
      <point x="302" y="621" type="line" smooth="yes"/>
      <point x="316" y="621"/>
      <point x="330" y="601"/>
      <point x="327" y="587" type="qcurve" smooth="yes"/>
      <point x="280" y="396" type="line"/>
      <point x="213" y="396" type="line"/>
      <point x="252" y="554" type="line"/>
      <point x="240" y="554" type="line"/>
      <point x="198" y="384" type="line"/>
      <point x="244" y="384" type="line" smooth="yes"/>
      <point x="258" y="384"/>
      <point x="273" y="364"/>
      <point x="269" y="350" type="qcurve" smooth="yes"/>
      <point x="212" y="113" type="line" smooth="yes"/>
      <point x="208" y="99"/>
      <point x="185" y="79"/>
      <point x="171" y="79" type="qcurve" smooth="yes"/>
      <point x="125" y="79" type="line"/>
      <point x="106" y="0" type="line"/>
      <point x="39" y="0" type="line"/>
      <point x="58" y="79" type="line"/>
      <point x="12" y="79" type="line" smooth="yes"/>
      <point x="-1" y="79"/>
      <point x="-16" y="99"/>
      <point x="-12" y="113" type="qcurve" smooth="yes"/>
      <point x="33" y="304" type="line"/>
      <point x="100" y="304" type="line"/>
      <point x="62" y="146" type="line"/>
      <point x="74" y="146" type="line"/>
      <point x="115" y="317" type="line"/>
      <point x="69" y="317" type="line" smooth="yes"/>
      <point x="55" y="317"/>
      <point x="41" y="336"/>
      <point x="44" y="350" type="qcurve" smooth="yes"/>
      <point x="102" y="587" type="line" smooth="yes"/>
      <point x="105" y="601"/>
      <point x="129" y="621"/>
      <point x="143" y="621" type="qcurve" smooth="yes"/>
      <point x="189" y="621" type="line"/>
      <point x="208" y="700" type="line"/>
      <point x="275" y="700" type="line"/>
      <point x="256" y="621" type="line"/>
    </contour>
    <contour>
      <point x="182" y="317" type="line"/>
      <point x="141" y="146" type="line"/>
      <point x="153" y="146" type="line"/>
      <point x="194" y="317" type="line"/>
    </contour>
    <contour>
      <point x="173" y="554" type="line"/>
      <point x="161" y="554" type="line"/>
      <point x="119" y="384" type="line"/>
      <point x="131" y="384" type="line"/>
    </contour>
  </outline>
</glyph>
<glyph name="percent" format="2">
  <advance width="237"/>
  <unicode hex="0025"/>
  <outline>
    <contour>
      <point x="152" y="0" type="qcurve" smooth="yes"/>
      <point x="73" y="0" type="line" smooth="yes"/>
      <point x="59" y="0"/>
      <point x="43" y="19"/>
      <point x="46" y="33" type="qcurve" smooth="yes"/>
      <point x="104" y="271" type="line" smooth="yes"/>
      <point x="107" y="285"/>
      <point x="132" y="304"/>
      <point x="146" y="304" type="qcurve" smooth="yes"/>
      <point x="225" y="304" type="line" smooth="yes"/>
      <point x="239" y="304"/>
      <point x="253" y="285"/>
      <point x="250" y="271" type="qcurve" smooth="yes"/>
      <point x="192" y="33" type="line" smooth="yes"/>
      <point x="189" y="19"/>
      <point x="166" y="0"/>
    </contour>
    <contour>
      <point x="122" y="67" type="line"/>
      <point x="134" y="67" type="line"/>
      <point x="175" y="237" type="line"/>
      <point x="163" y="237" type="line"/>
    </contour>
    <contour>
      <point x="27" y="0" type="line"/>
      <point x="-40" y="0" type="line"/>
      <point x="44" y="350" type="line" smooth="yes"/>
      <point x="48" y="364"/>
      <point x="71" y="383"/>
      <point x="85" y="383" type="qcurve" smooth="yes"/>
      <point x="210" y="383" type="line"/>
      <point x="287" y="700" type="line"/>
      <point x="354" y="700" type="line"/>
      <point x="269" y="350" type="line" smooth="yes"/>
      <point x="266" y="336"/>
      <point x="242" y="316"/>
      <point x="228" y="316" type="qcurve" smooth="yes"/>
      <point x="103" y="316" type="line"/>
    </contour>
    <contour>
      <point x="168" y="396" type="qcurve" smooth="yes"/>
      <point x="88" y="396" type="line" smooth="yes"/>
      <point x="74" y="396"/>
      <point x="60" y="415"/>
      <point x="63" y="429" type="qcurve" smooth="yes"/>
      <point x="121" y="666" type="line" smooth="yes"/>
      <point x="124" y="680"/>
      <point x="148" y="700"/>
      <point x="162" y="700" type="qcurve" smooth="yes"/>
      <point x="242" y="700" type="line" smooth="yes"/>
      <point x="256" y="700"/>
      <point x="270" y="680"/>
      <point x="267" y="666" type="qcurve" smooth="yes"/>
      <point x="209" y="429" type="line" smooth="yes"/>
      <point x="206" y="415"/>
      <point x="182" y="396"/>
    </contour>
    <contour>
      <point x="139" y="463" type="line"/>
      <point x="151" y="463" type="line"/>
      <point x="192" y="633" type="line"/>
      <point x="180" y="633" type="line"/>
    </contour>
  </outline>
</glyph>
<glyph name="ampersand" format="2">
  <advance width="198"/>
  <unicode hex="0026"/>
  <outline>
    <contour>
      <point x="73" y="0" type="qcurve" smooth="yes"/>
      <point x="-7" y="0" type="line" smooth="yes"/>
      <point x="-21" y="0"/>
      <point x="-35" y="19"/>
      <point x="-32" y="33" type="qcurve" smooth="yes"/>
      <point x="44" y="350" type="line" smooth="yes"/>
      <point x="45.5" y="357.0" name="inserted"/>
      <point x="53.5" y="369.0"/>
      <point x="60" y="374" type="qcurve" smooth="yes"/>
      <point x="80" y="390" type="line"/>
      <point x="67" y="405" type="line"/>
      <point x="63.5" y="410.0" name="inserted"/>
      <point x="61.5" y="422.0"/>
      <point x="63" y="429" type="qcurve" smooth="yes"/>
      <point x="121" y="666" type="line" smooth="yes"/>
      <point x="124" y="680"/>
      <point x="148" y="700"/>
      <point x="162" y="700" type="qcurve" smooth="yes"/>
      <point x="242" y="700" type="line" smooth="yes"/>
      <point x="256" y="700"/>
      <point x="270" y="680"/>
      <point x="267" y="666" type="qcurve" smooth="yes"/>
      <point x="209" y="429" type="line" smooth="yes"/>
      <point x="207.5" y="422.0" name="inserted"/>
      <point x="199.5" y="410.0"/>
      <point x="193" y="405" type="qcurve" smooth="yes"/>
      <point x="115" y="342" type="line"/>
      <point x="108" y="336" type="line"/>
      <point x="43" y="67" type="line"/>
      <point x="55" y="67" type="line"/>
      <point x="113" y="310" type="line" smooth="yes"/>
      <point x="117" y="324"/>
      <point x="142" y="344"/>
      <point x="156" y="344" type="qcurve" smooth="yes"/>
      <point x="229" y="344" type="line"/>
      <point x="213" y="277" type="line"/>
      <point x="173" y="277" type="line"/>
      <point x="113" y="33" type="line" smooth="yes"/>
      <point x="110" y="19"/>
      <point x="87" y="0"/>
    </contour>
    <contour>
      <point x="134" y="443" type="line"/>
      <point x="138" y="437" type="line"/>
      <point x="146" y="443" type="line"/>
      <point x="192" y="633" type="line"/>
      <point x="180" y="633" type="line"/>
    </contour>
  </outline>
</glyph>
<glyph name="parenleft" format="2">
  <advance width="119"/>
  <unicode hex="0028"/>
  <outline>
    <contour>
      <point x="121" y="667" type="line"/>
      <point x="124" y="681"/>
      <point x="148" y="700"/>
      <point x="162" y="700" type="qcurve" smooth="yes"/>
      <point x="236" y="700" type="line"/>
      <point x="220" y="633" type="line"/>
      <point x="180" y="633" type="line"/>
      <point x="43" y="67" type="line"/>
      <point x="83" y="67" type="line"/>
      <point x="67" y="0" type="line"/>
      <point x="-7" y="0" type="line" smooth="yes"/>
      <point x="-21" y="0"/>
      <point x="-35" y="19"/>
      <point x="-32" y="33" type="qcurve" smooth="yes"/>
      <point x="121" y="667" type="line"/>
    </contour>
  </outline>
</glyph>
<glyph name="parenright" format="2">
  <advance width="119"/>
  <unicode hex="0029"/>
  <outline>
    <contour>
      <point x="203" y="700" type="line"/>
      <point x="217" y="700"/>
      <point x="231" y="681"/>
      <point x="228" y="667" type="qcurve" smooth="yes"/>
      <point x="74" y="33" type="line" smooth="yes"/>
      <point x="71" y="19"/>
      <point x="48" y="0"/>
      <point x="34" y="0" type="qcurve" smooth="yes"/>
      <point x="-40" y="0" type="line"/>
      <point x="-23" y="67" type="line"/>
      <point x="16" y="67" type="line"/>
      <point x="153" y="633" type="line"/>
      <point x="113" y="633" type="line"/>
      <point x="129" y="700" type="line"/>
      <point x="203" y="700" type="line"/>
    </contour>
  </outline>
</glyph>
<glyph name="asterisk" format="2">
  <advance width="237"/>
  <unicode hex="002A"/>
  <outline>
    <contour>
      <point x="220" y="475" type="line"/>
      <point x="153" y="475" type="line"/>
      <point x="173" y="554" type="line"/>
      <point x="94" y="554" type="line"/>
      <point x="110" y="621" type="line"/>
      <point x="189" y="621" type="line"/>
      <point x="208" y="700" type="line"/>
      <point x="275" y="700" type="line"/>
      <point x="256" y="621" type="line"/>
      <point x="335" y="621" type="line"/>
      <point x="319" y="554" type="line"/>
      <point x="240" y="554" type="line"/>
      <point x="220" y="475" type="line"/>
    </contour>
  </outline>
</glyph>
<glyph name="plus" format="2">
  <advance width="237"/>
  <unicode hex="002B"/>
  <outline>
    <contour>
      <point x="198" y="384" type="line"/>
      <point x="179" y="304" type="line"/>
      <point x="258" y="304" type="line"/>
      <point x="242" y="237" type="line"/>
      <point x="163" y="237" type="line"/>
      <point x="144" y="158" type="line"/>
      <point x="77" y="158" type="line"/>
      <point x="96" y="237" type="line"/>
      <point x="17" y="237" type="line"/>
      <point x="33" y="304" type="line"/>
      <point x="112" y="304" type="line"/>
      <point x="131" y="384" type="line"/>
      <point x="198" y="384" type="line"/>
    </contour>
  </outline>
</glyph>
<glyph name="comma" format="2">
  <advance width="79"/>
  <unicode hex="002C"/>
  <outline>
    <contour>
      <point x="-4" y="146" type="line"/>
      <point x="62" y="146" type="line"/>
      <point x="15" y="-46" type="line" smooth="yes"/>
      <point x="12" y="-60"/>
      <point x="-11" y="-79"/>
      <point x="-25" y="-79" type="qcurve" smooth="yes"/>
      <point x="-98" y="-79" type="line"/>
      <point x="-81" y="-12" type="line"/>
      <point x="-42" y="-12" type="line"/>
    </contour>
  </outline>
</glyph>
<glyph name="hyphen" format="2">
  <advance width="158"/>
  <unicode hex="002D"/>
  <outline>
    <contour>
      <point x="17" y="238" type="line"/>
      <point x="33" y="305" type="line"/>
      <point x="179" y="305" type="line"/>
      <point x="163" y="238" type="line"/>
      <point x="17" y="238" type="line"/>
    </contour>
  </outline>
</glyph>
<glyph name="period" format="2">
  <advance width="79"/>
  <unicode hex="002E"/>
  <outline>
    <contour>
      <point x="-40" y="0" type="line"/>
      <point x="-4" y="146" type="line"/>
      <point x="62" y="146" type="line"/>
      <point x="27" y="0" type="line"/>
      <point x="-40" y="0" type="line"/>
    </contour>
  </outline>
</glyph>
<glyph name="slash" format="2">
  <advance width="158"/>
  <unicode hex="002F"/>
  <outline>
    <contour>
      <point x="275" y="700" type="line"/>
      <point x="228" y="508" type="line"/>
      <point x="228.0" y="506.0" name="inserted"/>
      <point x="226.5" y="502.0"/>
      <point x="225" y="500" type="qcurve"/>
      <point x="72" y="188" type="line"/>
      <point x="27" y="0" type="line"/>
      <point x="-40" y="0" type="line"/>
      <point x="6" y="192" type="line"/>
      <point x="6.0" y="193.5" name="inserted"/>
      <point x="7.5" y="197.5"/>
      <point x="9" y="200" type="qcurve"/>
      <point x="162" y="512" type="line"/>
      <point x="208" y="700" type="line"/>
    </contour>
  </outline>
</glyph>
<glyph name="one" format="2">
  <advance width="119"/>
  <unicode hex="0031"/>
  <outline>
    <contour>
      <point x="67" y="0" type="line"/>
      <point x="0" y="0" type="line"/>
      <point x="153" y="633" type="line"/>
      <point x="113" y="633" type="line"/>
      <point x="129" y="700" type="line"/>
      <point x="202" y="700" type="line" smooth="yes"/>
      <point x="216" y="700"/>
      <point x="231" y="680"/>
      <point x="228" y="666" type="qcurve" smooth="yes"/>
    </contour>
  </outline>
</glyph>
<glyph name="two" format="2">
  <advance width="158"/>
  <unicode hex="0032"/>
  <outline>
    <contour>
      <point x="72" y="0" type="qcurve" smooth="yes"/>
      <point x="-7" y="0" type="line" smooth="yes"/>
      <point x="-21" y="0"/>
      <point x="-35" y="19"/>
      <point x="-32" y="33" type="qcurve" smooth="yes"/>
      <point x="44" y="350" type="line" smooth="yes"/>
      <point x="48" y="364"/>
      <point x="71" y="383"/>
      <point x="85" y="383" type="qcurve" smooth="yes"/>
      <point x="131" y="383" type="line"/>
      <point x="192" y="633" type="line"/>
      <point x="180" y="633" type="line"/>
      <point x="122" y="396" type="line"/>
      <point x="55" y="396" type="line"/>
      <point x="121" y="666" type="line" smooth="yes"/>
      <point x="124" y="680"/>
      <point x="148" y="700"/>
      <point x="162" y="700" type="qcurve" smooth="yes"/>
      <point x="241" y="700" type="line" smooth="yes"/>
      <point x="255" y="700"/>
      <point x="270" y="680"/>
      <point x="267" y="666" type="qcurve" smooth="yes"/>
      <point x="190" y="350" type="line" smooth="yes"/>
      <point x="187" y="336"/>
      <point x="162" y="316"/>
      <point x="148" y="316" type="qcurve" smooth="yes"/>
      <point x="103" y="316" type="line"/>
      <point x="43" y="67" type="line"/>
      <point x="55" y="67" type="line"/>
      <point x="112" y="304" type="line"/>
      <point x="179" y="304" type="line"/>
      <point x="113" y="33" type="line" smooth="yes"/>
      <point x="110" y="19"/>
      <point x="86" y="0"/>
    </contour>
  </outline>
</glyph>
<glyph name="four" format="2">
  <advance width="158"/>
  <unicode hex="0034"/>
  <outline>
    <contour>
      <point x="106" y="0" type="line"/>
      <point x="39" y="0" type="line"/>
      <point x="115" y="316" type="line"/>
      <point x="70" y="316" type="line" smooth="yes"/>
      <point x="56" y="316"/>
      <point x="41" y="336"/>
      <point x="44" y="350" type="qcurve" smooth="yes"/>
      <point x="129" y="700" type="line"/>
      <point x="196" y="700" type="line"/>
      <point x="119" y="383" type="line"/>
      <point x="131" y="383" type="line"/>
      <point x="208" y="700" type="line"/>
      <point x="275" y="700" type="line"/>
    </contour>
  </outline>
</glyph>
<glyph name="five" format="2">
  <advance width="158"/>
  <unicode hex="0035"/>
  <outline>
    <contour>
      <point x="72" y="0" type="qcurve" smooth="yes"/>
      <point x="-7" y="0" type="line" smooth="yes"/>
      <point x="-21" y="0"/>
      <point x="-35" y="19"/>
      <point x="-32" y="33" type="qcurve" smooth="yes"/>
      <point x="33" y="304" type="line"/>
      <point x="100" y="304" type="line"/>
      <point x="43" y="67" type="line"/>
      <point x="55" y="67" type="line"/>
      <point x="115" y="316" type="line"/>
      <point x="69" y="316" type="line" smooth="yes"/>
      <point x="55" y="316"/>
      <point x="41" y="336"/>
      <point x="44" y="350" type="qcurve" smooth="yes"/>
      <point x="121" y="666" type="line" smooth="yes"/>
      <point x="124" y="680"/>
      <point x="148" y="700"/>
      <point x="162" y="700" type="qcurve" smooth="yes"/>
      <point x="241" y="700" type="line" smooth="yes"/>
      <point x="255" y="700"/>
      <point x="270" y="680"/>
      <point x="267" y="666" type="qcurve" smooth="yes"/>
      <point x="201" y="396" type="line"/>
      <point x="134" y="396" type="line"/>
      <point x="192" y="633" type="line"/>
      <point x="180" y="633" type="line"/>
      <point x="119" y="383" type="line"/>
      <point x="164" y="383" type="line" smooth="yes"/>
      <point x="178" y="383"/>
      <point x="194" y="364"/>
      <point x="190" y="350" type="qcurve" smooth="yes"/>
      <point x="113" y="33" type="line" smooth="yes"/>
      <point x="110" y="19"/>
      <point x="86" y="0"/>
    </contour>
  </outline>
</glyph>
<glyph name="six" format="2">
  <advance width="158"/>
  <unicode hex="0036"/>
  <outline>
    <contour>
      <point x="242" y="700" type="line" smooth="yes"/>
      <point x="256" y="700"/>
      <point x="270" y="681"/>
      <point x="267" y="667" type="qcurve" smooth="yes"/>
      <point x="201" y="396" type="line"/>
      <point x="134" y="396" type="line"/>
      <point x="192" y="633" type="line"/>
      <point x="180" y="633" type="line"/>
      <point x="119" y="384" type="line"/>
      <point x="165" y="384" type="line" smooth="yes"/>
      <point x="179" y="384"/>
      <point x="194" y="364"/>
      <point x="190" y="350" type="qcurve" smooth="yes"/>
      <point x="113" y="33" type="line" smooth="yes"/>
      <point x="110" y="19"/>
      <point x="87" y="0"/>
      <point x="73" y="0" type="qcurve" smooth="yes"/>
      <point x="-7" y="0" type="line" smooth="yes"/>
      <point x="-21" y="0"/>
      <point x="-35" y="19"/>
      <point x="-32" y="33" type="qcurve" smooth="yes"/>
      <point x="121" y="667" type="line" smooth="yes"/>
      <point x="124" y="681"/>
      <point x="148" y="700"/>
      <point x="162" y="700" type="qcurve" smooth="yes"/>
    </contour>
    <contour>
      <point x="103" y="317" type="line"/>
      <point x="43" y="67" type="line"/>
      <point x="55" y="67" type="line"/>
      <point x="115" y="317" type="line"/>
    </contour>
  </outline>
</glyph>
<glyph name="seven" format="2">
  <advance width="158"/>
  <unicode hex="0037"/>
  <outline>
    <contour>
      <point x="106" y="0" type="line"/>
      <point x="39" y="0" type="line"/>
      <point x="115" y="316" type="line"/>
      <point x="36" y="316" type="line"/>
      <point x="52" y="383" type="line"/>
      <point x="131" y="383" type="line"/>
      <point x="192" y="633" type="line"/>
      <point x="180" y="633" type="line"/>
      <point x="122" y="396" type="line"/>
      <point x="55" y="396" type="line"/>
      <point x="121" y="666" type="line" smooth="yes"/>
      <point x="124" y="680"/>
      <point x="148" y="700"/>
      <point x="162" y="700" type="qcurve" smooth="yes"/>
      <point x="242" y="700" type="line" smooth="yes"/>
      <point x="256" y="700"/>
      <point x="270" y="680"/>
      <point x="267" y="666" type="qcurve" smooth="yes"/>
    </contour>
  </outline>
</glyph>
<glyph name="eight" format="2">
  <advance width="158"/>
  <unicode hex="0038"/>
  <outline>
    <contour>
      <point x="242" y="700" type="line" smooth="yes"/>
      <point x="256" y="700"/>
      <point x="270" y="681"/>
      <point x="267" y="667" type="qcurve" smooth="yes"/>
      <point x="200" y="390" type="line" smooth="yes"/>
      <point x="198.5" y="383.0" name="inserted"/>
      <point x="190.5" y="371.0"/>
      <point x="184" y="366" type="qcurve" smooth="yes"/>
      <point x="164" y="350" type="line"/>
      <point x="176" y="334" type="line"/>
      <point x="180.5" y="329.5" name="inserted"/>
      <point x="182.5" y="317.5"/>
      <point x="180" y="310" type="qcurve"/>
      <point x="113" y="33" type="line" smooth="yes"/>
      <point x="110" y="19"/>
      <point x="87" y="0"/>
      <point x="73" y="0" type="qcurve" smooth="yes"/>
      <point x="-7" y="0" type="line" smooth="yes"/>
      <point x="-21" y="0"/>
      <point x="-35" y="19"/>
      <point x="-32" y="33" type="qcurve" smooth="yes"/>
      <point x="34" y="310" type="line"/>
      <point x="36.5" y="317.0" name="inserted"/>
      <point x="44.5" y="329.0"/>
      <point x="50" y="334" type="qcurve"/>
      <point x="70" y="350" type="line"/>
      <point x="58" y="366" type="line" smooth="yes"/>
      <point x="54.5" y="370.5" name="inserted"/>
      <point x="52.5" y="382.5"/>
      <point x="54" y="390" type="qcurve" smooth="yes"/>
      <point x="121" y="667" type="line" smooth="yes"/>
      <point x="124" y="681"/>
      <point x="148" y="700"/>
      <point x="162" y="700" type="qcurve" smooth="yes"/>
    </contour>
    <contour>
      <point x="124" y="403" type="line"/>
      <point x="129" y="397" type="line"/>
      <point x="136" y="403" type="line"/>
      <point x="192" y="633" type="line"/>
      <point x="180" y="633" type="line"/>
    </contour>
    <contour>
      <point x="110" y="297" type="line"/>
      <point x="106" y="303" type="line"/>
      <point x="98" y="297" type="line"/>
      <point x="43" y="67" type="line"/>
      <point x="55" y="67" type="line"/>
    </contour>
  </outline>
</glyph>
<glyph name="colon" format="2">
  <advance width="79"/>
  <unicode hex="003A"/>
  <outline>
    <contour>
      <point x="81" y="225" type="line"/>
      <point x="46" y="79" type="line"/>
      <point x="-20" y="79" type="line"/>
      <point x="14" y="225" type="line"/>
    </contour>
    <contour>
      <point x="139" y="463" type="line"/>
      <point x="103" y="317" type="line"/>
      <point x="36" y="317" type="line"/>
      <point x="72" y="463" type="line"/>
    </contour>
  </outline>
</glyph>
<glyph name="semicolon" format="2">
  <advance width="119"/>
  <unicode hex="003B"/>
  <outline>
    <contour>
      <point x="54" y="225" type="line"/>
      <point x="121" y="225" type="line"/>
      <point x="74" y="33" type="line" smooth="yes"/>
      <point x="71" y="19"/>
      <point x="48" y="0"/>
      <point x="34" y="0" type="qcurve" smooth="yes"/>
      <point x="-40" y="0" type="line"/>
      <point x="-23" y="67" type="line"/>
      <point x="16" y="67" type="line"/>
    </contour>
    <contour>
      <point x="179" y="463" type="line"/>
      <point x="143" y="317" type="line"/>
      <point x="76" y="317" type="line"/>
      <point x="112" y="463" type="line"/>
    </contour>
  </outline>
</glyph>
<glyph name="less" format="2">
  <advance width="198"/>
  <unicode hex="003C"/>
  <outline>
    <contour>
      <point x="184" y="158" type="line"/>
      <point x="111" y="158" type="line" smooth="yes"/>
      <point x="104.0" y="158.0" name="inserted"/>
      <point x="93.0" y="163.0"/>
      <point x="89" y="168" type="qcurve" smooth="yes"/>
      <point x="29" y="247" type="line" smooth="yes"/>
      <point x="21" y="257"/>
      <point x="28" y="284"/>
      <point x="41" y="295" type="qcurve" smooth="yes"/>
      <point x="139" y="374" type="line"/>
      <point x="144.0" y="378.5" name="inserted"/>
      <point x="157.0" y="383.0"/>
      <point x="165" y="383" type="qcurve" smooth="yes"/>
      <point x="238" y="383" type="line"/>
      <point x="222" y="316" type="line"/>
      <point x="162" y="316" type="line"/>
      <point x="106" y="271" type="line"/>
      <point x="140" y="225" type="line"/>
      <point x="200" y="225" type="line"/>
    </contour>
  </outline>
</glyph>
<glyph name="equal" format="2">
  <advance width="198"/>
  <unicode hex="003D"/>
  <outline>
    <contour>
      <point x="7" y="198" type="line"/>
      <point x="24" y="265" type="line"/>
      <point x="210" y="265" type="line"/>
      <point x="193" y="198" type="line"/>
    </contour>
    <contour>
      <point x="27" y="277" type="line"/>
      <point x="43" y="344" type="line"/>
      <point x="229" y="344" type="line"/>
      <point x="213" y="277" type="line"/>
    </contour>
  </outline>
</glyph>
<glyph name="greater" format="2">
  <advance width="198"/>
  <unicode hex="003E"/>
  <outline>
    <contour>
      <point x="125" y="383" type="line" smooth="yes"/>
      <point x="131.5" y="383.0" name="inserted"/>
      <point x="142.5" y="378.5"/>
      <point x="147" y="374" type="qcurve"/>
      <point x="207" y="295" type="line"/>
      <point x="214" y="284"/>
      <point x="207" y="257"/>
      <point x="195" y="247" type="qcurve" smooth="yes"/>
      <point x="97" y="168" type="line" smooth="yes"/>
      <point x="90.5" y="163.0" name="inserted"/>
      <point x="77.5" y="158.0"/>
      <point x="71" y="158" type="qcurve" smooth="yes"/>
      <point x="-1" y="158" type="line"/>
      <point x="14" y="225" type="line"/>
      <point x="73" y="225" type="line"/>
      <point x="130" y="271" type="line"/>
      <point x="95" y="316" type="line"/>
      <point x="36" y="316" type="line"/>
      <point x="52" y="383" type="line"/>
    </contour>
  </outline>
</glyph>
<glyph name="question" format="2">
  <advance width="158"/>
  <unicode hex="003F"/>
  <outline>
    <contour>
      <point x="242" y="700" type="line" smooth="yes"/>
      <point x="256" y="700"/>
      <point x="270" y="681"/>
      <point x="267" y="667" type="qcurve" smooth="yes"/>
      <point x="190" y="350" type="line" smooth="yes"/>
      <point x="187" y="336"/>
      <point x="163" y="317"/>
      <point x="149" y="317" type="qcurve" smooth="yes"/>
      <point x="103" y="317" type="line"/>
      <point x="65" y="158" type="line"/>
      <point x="-1" y="158" type="line"/>
      <point x="44" y="350" type="line" smooth="yes"/>
      <point x="48" y="364"/>
      <point x="71" y="384"/>
      <point x="85" y="384" type="qcurve" smooth="yes"/>
      <point x="131" y="384" type="line"/>
      <point x="192" y="633" type="line"/>
      <point x="180" y="633" type="line"/>
      <point x="122" y="396" type="line"/>
      <point x="55" y="396" type="line"/>
      <point x="121" y="667" type="line" smooth="yes"/>
      <point x="124" y="681"/>
      <point x="148" y="700"/>
      <point x="162" y="700" type="qcurve" smooth="yes"/>
    </contour>
    <contour>
      <point x="-4" y="146" type="line"/>
      <point x="62" y="146" type="line"/>
      <point x="27" y="0" type="line"/>
      <point x="-40" y="0" type="line"/>
    </contour>
  </outline>
</glyph>
<glyph name="at" format="2">
  <advance width="237"/>
  <unicode hex="0040"/>
  <outline>
    <contour>
      <point x="172" y="225" type="line"/>
      <point x="232" y="475" type="line"/>
      <point x="220" y="475" type="line"/>
      <point x="160" y="225" type="line"/>
    </contour>
    <contour>
      <point x="204" y="79" type="line"/>
      <point x="13" y="79" type="line" smooth="yes"/>
      <point x="-1" y="79"/>
      <point x="-16" y="99"/>
      <point x="-12" y="113" type="qcurve" smooth="yes"/>
      <point x="102" y="587" type="line" smooth="yes"/>
      <point x="105" y="601"/>
      <point x="130" y="621"/>
      <point x="144" y="621" type="qcurve" smooth="yes"/>
      <point x="302" y="621" type="line" smooth="yes"/>
      <point x="316" y="621"/>
      <point x="330" y="601"/>
      <point x="327" y="587" type="qcurve" smooth="yes"/>
      <point x="223" y="158" type="line"/>
      <point x="111" y="158" type="line" smooth="yes"/>
      <point x="97" y="158"/>
      <point x="81" y="178"/>
      <point x="85" y="192" type="qcurve" smooth="yes"/>
      <point x="161" y="508" type="line" smooth="yes"/>
      <point x="165" y="522"/>
      <point x="190" y="542"/>
      <point x="204" y="542" type="qcurve" smooth="yes"/>
      <point x="249" y="542" type="line"/>
      <point x="252" y="554" type="line"/>
      <point x="161" y="554" type="line"/>
      <point x="62" y="146" type="line"/>
      <point x="220" y="146" type="line"/>
    </contour>
  </outline>
</glyph>
<glyph name="A" format="2">
  <advance width="158"/>
  <unicode hex="0041"/>
  <outline>
    <contour>
      <point x="242" y="700" type="line" smooth="yes"/>
      <point x="256" y="700"/>
      <point x="270" y="680"/>
      <point x="267" y="666" type="qcurve" smooth="yes"/>
      <point x="198" y="383" type="line"/>
      <point x="182" y="316" type="line"/>
      <point x="106" y="0" type="line"/>
      <point x="39" y="0" type="line"/>
      <point x="115" y="316" type="line"/>
      <point x="103" y="316" type="line"/>
      <point x="27" y="0" type="line"/>
      <point x="-40" y="0" type="line"/>
      <point x="36" y="316" type="line"/>
      <point x="52" y="383" type="line"/>
      <point x="121" y="666" type="line" smooth="yes"/>
      <point x="124" y="680"/>
      <point x="148" y="700"/>
      <point x="162" y="700" type="qcurve" smooth="yes"/>
    </contour>
    <contour>
      <point x="131" y="383" type="line"/>
      <point x="192" y="633" type="line"/>
      <point x="180" y="633" type="line"/>
      <point x="119" y="383" type="line"/>
    </contour>
  </outline>
</glyph>
<glyph name="B" format="2">
  <advance width="158"/>
  <unicode hex="0042"/>
  <outline>
    <contour>
      <point x="73" y="0" type="qcurve" smooth="yes"/>
      <point x="-6" y="0" type="line" smooth="yes"/>
      <point x="-20" y="0"/>
      <point x="-35" y="19"/>
      <point x="-32" y="33" type="qcurve" smooth="yes"/>
      <point x="121" y="666" type="line" smooth="yes"/>
      <point x="124" y="680"/>
      <point x="149" y="700"/>
      <point x="163" y="700" type="qcurve" smooth="yes"/>
      <point x="242" y="700" type="line" smooth="yes"/>
      <point x="256" y="700"/>
      <point x="270" y="680"/>
      <point x="267" y="666" type="qcurve" smooth="yes"/>
      <point x="200" y="390" type="line" smooth="yes"/>
      <point x="196" y="376"/>
      <point x="173" y="356"/>
      <point x="159" y="356" type="qcurve" smooth="yes"/>
      <point x="113" y="356" type="line"/>
      <point x="110" y="344" type="line"/>
      <point x="156" y="344" type="line" smooth="yes"/>
      <point x="170" y="344"/>
      <point x="184" y="324"/>
      <point x="180" y="310" type="qcurve" smooth="yes"/>
      <point x="113" y="33" type="line" smooth="yes"/>
      <point x="110" y="19"/>
      <point x="87" y="0"/>
    </contour>
    <contour>
      <point x="43" y="67" type="line"/>
      <point x="55" y="67" type="line"/>
      <point x="106" y="277" type="line"/>
      <point x="94" y="277" type="line"/>
    </contour>
    <contour>
      <point x="129" y="423" type="line"/>
      <point x="141" y="423" type="line"/>
      <point x="192" y="633" type="line"/>
      <point x="180" y="633" type="line"/>
    </contour>
  </outline>
</glyph>
<glyph name="C" format="2">
  <advance width="158"/>
  <unicode hex="0043"/>
  <outline>
    <contour>
      <point x="-7" y="0" type="line"/>
      <point x="-21" y="0"/>
      <point x="-35" y="19"/>
      <point x="-32" y="33" type="qcurve" smooth="yes"/>
      <point x="121" y="666" type="line" smooth="yes"/>
      <point x="124" y="680"/>
      <point x="148" y="700"/>
      <point x="162" y="700" type="qcurve" smooth="yes"/>
      <point x="242" y="700" type="line" smooth="yes"/>
      <point x="256" y="700"/>
      <point x="270" y="680"/>
      <point x="267" y="666" type="qcurve" smooth="yes"/>
      <point x="192" y="356" type="line"/>
      <point x="125" y="356" type="line"/>
      <point x="192" y="633" type="line"/>
      <point x="180" y="633" type="line"/>
      <point x="43" y="67" type="line"/>
      <point x="55" y="67" type="line"/>
      <point x="122" y="344" type="line"/>
      <point x="189" y="344" type="line"/>
      <point x="113" y="33" type="line" smooth="yes"/>
      <point x="110" y="19"/>
      <point x="87" y="0"/>
      <point x="73" y="0" type="qcurve" smooth="yes"/>
      <point x="-7" y="0" type="line"/>
    </contour>
  </outline>
</glyph>
<glyph name="D" format="2">
  <advance width="237"/>
  <unicode hex="0044"/>
  <outline>
    <contour>
      <point x="151" y="0" type="qcurve" smooth="yes"/>
      <point x="-7" y="0" type="line" smooth="yes"/>
      <point x="-21" y="0"/>
      <point x="-35" y="19"/>
      <point x="-32" y="33" type="qcurve" smooth="yes"/>
      <point x="43" y="344" type="line"/>
      <point x="110" y="344" type="line"/>
      <point x="43" y="67" type="line"/>
      <point x="55" y="67" type="line"/>
      <point x="192" y="633" type="line"/>
      <point x="180" y="633" type="line"/>
      <point x="113" y="356" type="line"/>
      <point x="46" y="356" type="line"/>
      <point x="121" y="666" type="line" smooth="yes"/>
      <point x="124" y="680"/>
      <point x="148" y="700"/>
      <point x="162" y="700" type="qcurve" smooth="yes"/>
      <point x="320" y="700" type="line" smooth="yes"/>
      <point x="334" y="700"/>
      <point x="349" y="680"/>
      <point x="346" y="666" type="qcurve" smooth="yes"/>
      <point x="192" y="33" type="line" smooth="yes"/>
      <point x="189" y="19"/>
      <point x="165" y="0"/>
    </contour>
    <contour>
      <point x="122" y="67" type="line"/>
      <point x="134" y="67" type="line"/>
      <point x="271" y="633" type="line"/>
      <point x="259" y="633" type="line"/>
    </contour>
  </outline>
</glyph>
<glyph name="E" format="2">
  <advance width="158"/>
  <unicode hex="0045"/>
  <outline>
    <contour>
      <point x="162" y="700" type="qcurve" smooth="yes"/>
      <point x="242" y="700" type="line" smooth="yes"/>
      <point x="256" y="700"/>
      <point x="270" y="681"/>
      <point x="267" y="667" type="qcurve" smooth="yes"/>
      <point x="201" y="396" type="line"/>
      <point x="134" y="396" type="line"/>
      <point x="192" y="633" type="line"/>
      <point x="180" y="633" type="line"/>
      <point x="119" y="384" type="line"/>
      <point x="198" y="384" type="line"/>
      <point x="182" y="317" type="line"/>
      <point x="103" y="317" type="line"/>
      <point x="43" y="67" type="line"/>
      <point x="55" y="67" type="line"/>
      <point x="112" y="304" type="line"/>
      <point x="179" y="304" type="line"/>
      <point x="113" y="33" type="line" smooth="yes"/>
      <point x="110" y="19"/>
      <point x="87" y="0"/>
      <point x="73" y="0" type="qcurve" smooth="yes"/>
      <point x="-7" y="0" type="line" smooth="yes"/>
      <point x="-21" y="0"/>
      <point x="-35" y="19"/>
      <point x="-32" y="33" type="qcurve" smooth="yes"/>
      <point x="36" y="317" type="line"/>
      <point x="52" y="384" type="line"/>
      <point x="121" y="667" type="line" smooth="yes"/>
      <point x="124" y="681"/>
      <point x="148" y="700"/>
    </contour>
  </outline>
</glyph>
<glyph name="F" format="2">
  <advance width="158"/>
  <unicode hex="0046"/>
  <outline>
    <contour>
      <point x="27" y="0" type="line"/>
      <point x="-40" y="0" type="line"/>
      <point x="121" y="666" type="line" smooth="yes"/>
      <point x="124" y="680"/>
      <point x="149" y="700"/>
      <point x="163" y="700" type="qcurve" smooth="yes"/>
      <point x="242" y="700" type="line" smooth="yes"/>
      <point x="256" y="700"/>
      <point x="270" y="680"/>
      <point x="267" y="666" type="qcurve" smooth="yes"/>
      <point x="201" y="396" type="line"/>
      <point x="134" y="396" type="line"/>
      <point x="192" y="633" type="line"/>
      <point x="180" y="633" type="line"/>
      <point x="119" y="383" type="line"/>
      <point x="198" y="383" type="line"/>
      <point x="182" y="316" type="line"/>
      <point x="103" y="316" type="line"/>
    </contour>
  </outline>
</glyph>
<glyph name="H" format="2">
  <advance width="158"/>
  <unicode hex="0048"/>
  <outline>
    <contour>
      <point x="103" y="316" type="line"/>
      <point x="27" y="0" type="line"/>
      <point x="-40" y="0" type="line"/>
      <point x="129" y="700" type="line"/>
      <point x="196" y="700" type="line"/>
      <point x="119" y="383" type="line"/>
      <point x="131" y="383" type="line"/>
      <point x="208" y="700" type="line"/>
      <point x="275" y="700" type="line"/>
      <point x="106" y="0" type="line"/>
      <point x="39" y="0" type="line"/>
      <point x="115" y="316" type="line"/>
      <point x="103" y="316" type="line"/>
    </contour>
  </outline>
</glyph>
<glyph name="I" format="2">
  <advance width="237"/>
  <unicode hex="0049"/>
  <outline>
    <contour>
      <point x="152" y="0" type="qcurve" smooth="yes"/>
      <point x="-6" y="0" type="line" smooth="yes"/>
      <point x="-20" y="0"/>
      <point x="-35" y="19"/>
      <point x="-32" y="33" type="qcurve" smooth="yes"/>
      <point x="43" y="344" type="line"/>
      <point x="110" y="344" type="line"/>
      <point x="43" y="67" type="line"/>
      <point x="56" y="67" type="line"/>
      <point x="193" y="633" type="line"/>
      <point x="180" y="633" type="line"/>
      <point x="113" y="356" type="line"/>
      <point x="46" y="356" type="line"/>
      <point x="121" y="666" type="line" smooth="yes"/>
      <point x="124" y="680"/>
      <point x="149" y="700"/>
      <point x="163" y="700" type="qcurve" smooth="yes"/>
      <point x="321" y="700" type="line" smooth="yes"/>
      <point x="335" y="700"/>
      <point x="350" y="680"/>
      <point x="347" y="666" type="qcurve" smooth="yes"/>
      <point x="272" y="356" type="line"/>
      <point x="205" y="356" type="line"/>
      <point x="272" y="633" type="line"/>
      <point x="260" y="633" type="line"/>
      <point x="123" y="67" type="line"/>
      <point x="135" y="67" type="line"/>
      <point x="202" y="344" type="line"/>
      <point x="269" y="344" type="line"/>
      <point x="193" y="33" type="line" smooth="yes"/>
      <point x="190" y="19"/>
      <point x="166" y="0"/>
    </contour>
  </outline>
</glyph>
<glyph name="J" format="2">
  <advance width="158"/>
  <unicode hex="004A"/>
  <outline>
    <contour>
      <point x="72" y="0" type="qcurve" smooth="yes"/>
      <point x="-7" y="0" type="line" smooth="yes"/>
      <point x="-21" y="0"/>
      <point x="-35" y="19"/>
      <point x="-32" y="33" type="qcurve" smooth="yes"/>
      <point x="43" y="344" type="line"/>
      <point x="110" y="344" type="line"/>
      <point x="43" y="67" type="line"/>
      <point x="55" y="67" type="line"/>
      <point x="192" y="633" type="line"/>
      <point x="180" y="633" type="line"/>
      <point x="161" y="554" type="line"/>
      <point x="94" y="554" type="line"/>
      <point x="121" y="666" type="line" smooth="yes"/>
      <point x="124" y="680"/>
      <point x="148" y="700"/>
      <point x="162" y="700" type="qcurve" smooth="yes"/>
      <point x="241" y="700" type="line" smooth="yes"/>
      <point x="255" y="700"/>
      <point x="270" y="680"/>
      <point x="267" y="666" type="qcurve" smooth="yes"/>
      <point x="113" y="33" type="line" smooth="yes"/>
      <point x="110" y="19"/>
      <point x="86" y="0"/>
    </contour>
  </outline>
</glyph>
<glyph name="K" format="2">
  <advance width="158"/>
  <unicode hex="004B"/>
  <outline>
    <contour>
      <point x="27" y="0" type="line"/>
      <point x="-40" y="0" type="line"/>
      <point x="129" y="700" type="line"/>
      <point x="196" y="700" type="line"/>
      <point x="129" y="423" type="line"/>
      <point x="141" y="423" type="line"/>
      <point x="208" y="700" type="line"/>
      <point x="275" y="700" type="line"/>
      <point x="200" y="390" type="line" smooth="yes"/>
      <point x="196" y="376"/>
      <point x="173" y="356"/>
      <point x="159" y="356" type="qcurve" smooth="yes"/>
      <point x="113" y="356" type="line"/>
      <point x="110" y="344" type="line"/>
      <point x="156" y="344" type="line" smooth="yes"/>
      <point x="170" y="344"/>
      <point x="184" y="324"/>
      <point x="180" y="310" type="qcurve" smooth="yes"/>
      <point x="106" y="0" type="line"/>
      <point x="39" y="0" type="line"/>
      <point x="106" y="277" type="line"/>
      <point x="94" y="277" type="line"/>
    </contour>
  </outline>
</glyph>
<glyph name="L" format="2">
  <advance width="158"/>
  <unicode hex="004C"/>
  <outline>
    <contour>
      <point x="73" y="0" type="qcurve" smooth="yes"/>
      <point x="-7" y="0" type="line" smooth="yes"/>
      <point x="-21" y="0"/>
      <point x="-35" y="19"/>
      <point x="-32" y="33" type="qcurve" smooth="yes"/>
      <point x="129" y="700" type="line"/>
      <point x="196" y="700" type="line"/>
      <point x="43" y="67" type="line"/>
      <point x="55" y="67" type="line"/>
      <point x="122" y="344" type="line"/>
      <point x="189" y="344" type="line"/>
      <point x="113" y="33" type="line" smooth="yes"/>
      <point x="110" y="19"/>
      <point x="87" y="0"/>
    </contour>
  </outline>
</glyph>
<glyph name="N" format="2">
  <advance width="237"/>
  <unicode hex="004E"/>
  <outline>
    <contour>
      <point x="151" y="0" type="qcurve" smooth="yes"/>
      <point x="72" y="0" type="line" smooth="yes"/>
      <point x="58" y="0"/>
      <point x="43" y="19"/>
      <point x="46" y="33" type="qcurve" smooth="yes"/>
      <point x="192" y="633" type="line"/>
      <point x="180" y="633" type="line"/>
      <point x="27" y="0" type="line"/>
      <point x="-40" y="0" type="line"/>
      <point x="121" y="666" type="line" smooth="yes"/>
      <point x="124" y="680"/>
      <point x="148" y="700"/>
      <point x="162" y="700" type="qcurve" smooth="yes"/>
      <point x="241" y="700" type="line" smooth="yes"/>
      <point x="255" y="700"/>
      <point x="270" y="680"/>
      <point x="267" y="666" type="qcurve" smooth="yes"/>
      <point x="122" y="67" type="line"/>
      <point x="134" y="67" type="line"/>
      <point x="287" y="700" type="line"/>
      <point x="354" y="700" type="line"/>
      <point x="192" y="33" type="line" smooth="yes"/>
      <point x="189" y="19"/>
      <point x="165" y="0"/>
    </contour>
  </outline>
</glyph>
<glyph name="O" format="2">
  <advance width="158"/>
  <unicode hex="004F"/>
  <outline>
    <contour>
      <point x="-7" y="0" type="line" smooth="yes"/>
      <point x="-21" y="0"/>
      <point x="-35" y="19"/>
      <point x="-32" y="33" type="qcurve" smooth="yes"/>
      <point x="121" y="667" type="line" smooth="yes"/>
      <point x="124" y="681"/>
      <point x="148" y="700"/>
      <point x="162" y="700" type="qcurve" smooth="yes"/>
      <point x="242" y="700" type="line" smooth="yes"/>
      <point x="256" y="700"/>
      <point x="270" y="681"/>
      <point x="267" y="667" type="qcurve" smooth="yes"/>
      <point x="113" y="33" type="line" smooth="yes"/>
      <point x="110" y="19"/>
      <point x="87" y="0"/>
      <point x="73" y="0" type="qcurve" smooth="yes"/>
    </contour>
    <contour>
      <point x="43" y="67" type="line"/>
      <point x="55" y="67" type="line"/>
      <point x="192" y="633" type="line"/>
      <point x="180" y="633" type="line"/>
    </contour>
  </outline>
</glyph>
<glyph name="P" format="2">
  <advance width="158"/>
  <unicode hex="0050"/>
  <outline>
    <contour>
      <point x="27" y="0" type="line"/>
      <point x="-40" y="0" type="line"/>
      <point x="121" y="666" type="line" smooth="yes"/>
      <point x="124" y="680"/>
      <point x="148" y="700"/>
      <point x="162" y="700" type="qcurve" smooth="yes"/>
      <point x="241" y="700" type="line" smooth="yes"/>
      <point x="255" y="700"/>
      <point x="270" y="680"/>
      <point x="267" y="666" type="qcurve" smooth="yes"/>
      <point x="190" y="350" type="line" smooth="yes"/>
      <point x="187" y="336"/>
      <point x="162" y="316"/>
      <point x="148" y="316" type="qcurve" smooth="yes"/>
      <point x="103" y="316" type="line"/>
    </contour>
    <contour>
      <point x="119" y="383" type="line"/>
      <point x="131" y="383" type="line"/>
      <point x="192" y="633" type="line"/>
      <point x="180" y="633" type="line"/>
    </contour>
  </outline>
</glyph>
<glyph name="Q" format="2">
  <advance width="198"/>
  <unicode hex="0051"/>
  <outline>
    <contour>
      <point x="-7" y="0" type="line" smooth="yes"/>
      <point x="-21" y="0"/>
      <point x="-35" y="19"/>
      <point x="-32" y="33" type="qcurve" smooth="yes"/>
      <point x="121" y="667" type="line" smooth="yes"/>
      <point x="124" y="681"/>
      <point x="148" y="700"/>
      <point x="162" y="700" type="qcurve" smooth="yes"/>
      <point x="242" y="700" type="line" smooth="yes"/>
      <point x="256" y="700"/>
      <point x="270" y="681"/>
      <point x="267" y="667" type="qcurve" smooth="yes"/>
      <point x="122" y="67" type="line"/>
      <point x="162" y="67" type="line"/>
      <point x="146" y="0" type="line"/>
    </contour>
    <contour>
      <point x="43" y="67" type="line"/>
      <point x="55" y="67" type="line"/>
      <point x="192" y="633" type="line"/>
      <point x="180" y="633" type="line"/>
    </contour>
  </outline>
</glyph>
<glyph name="R" format="2">
  <advance width="158"/>
  <unicode hex="0052"/>
  <outline>
    <contour>
      <point x="106" y="0" type="line"/>
      <point x="39" y="0" type="line"/>
      <point x="106" y="277" type="line"/>
      <point x="94" y="277" type="line"/>
      <point x="27" y="0" type="line"/>
      <point x="-40" y="0" type="line"/>
      <point x="121" y="666" type="line" smooth="yes"/>
      <point x="124" y="680"/>
      <point x="148" y="700"/>
      <point x="162" y="700" type="qcurve" smooth="yes"/>
      <point x="241" y="700" type="line" smooth="yes"/>
      <point x="255" y="700"/>
      <point x="270" y="680"/>
      <point x="267" y="666" type="qcurve" smooth="yes"/>
      <point x="200" y="390" type="line" smooth="yes"/>
      <point x="196" y="376"/>
      <point x="172" y="356"/>
      <point x="158" y="356" type="qcurve" smooth="yes"/>
      <point x="113" y="356" type="line"/>
      <point x="110" y="344" type="line"/>
      <point x="155" y="344" type="line" smooth="yes"/>
      <point x="169" y="344"/>
      <point x="184" y="324"/>
      <point x="180" y="310" type="qcurve" smooth="yes"/>
    </contour>
    <contour>
      <point x="129" y="423" type="line"/>
      <point x="141" y="423" type="line"/>
      <point x="192" y="633" type="line"/>
      <point x="180" y="633" type="line"/>
    </contour>
  </outline>
</glyph>
<glyph name="T" format="2">
  <advance width="237"/>
  <unicode hex="0054"/>
  <outline>
    <contour>
      <point x="106" y="0" type="line"/>
      <point x="39" y="0" type="line"/>
      <point x="192" y="633" type="line"/>
      <point x="180" y="633" type="line"/>
      <point x="113" y="356" type="line"/>
      <point x="46" y="356" type="line"/>
      <point x="121" y="666" type="line" smooth="yes"/>
      <point x="124" y="680"/>
      <point x="149" y="700"/>
      <point x="163" y="700" type="qcurve" smooth="yes"/>
      <point x="321" y="700" type="line" smooth="yes"/>
      <point x="335" y="700"/>
      <point x="349" y="680"/>
      <point x="346" y="666" type="qcurve" smooth="yes"/>
      <point x="271" y="356" type="line"/>
      <point x="204" y="356" type="line"/>
      <point x="271" y="633" type="line"/>
      <point x="259" y="633" type="line"/>
    </contour>
  </outline>
</glyph>
<glyph name="V" format="2">
  <advance width="158"/>
  <unicode hex="0056"/>
  <outline>
    <contour>
      <point x="72" y="0" type="qcurve" smooth="yes"/>
      <point x="33" y="0" type="line" smooth="yes"/>
      <point x="22.5" y="0.0" name="inserted"/>
      <point x="9.5" y="9.0"/>
      <point x="7" y="18" type="qcurve" smooth="yes"/>
      <point x="-13" y="98" type="line" smooth="yes"/>
      <point x="-14.0" y="101.5" name="inserted"/>
      <point x="-13.5" y="109.0"/>
      <point x="-12" y="113" type="qcurve"/>
      <point x="129" y="700" type="line"/>
      <point x="196" y="700" type="line"/>
      <point x="56" y="120" type="line"/>
      <point x="55" y="69" type="line"/>
      <point x="208" y="700" type="line"/>
      <point x="275" y="700" type="line"/>
      <point x="113" y="33" type="line" smooth="yes"/>
      <point x="110" y="19"/>
      <point x="86" y="0"/>
    </contour>
  </outline>
</glyph>
<glyph name="W" format="2">
  <advance width="237"/>
  <unicode hex="0057"/>
  <outline>
    <contour>
      <point x="192" y="34" type="line" smooth="yes"/>
      <point x="188" y="20"/>
      <point x="165" y="0"/>
      <point x="151" y="0" type="qcurve" smooth="yes"/>
      <point x="-7" y="0" type="line" smooth="yes"/>
      <point x="-21" y="0"/>
      <point x="-36" y="20"/>
      <point x="-32" y="34" type="qcurve" smooth="yes"/>
      <point x="128" y="700" type="line"/>
      <point x="195" y="700" type="line"/>
      <point x="42" y="67" type="line"/>
      <point x="54" y="67" type="line"/>
      <point x="207" y="700" type="line"/>
      <point x="274" y="700" type="line"/>
      <point x="121" y="67" type="line"/>
      <point x="133" y="67" type="line"/>
      <point x="286" y="700" type="line"/>
      <point x="353" y="700" type="line"/>
    </contour>
  </outline>
</glyph>
<glyph name="X" format="2">
  <advance width="158"/>
  <unicode hex="0058"/>
  <outline>
    <contour>
      <point x="208" y="700" type="line"/>
      <point x="275" y="700" type="line"/>
      <point x="200" y="390" type="line" smooth="yes"/>
      <point x="196" y="376"/>
      <point x="173" y="356"/>
      <point x="159" y="356" type="qcurve" smooth="yes"/>
      <point x="153" y="356" type="line"/>
      <point x="150" y="344" type="line"/>
      <point x="156" y="344" type="line" smooth="yes"/>
      <point x="170" y="344"/>
      <point x="184" y="324"/>
      <point x="180" y="310" type="qcurve" smooth="yes"/>
      <point x="106" y="0" type="line"/>
      <point x="39" y="0" type="line"/>
      <point x="106" y="277" type="line"/>
      <point x="94" y="277" type="line"/>
      <point x="27" y="0" type="line"/>
      <point x="-40" y="0" type="line"/>
      <point x="34" y="310" type="line" smooth="yes"/>
      <point x="38" y="324"/>
      <point x="62" y="344"/>
      <point x="76" y="344" type="qcurve" smooth="yes"/>
      <point x="83" y="344" type="line"/>
      <point x="86" y="356" type="line"/>
      <point x="79" y="356" type="line" smooth="yes"/>
      <point x="65" y="356"/>
      <point x="50" y="376"/>
      <point x="54" y="390" type="qcurve" smooth="yes"/>
      <point x="129" y="700" type="line"/>
      <point x="196" y="700" type="line"/>
      <point x="129" y="423" type="line"/>
      <point x="141" y="423" type="line"/>
    </contour>
  </outline>
</glyph>
<glyph name="Y" format="2">
  <advance width="158"/>
  <unicode hex="0059"/>
  <outline>
    <contour>
      <point x="208" y="700" type="line"/>
      <point x="275" y="700" type="line"/>
      <point x="190" y="350" type="line" smooth="yes"/>
      <point x="187" y="336"/>
      <point x="163" y="317"/>
      <point x="149" y="317" type="qcurve" smooth="yes"/>
      <point x="143" y="317" type="line"/>
      <point x="67" y="0" type="line"/>
      <point x="0" y="0" type="line"/>
      <point x="76" y="317" type="line"/>
      <point x="69" y="317" type="line" smooth="yes"/>
      <point x="55" y="317"/>
      <point x="41" y="336"/>
      <point x="44" y="350" type="qcurve" smooth="yes"/>
      <point x="129" y="700" type="line"/>
      <point x="196" y="700" type="line"/>
      <point x="119" y="384" type="line"/>
      <point x="131" y="384" type="line"/>
    </contour>
  </outline>
</glyph>
<glyph name="Z" format="2">
  <advance width="158"/>
  <unicode hex="005A"/>
  <outline>
    <contour>
      <point x="73" y="0" type="qcurve" smooth="yes"/>
      <point x="-7" y="0" type="line" smooth="yes"/>
      <point x="-21" y="0"/>
      <point x="-35" y="19"/>
      <point x="-32" y="33" type="qcurve" smooth="yes"/>
      <point x="34" y="310" type="line"/>
      <point x="36.5" y="318.0" name="inserted"/>
      <point x="44.5" y="330.0"/>
      <point x="50" y="334" type="qcurve" smooth="yes"/>
      <point x="136" y="403" type="line"/>
      <point x="192" y="633" type="line"/>
      <point x="180" y="633" type="line"/>
      <point x="132" y="435" type="line"/>
      <point x="65" y="435" type="line"/>
      <point x="121" y="666" type="line" smooth="yes"/>
      <point x="124" y="680"/>
      <point x="148" y="700"/>
      <point x="162" y="700" type="qcurve" smooth="yes"/>
      <point x="242" y="700" type="line" smooth="yes"/>
      <point x="256" y="700"/>
      <point x="270" y="680"/>
      <point x="267" y="666" type="qcurve" smooth="yes"/>
      <point x="200" y="390" type="line" smooth="yes"/>
      <point x="198.5" y="383.0" name="inserted"/>
      <point x="190.5" y="371.0"/>
      <point x="184" y="366" type="qcurve" smooth="yes"/>
      <point x="98" y="297" type="line"/>
      <point x="43" y="67" type="line"/>
      <point x="55" y="67" type="line"/>
      <point x="103" y="265" type="line"/>
      <point x="170" y="265" type="line"/>
      <point x="113" y="33" type="line" smooth="yes"/>
      <point x="110" y="19"/>
      <point x="87" y="0"/>
    </contour>
  </outline>
</glyph>
<glyph name="bracketleft" format="2">
  <advance width="158"/>
  <unicode hex="005B"/>
  <outline>
    <contour>
      <point x="106" y="0" type="line"/>
      <point x="-7" y="0" type="line" smooth="yes"/>
      <point x="-21" y="0"/>
      <point x="-35" y="19"/>
      <point x="-32" y="33" type="qcurve" smooth="yes"/>
      <point x="121" y="666" type="line" smooth="yes"/>
      <point x="124" y="680"/>
      <point x="148" y="700"/>
      <point x="162" y="700" type="qcurve" smooth="yes"/>
      <point x="275" y="700" type="line"/>
      <point x="259" y="633" type="line"/>
      <point x="180" y="633" type="line"/>
      <point x="43" y="67" type="line"/>
      <point x="122" y="67" type="line"/>
    </contour>
  </outline>
</glyph>
<glyph name="backslash" format="2">
  <advance width="158"/>
  <unicode hex="005C"/>
  <outline>
    <contour>
      <point x="196" y="700" type="line"/>
      <point x="150" y="512" type="line"/>
      <point x="153" y="200" type="line" smooth="yes"/>
      <point x="153" y="198"/>
      <point x="152" y="194"/>
      <point x="152" y="192" type="qcurve"/>
      <point x="106" y="0" type="line"/>
      <point x="39" y="0" type="line"/>
      <point x="84" y="188" type="line"/>
      <point x="81" y="500" type="line" smooth="yes"/>
      <point x="81" y="502"/>
      <point x="82" y="506"/>
      <point x="82" y="508" type="qcurve"/>
      <point x="129" y="700" type="line"/>
    </contour>
  </outline>
</glyph>
<glyph name="asciicircum" format="2">
  <advance width="158"/>
  <unicode hex="005E"/>
  <outline>
    <contour>
      <point x="240" y="554" type="line"/>
      <point x="173" y="554" type="line"/>
      <point x="187" y="613" type="line"/>
      <point x="182" y="619" type="line"/>
      <point x="175" y="613" type="line"/>
      <point x="161" y="554" type="line"/>
      <point x="94" y="554" type="line"/>
      <point x="111" y="627" type="line" smooth="yes"/>
      <point x="112.5" y="634.0" name="inserted"/>
      <point x="120.5" y="646.0"/>
      <point x="127" y="651" type="qcurve" smooth="yes"/>
      <point x="175" y="690" type="line" smooth="yes"/>
      <point x="188" y="700"/>
      <point x="216" y="700"/>
      <point x="223" y="690" type="qcurve" smooth="yes"/>
      <point x="253" y="651" type="line" smooth="yes"/>
      <point x="256.5" y="646.0" name="inserted"/>
      <point x="258.5" y="634.0"/>
      <point x="257" y="627" type="qcurve" smooth="yes"/>
    </contour>
  </outline>
</glyph>
<glyph name="underscore" format="2">
  <advance width="158"/>
  <unicode hex="005F"/>
  <outline>
    <contour>
      <point x="86" y="-79" type="line"/>
      <point x="-59" y="-79" type="line"/>
      <point x="-42" y="-12" type="line"/>
      <point x="103" y="-12" type="line"/>
      <point x="86" y="-79" type="line"/>
    </contour>
  </outline>
</glyph>
<glyph name="grave" format="2">
  <advance width="158"/>
  <unicode hex="0060"/>
  <outline>
    <contour>
      <point x="240" y="554" type="line"/>
      <point x="127" y="554" type="line" smooth="yes"/>
      <point x="113" y="554"/>
      <point x="98" y="573"/>
      <point x="102" y="587" type="qcurve" smooth="yes"/>
      <point x="129" y="700" type="line"/>
      <point x="196" y="700" type="line"/>
      <point x="177" y="621" type="line"/>
      <point x="256" y="621" type="line"/>
    </contour>
  </outline>
</glyph>
<glyph name="b" format="2">
  <advance width="158"/>
  <unicode hex="0062"/>
  <outline>
    <contour>
      <point x="73" y="0" type="qcurve" smooth="yes"/>
      <point x="-6" y="0" type="line" smooth="yes"/>
      <point x="-20" y="0"/>
      <point x="-35" y="19"/>
      <point x="-32" y="33" type="qcurve" smooth="yes"/>
      <point x="129" y="700" type="line"/>
      <point x="196" y="700" type="line"/>
      <point x="158" y="542" type="line"/>
      <point x="204" y="542" type="line" smooth="yes"/>
      <point x="218" y="542"/>
      <point x="232" y="522"/>
      <point x="228" y="508" type="qcurve" smooth="yes"/>
      <point x="113" y="33" type="line" smooth="yes"/>
      <point x="110" y="19"/>
      <point x="87" y="0"/>
    </contour>
    <contour>
      <point x="43" y="67" type="line"/>
      <point x="55" y="67" type="line"/>
      <point x="153" y="475" type="line"/>
      <point x="141" y="475" type="line"/>
    </contour>
  </outline>
</glyph>
<glyph name="d" format="2">
  <advance width="158"/>
  <unicode hex="0064"/>
  <outline>
    <contour>
      <point x="-7" y="0" type="line" smooth="yes"/>
      <point x="-21" y="0"/>
      <point x="-35" y="19"/>
      <point x="-32" y="33" type="qcurve" smooth="yes"/>
      <point x="82" y="508" type="line" smooth="yes"/>
      <point x="86" y="522"/>
      <point x="110" y="542"/>
      <point x="124" y="542" type="qcurve" smooth="yes"/>
      <point x="170" y="542" type="line"/>
      <point x="208" y="700" type="line"/>
      <point x="275" y="700" type="line"/>
      <point x="113" y="33" type="line" smooth="yes"/>
      <point x="110" y="19"/>
      <point x="86" y="0"/>
      <point x="72" y="0" type="qcurve" smooth="yes"/>
    </contour>
    <contour>
      <point x="153" y="475" type="line"/>
      <point x="141" y="475" type="line"/>
      <point x="43" y="67" type="line"/>
      <point x="55" y="67" type="line"/>
    </contour>
  </outline>
</glyph>
<glyph name="e" format="2">
  <advance width="158"/>
  <unicode hex="0065"/>
  <outline>
    <contour>
      <point x="73" y="0" type="qcurve" smooth="yes"/>
      <point x="-7" y="0" type="line" smooth="yes"/>
      <point x="-21" y="0"/>
      <point x="-35" y="19"/>
      <point x="-32" y="33" type="qcurve" smooth="yes"/>
      <point x="82" y="508" type="line" smooth="yes"/>
      <point x="86" y="522"/>
      <point x="110" y="542"/>
      <point x="124" y="542" type="qcurve" smooth="yes"/>
      <point x="204" y="542" type="line" smooth="yes"/>
      <point x="218" y="542"/>
      <point x="232" y="522"/>
      <point x="228" y="508" type="qcurve" smooth="yes"/>
      <point x="171" y="271" type="line" smooth="yes"/>
      <point x="167" y="257"/>
      <point x="144" y="237"/>
      <point x="130" y="237" type="qcurve" smooth="yes"/>
      <point x="84" y="237" type="line"/>
      <point x="43" y="67" type="line"/>
      <point x="55" y="67" type="line"/>
      <point x="93" y="225" type="line"/>
      <point x="160" y="225" type="line"/>
      <point x="113" y="33" type="line" smooth="yes"/>
      <point x="110" y="19"/>
      <point x="87" y="0"/>
    </contour>
    <contour>
      <point x="100" y="304" type="line"/>
      <point x="112" y="304" type="line"/>
      <point x="153" y="475" type="line"/>
      <point x="141" y="475" type="line"/>
    </contour>
  </outline>
</glyph>
<glyph name="f" format="2">
  <advance width="158"/>
  <unicode hex="0066"/>
  <outline>
    <contour>
      <point x="122" y="396" type="line"/>
      <point x="27" y="0" type="line"/>
      <point x="-40" y="0" type="line"/>
      <point x="121" y="667" type="line" smooth="yes"/>
      <point x="124" y="681"/>
      <point x="148" y="700"/>
      <point x="162" y="700" type="qcurve" smooth="yes"/>
      <point x="242" y="700" type="line" smooth="yes"/>
      <point x="256" y="700"/>
      <point x="270" y="681"/>
      <point x="267" y="667" type="qcurve" smooth="yes"/>
      <point x="220" y="475" type="line"/>
      <point x="153" y="475" type="line"/>
      <point x="192" y="633" type="line"/>
      <point x="180" y="633" type="line"/>
      <point x="139" y="463" type="line"/>
      <point x="218" y="463" type="line"/>
      <point x="201" y="396" type="line"/>
    </contour>
  </outline>
</glyph>
<glyph name="g" format="2">
  <advance width="158"/>
  <unicode hex="0067"/>
  <outline>
    <contour>
      <point x="34" y="-158" type="qcurve" smooth="yes"/>
      <point x="-44" y="-158" type="line" smooth="yes"/>
      <point x="-58" y="-158"/>
      <point x="-73" y="-139"/>
      <point x="-70" y="-125" type="qcurve" smooth="yes"/>
      <point x="-42" y="-12" type="line"/>
      <point x="24" y="-12" type="line"/>
      <point x="4" y="-91" type="line"/>
      <point x="17" y="-91" type="line"/>
      <point x="40" y="0" type="line"/>
      <point x="-6" y="0" type="line" smooth="yes"/>
      <point x="-20" y="0"/>
      <point x="-35" y="19"/>
      <point x="-32" y="33" type="qcurve" smooth="yes"/>
      <point x="82" y="508" type="line" smooth="yes"/>
      <point x="86" y="522"/>
      <point x="111" y="542"/>
      <point x="125" y="542" type="qcurve" smooth="yes"/>
      <point x="204" y="542" type="line" smooth="yes"/>
      <point x="218" y="542"/>
      <point x="233" y="522"/>
      <point x="229" y="508" type="qcurve" smooth="yes"/>
      <point x="76" y="-125" type="line" smooth="yes"/>
      <point x="73" y="-139"/>
      <point x="48" y="-158"/>
    </contour>
    <contour>
      <point x="43" y="67" type="line"/>
      <point x="56" y="67" type="line"/>
      <point x="154" y="475" type="line"/>
      <point x="141" y="475" type="line"/>
    </contour>
  </outline>
</glyph>
<glyph name="h" format="2">
  <advance width="158"/>
  <unicode hex="0068"/>
  <outline>
    <contour>
      <point x="106" y="0" type="line"/>
      <point x="39" y="0" type="line"/>
      <point x="153" y="475" type="line"/>
      <point x="141" y="475" type="line"/>
      <point x="27" y="0" type="line"/>
      <point x="-40" y="0" type="line"/>
      <point x="129" y="700" type="line"/>
      <point x="196" y="700" type="line"/>
      <point x="158" y="542" type="line"/>
      <point x="204" y="542" type="line" smooth="yes"/>
      <point x="218" y="542"/>
      <point x="232" y="522"/>
      <point x="228" y="508" type="qcurve" smooth="yes"/>
    </contour>
  </outline>
</glyph>
<glyph name="i" format="2">
  <advance width="79"/>
  <unicode hex="0069"/>
  <outline>
    <contour>
      <point x="-40" y="0" type="line"/>
      <point x="91" y="542" type="line"/>
      <point x="158" y="542" type="line"/>
      <point x="27" y="0" type="line"/>
    </contour>
    <contour>
      <point x="196" y="700" type="line"/>
      <point x="161" y="554" type="line"/>
      <point x="94" y="554" type="line"/>
      <point x="129" y="700" type="line"/>
    </contour>
  </outline>
</glyph>
<glyph name="j" format="2">
  <advance width="79"/>
  <unicode hex="006A"/>
  <outline>
    <contour>
      <point x="-2" y="-124" type="line" smooth="yes"/>
      <point x="-6" y="-138"/>
      <point x="-30" y="-158"/>
      <point x="-44" y="-158" type="qcurve" smooth="yes"/>
      <point x="-124" y="-158" type="line" smooth="yes"/>
      <point x="-138" y="-158"/>
      <point x="-152" y="-138"/>
      <point x="-148" y="-124" type="qcurve" smooth="yes"/>
      <point x="-121" y="-11" type="line"/>
      <point x="-54" y="-11" type="line"/>
      <point x="-74" y="-91" type="line"/>
      <point x="-62" y="-91" type="line"/>
      <point x="91" y="542" type="line"/>
      <point x="158" y="542" type="line"/>
    </contour>
    <contour>
      <point x="129" y="700" type="line"/>
      <point x="196" y="700" type="line"/>
      <point x="161" y="555" type="line"/>
      <point x="94" y="555" type="line"/>
    </contour>
  </outline>
</glyph>
<glyph name="l" format="2">
  <advance width="79"/>
  <unicode hex="006C"/>
  <outline>
    <contour>
      <point x="-40" y="0" type="line"/>
      <point x="129" y="700" type="line"/>
      <point x="196" y="700" type="line"/>
      <point x="27" y="0" type="line"/>
      <point x="-40" y="0" type="line"/>
    </contour>
  </outline>
</glyph>
<glyph name="m" format="2">
  <advance width="237"/>
  <unicode hex="006D"/>
  <outline>
    <contour>
      <point x="185" y="0" type="line"/>
      <point x="118" y="0" type="line"/>
      <point x="232" y="475" type="line"/>
      <point x="220" y="475" type="line"/>
      <point x="106" y="0" type="line"/>
      <point x="39" y="0" type="line"/>
      <point x="153" y="475" type="line"/>
      <point x="141" y="475" type="line"/>
      <point x="27" y="0" type="line"/>
      <point x="-40" y="0" type="line"/>
      <point x="82" y="508" type="line" smooth="yes"/>
      <point x="86" y="522"/>
      <point x="111" y="542"/>
      <point x="125" y="542" type="qcurve" smooth="yes"/>
      <point x="283" y="542" type="line" smooth="yes"/>
      <point x="297" y="542"/>
      <point x="311" y="522"/>
      <point x="307" y="508" type="qcurve" smooth="yes"/>
    </contour>
  </outline>
</glyph>
<glyph name="n" format="2">
  <advance width="158"/>
  <unicode hex="006E"/>
  <outline>
    <contour>
      <point x="124" y="542" type="qcurve" smooth="yes"/>
      <point x="204" y="542" type="line" smooth="yes"/>
      <point x="218" y="542"/>
      <point x="232" y="523"/>
      <point x="229" y="509" type="qcurve" smooth="yes"/>
      <point x="106" y="0" type="line"/>
      <point x="39" y="0" type="line"/>
      <point x="153" y="475" type="line"/>
      <point x="141" y="475" type="line"/>
      <point x="27" y="0" type="line"/>
      <point x="-40" y="0" type="line"/>
      <point x="83" y="509" type="line" smooth="yes"/>
      <point x="86" y="523"/>
      <point x="110" y="542"/>
    </contour>
  </outline>
</glyph>
<glyph name="p" format="2">
  <advance width="158"/>
  <unicode hex="0070"/>
  <outline>
    <contour>
      <point x="204" y="542" type="line" smooth="yes"/>
      <point x="218" y="542"/>
      <point x="232" y="523"/>
      <point x="229" y="509" type="qcurve" smooth="yes"/>
      <point x="114" y="34" type="line" smooth="yes"/>
      <point x="110" y="20"/>
      <point x="87" y="0"/>
      <point x="73" y="0" type="qcurve" smooth="yes"/>
      <point x="27" y="0" type="line"/>
      <point x="-11" y="-158" type="line"/>
      <point x="-78" y="-158" type="line"/>
      <point x="83" y="509" type="line" smooth="yes"/>
      <point x="86" y="523"/>
      <point x="111" y="542"/>
      <point x="125" y="542" type="qcurve" smooth="yes"/>
    </contour>
    <contour>
      <point x="43" y="67" type="line"/>
      <point x="55" y="67" type="line"/>
      <point x="153" y="475" type="line"/>
      <point x="141" y="475" type="line"/>
    </contour>
  </outline>
</glyph>
<glyph name="q" format="2">
  <advance width="158"/>
  <unicode hex="0071"/>
  <outline>
    <contour>
      <point x="203" y="542" type="line" smooth="yes"/>
      <point x="217" y="542"/>
      <point x="232" y="523"/>
      <point x="229" y="509" type="qcurve" smooth="yes"/>
      <point x="67" y="-158" type="line"/>
      <point x="0" y="-158" type="line"/>
      <point x="39" y="0" type="line"/>
      <point x="-7" y="0" type="line" smooth="yes"/>
      <point x="-21" y="0"/>
      <point x="-35" y="20"/>
      <point x="-31" y="34" type="qcurve" smooth="yes"/>
      <point x="83" y="509" type="line" smooth="yes"/>
      <point x="86" y="523"/>
      <point x="110" y="542"/>
      <point x="124" y="542" type="qcurve" smooth="yes"/>
    </contour>
    <contour>
      <point x="153" y="475" type="line"/>
      <point x="141" y="475" type="line"/>
      <point x="43" y="67" type="line"/>
      <point x="55" y="67" type="line"/>
    </contour>
  </outline>
</glyph>
<glyph name="r" format="2">
  <advance width="158"/>
  <unicode hex="0072"/>
  <outline>
    <contour>
      <point x="27" y="0" type="line"/>
      <point x="-40" y="0" type="line"/>
      <point x="82" y="508" type="line" smooth="yes"/>
      <point x="86" y="522"/>
      <point x="110" y="542"/>
      <point x="124" y="542" type="qcurve" smooth="yes"/>
      <point x="204" y="542" type="line" smooth="yes"/>
      <point x="218" y="542"/>
      <point x="232" y="522"/>
      <point x="228" y="508" type="qcurve" smooth="yes"/>
      <point x="182" y="316" type="line"/>
      <point x="115" y="316" type="line"/>
      <point x="153" y="475" type="line"/>
      <point x="141" y="475" type="line"/>
    </contour>
  </outline>
</glyph>
<glyph name="t" format="2">
  <advance width="119"/>
  <unicode hex="0074"/>
  <outline>
    <contour>
      <point x="158" y="542" type="line"/>
      <point x="198" y="542" type="line"/>
      <point x="181" y="475" type="line"/>
      <point x="141" y="475" type="line"/>
      <point x="27" y="0" type="line"/>
      <point x="-40" y="0" type="line"/>
      <point x="129" y="700" type="line"/>
      <point x="196" y="700" type="line"/>
      <point x="158" y="542" type="line"/>
    </contour>
  </outline>
</glyph>
<glyph name="u" format="2">
  <advance width="158"/>
  <unicode hex="0075"/>
  <outline>
    <contour>
      <point x="170" y="542" type="line"/>
      <point x="237" y="542" type="line"/>
      <point x="113" y="33" type="line" smooth="yes"/>
      <point x="110" y="19"/>
      <point x="86" y="0"/>
      <point x="72" y="0" type="qcurve" smooth="yes"/>
      <point x="-7" y="0" type="line" smooth="yes"/>
      <point x="-21" y="0"/>
      <point x="-35" y="19"/>
      <point x="-32" y="33" type="qcurve" smooth="yes"/>
      <point x="91" y="542" type="line"/>
      <point x="158" y="542" type="line"/>
      <point x="43" y="67" type="line"/>
      <point x="55" y="67" type="line"/>
    </contour>
  </outline>
</glyph>
<glyph name="v" format="2">
  <advance width="158"/>
  <unicode hex="0076"/>
  <outline>
    <contour>
      <point x="72" y="0" type="qcurve" smooth="yes"/>
      <point x="33" y="0" type="line" smooth="yes"/>
      <point x="22.5" y="0.0" name="inserted"/>
      <point x="9.5" y="9.0"/>
      <point x="7" y="18" type="qcurve" smooth="yes"/>
      <point x="-13" y="98" type="line" smooth="yes"/>
      <point x="-14.0" y="101.5" name="inserted"/>
      <point x="-13.5" y="109.0"/>
      <point x="-12" y="113" type="qcurve"/>
      <point x="91" y="542" type="line"/>
      <point x="158" y="542" type="line"/>
      <point x="56" y="120" type="line"/>
      <point x="55" y="69" type="line"/>
      <point x="170" y="542" type="line"/>
      <point x="237" y="542" type="line"/>
      <point x="113" y="33" type="line" smooth="yes"/>
      <point x="110" y="19"/>
      <point x="86" y="0"/>
    </contour>
  </outline>
</glyph>
<glyph name="w" format="2">
  <advance width="237"/>
  <unicode hex="0077"/>
  <outline>
    <contour>
      <point x="193" y="34" type="line" smooth="yes"/>
      <point x="189" y="20"/>
      <point x="166" y="0"/>
      <point x="152" y="0" type="qcurve" smooth="yes"/>
      <point x="-6" y="0" type="line" smooth="yes"/>
      <point x="-20" y="0"/>
      <point x="-35" y="20"/>
      <point x="-31" y="34" type="qcurve" smooth="yes"/>
      <point x="91" y="542" type="line"/>
      <point x="158" y="542" type="line"/>
      <point x="43" y="67" type="line"/>
      <point x="55" y="67" type="line"/>
      <point x="170" y="542" type="line"/>
      <point x="237" y="542" type="line"/>
      <point x="122" y="67" type="line"/>
      <point x="134" y="67" type="line"/>
      <point x="249" y="542" type="line"/>
      <point x="316" y="542" type="line"/>
    </contour>
  </outline>
</glyph>
<glyph name="x" format="2">
  <advance width="158"/>
  <unicode hex="0078"/>
  <outline>
    <contour>
      <point x="106" y="0" type="line"/>
      <point x="39" y="0" type="line"/>
      <point x="86" y="198" type="line"/>
      <point x="74" y="198" type="line"/>
      <point x="27" y="0" type="line"/>
      <point x="-40" y="0" type="line"/>
      <point x="15" y="231" type="line" smooth="yes"/>
      <point x="19" y="245"/>
      <point x="43" y="265"/>
      <point x="57" y="265" type="qcurve" smooth="yes"/>
      <point x="64" y="265" type="line"/>
      <point x="67" y="277" type="line"/>
      <point x="60" y="277" type="line" smooth="yes"/>
      <point x="46" y="277"/>
      <point x="31" y="296"/>
      <point x="34" y="310" type="qcurve" smooth="yes"/>
      <point x="91" y="542" type="line"/>
      <point x="158" y="542" type="line"/>
      <point x="110" y="344" type="line"/>
      <point x="122" y="344" type="line"/>
      <point x="170" y="542" type="line"/>
      <point x="237" y="542" type="line"/>
      <point x="180" y="310" type="line" smooth="yes"/>
      <point x="177" y="296"/>
      <point x="154" y="277"/>
      <point x="140" y="277" type="qcurve" smooth="yes"/>
      <point x="134" y="277" type="line"/>
      <point x="131" y="265" type="line"/>
      <point x="137" y="265" type="line" smooth="yes"/>
      <point x="151" y="265"/>
      <point x="165" y="245"/>
      <point x="161" y="231" type="qcurve" smooth="yes"/>
    </contour>
  </outline>
</glyph>
<glyph name="y" format="2">
  <advance width="158"/>
  <unicode hex="0079"/>
  <outline>
    <contour>
      <point x="170" y="542" type="line"/>
      <point x="237" y="542" type="line"/>
      <point x="75" y="-125" type="line" smooth="yes"/>
      <point x="72" y="-139"/>
      <point x="47" y="-158"/>
      <point x="33" y="-158" type="qcurve" smooth="yes"/>
      <point x="-45" y="-158" type="line" smooth="yes"/>
      <point x="-59" y="-158"/>
      <point x="-73" y="-139"/>
      <point x="-70" y="-125" type="qcurve" smooth="yes"/>
      <point x="-42" y="-12" type="line"/>
      <point x="24" y="-12" type="line"/>
      <point x="4" y="-91" type="line"/>
      <point x="16" y="-91" type="line"/>
      <point x="39" y="0" type="line"/>
      <point x="-7" y="0" type="line" smooth="yes"/>
      <point x="-21" y="0"/>
      <point x="-35" y="19"/>
      <point x="-32" y="33" type="qcurve" smooth="yes"/>
      <point x="91" y="542" type="line"/>
      <point x="158" y="542" type="line"/>
      <point x="43" y="67" type="line"/>
      <point x="55" y="67" type="line"/>
    </contour>
  </outline>
</glyph>
<glyph name="z" format="2">
  <advance width="158"/>
  <unicode hex="007A"/>
  <outline>
    <contour>
      <point x="73" y="0" type="qcurve" smooth="yes"/>
      <point x="-7" y="0" type="line" smooth="yes"/>
      <point x="-21" y="0"/>
      <point x="-35" y="19"/>
      <point x="-32" y="33" type="qcurve" smooth="yes"/>
      <point x="15" y="231" type="line"/>
      <point x="17.5" y="239.0" name="inserted"/>
      <point x="25.5" y="251.0"/>
      <point x="31" y="255" type="qcurve" smooth="yes"/>
      <point x="117" y="324" type="line"/>
      <point x="153" y="475" type="line"/>
      <point x="141" y="475" type="line"/>
      <point x="113" y="356" type="line"/>
      <point x="46" y="356" type="line"/>
      <point x="82" y="508" type="line" smooth="yes"/>
      <point x="86" y="522"/>
      <point x="110" y="542"/>
      <point x="124" y="542" type="qcurve" smooth="yes"/>
      <point x="204" y="542" type="line" smooth="yes"/>
      <point x="218" y="542"/>
      <point x="232" y="522"/>
      <point x="228" y="508" type="qcurve" smooth="yes"/>
      <point x="180" y="310" type="line"/>
      <point x="179.0" y="303.5" name="inserted"/>
      <point x="171.5" y="292.0"/>
      <point x="165" y="287" type="qcurve" smooth="yes"/>
      <point x="79" y="217" type="line"/>
      <point x="43" y="67" type="line"/>
      <point x="55" y="67" type="line"/>
      <point x="83" y="186" type="line"/>
      <point x="150" y="186" type="line"/>
      <point x="113" y="33" type="line" smooth="yes"/>
      <point x="110" y="19"/>
      <point x="87" y="0"/>
    </contour>
  </outline>
</glyph>
<glyph name="braceleft" format="2">
  <advance width="158"/>
  <unicode hex="007B"/>
  <outline>
    <contour>
      <point x="161" y="667" type="line"/>
      <point x="164" y="681"/>
      <point x="188" y="700"/>
      <point x="202" y="700" type="qcurve" smooth="yes"/>
      <point x="275" y="700" type="line"/>
      <point x="259" y="633" type="line"/>
      <point x="220" y="633" type="line"/>
      <point x="161" y="390" type="line" smooth="yes"/>
      <point x="157" y="376"/>
      <point x="133" y="356"/>
      <point x="119" y="356" type="qcurve" smooth="yes"/>
      <point x="113" y="356" type="line"/>
      <point x="110" y="344" type="line"/>
      <point x="116" y="344" type="line" smooth="yes"/>
      <point x="130" y="344"/>
      <point x="145" y="324"/>
      <point x="141" y="310" type="qcurve" smooth="yes"/>
      <point x="83" y="67" type="line"/>
      <point x="122" y="67" type="line"/>
      <point x="106" y="0" type="line"/>
      <point x="33" y="0" type="line" smooth="yes"/>
      <point x="19" y="0"/>
      <point x="4" y="19"/>
      <point x="7" y="33" type="qcurve" smooth="yes"/>
      <point x="67" y="277" type="line"/>
      <point x="60" y="277" type="line" smooth="yes"/>
      <point x="46" y="277"/>
      <point x="31" y="296"/>
      <point x="34" y="310" type="qcurve" smooth="yes"/>
      <point x="54" y="390" type="line" smooth="yes"/>
      <point x="57" y="404"/>
      <point x="81" y="423"/>
      <point x="95" y="423" type="qcurve" smooth="yes"/>
      <point x="102" y="423" type="line"/>
      <point x="161" y="667" type="line"/>
    </contour>
  </outline>
</glyph>
<glyph name="bar" format="2">
  <advance width="79"/>
  <unicode hex="007C"/>
  <outline>
    <contour>
      <point x="-59" y="-79" type="line"/>
      <point x="148" y="779" type="line"/>
      <point x="215" y="779" type="line"/>
      <point x="7" y="-79" type="line"/>
      <point x="-59" y="-79" type="line"/>
    </contour>
  </outline>
</glyph>
<glyph name="braceright" format="2">
  <advance width="158"/>
  <unicode hex="007D"/>
  <outline>
    <contour>
      <point x="228" y="667" type="qcurve" smooth="yes"/>
      <point x="169" y="423" type="line"/>
      <point x="175" y="423" type="line" smooth="yes"/>
      <point x="189" y="423"/>
      <point x="203" y="404"/>
      <point x="200" y="390" type="qcurve" smooth="yes"/>
      <point x="180" y="310" type="line" smooth="yes"/>
      <point x="177" y="296"/>
      <point x="154" y="277"/>
      <point x="140" y="277" type="qcurve" smooth="yes"/>
      <point x="134" y="277" type="line"/>
      <point x="74" y="33" type="line" smooth="yes"/>
      <point x="71" y="19"/>
      <point x="47" y="0"/>
      <point x="33" y="0" type="qcurve" smooth="yes"/>
      <point x="-40" y="0" type="line"/>
      <point x="-23" y="67" type="line"/>
      <point x="16" y="67" type="line"/>
      <point x="74" y="310" type="line" smooth="yes"/>
      <point x="78" y="324"/>
      <point x="102" y="344"/>
      <point x="116" y="344" type="qcurve" smooth="yes"/>
      <point x="122" y="344" type="line"/>
      <point x="125" y="356" type="line"/>
      <point x="119" y="356" type="line" smooth="yes"/>
      <point x="105" y="356"/>
      <point x="90" y="376"/>
      <point x="94" y="390" type="qcurve" smooth="yes"/>
      <point x="153" y="633" type="line"/>
      <point x="113" y="633" type="line"/>
      <point x="129" y="700" type="line"/>
      <point x="202" y="700" type="line" smooth="yes"/>
      <point x="216" y="700"/>
      <point x="231" y="681"/>
    </contour>
  </outline>
</glyph>
<glyph name="asciitilde" format="2">
  <advance width="198"/>
  <unicode hex="007E"/>
  <outline>
    <contour>
      <point x="162" y="344" type="line"/>
      <point x="229" y="344" type="line"/>
      <point x="211" y="271" type="line" smooth="yes"/>
      <point x="207" y="257"/>
      <point x="183" y="237"/>
      <point x="169" y="237" type="qcurve" smooth="yes"/>
      <point x="84" y="237" type="line"/>
      <point x="74" y="198" type="line"/>
      <point x="7" y="198" type="line"/>
      <point x="25" y="271" type="line" smooth="yes"/>
      <point x="28" y="285"/>
      <point x="52" y="304"/>
      <point x="66" y="304" type="qcurve" smooth="yes"/>
      <point x="152" y="304" type="line"/>
    </contour>
  </outline>
</glyph>
<glyph name="sterling" format="2">
  <advance width="237"/>
  <unicode hex="00A3"/>
  <outline>
    <contour>
      <point x="185" y="0" type="line"/>
      <point x="-7" y="0" type="line" smooth="yes"/>
      <point x="-21" y="0"/>
      <point x="-35" y="20"/>
      <point x="-31" y="34" type="qcurve" smooth="yes"/>
      <point x="-12" y="113" type="line" smooth="yes"/>
      <point x="-9" y="127"/>
      <point x="14" y="146"/>
      <point x="28" y="146" type="qcurve" smooth="yes"/>
      <point x="74" y="146" type="line"/>
      <point x="115" y="317" type="line"/>
      <point x="36" y="317" type="line"/>
      <point x="52" y="384" type="line"/>
      <point x="131" y="384" type="line"/>
      <point x="209" y="706" type="line" smooth="yes"/>
      <point x="213" y="720"/>
      <point x="238" y="740"/>
      <point x="252" y="740" type="qcurve" smooth="yes"/>
      <point x="331" y="740" type="line" smooth="yes"/>
      <point x="345" y="740"/>
      <point x="359" y="720"/>
      <point x="355" y="706" type="qcurve" smooth="yes"/>
      <point x="280" y="396" type="line"/>
      <point x="213" y="396" type="line"/>
      <point x="280" y="673" type="line"/>
      <point x="268" y="673" type="line"/>
      <point x="198" y="384" type="line"/>
      <point x="277" y="384" type="line"/>
      <point x="261" y="317" type="line"/>
      <point x="182" y="317" type="line"/>
      <point x="133" y="113" type="line" smooth="yes"/>
      <point x="129" y="99"/>
      <point x="106" y="79"/>
      <point x="92" y="79" type="qcurve" smooth="yes"/>
      <point x="46" y="79" type="line"/>
      <point x="43" y="67" type="line"/>
      <point x="201" y="67" type="line"/>
    </contour>
  </outline>
</glyph>
<glyph name="currency" format="2">
  <advance width="237"/>
  <unicode hex="00A4"/>
  <outline>
    <contour>
      <point x="125" y="80" type="line"/>
      <point x="58" y="80" type="line"/>
      <point x="77" y="159" type="line"/>
      <point x="71" y="159" type="line" smooth="yes"/>
      <point x="57" y="159"/>
      <point x="43" y="179"/>
      <point x="46" y="193" type="qcurve" smooth="yes"/>
      <point x="76" y="317" type="line"/>
      <point x="36" y="317" type="line"/>
      <point x="52" y="384" type="line"/>
      <point x="92" y="384" type="line"/>
      <point x="123" y="509" type="line" smooth="yes"/>
      <point x="126" y="523"/>
      <point x="150" y="543"/>
      <point x="164" y="543" type="qcurve" smooth="yes"/>
      <point x="170" y="543" type="line"/>
      <point x="189" y="622" type="line"/>
      <point x="256" y="622" type="line"/>
      <point x="237" y="543" type="line"/>
      <point x="243" y="543" type="line" smooth="yes"/>
      <point x="257" y="543"/>
      <point x="272" y="523"/>
      <point x="269" y="509" type="qcurve" smooth="yes"/>
      <point x="238" y="384" type="line"/>
      <point x="277" y="384" type="line"/>
      <point x="261" y="317" type="line"/>
      <point x="222" y="317" type="line"/>
      <point x="192" y="193" type="line" smooth="yes"/>
      <point x="189" y="179"/>
      <point x="164" y="159"/>
      <point x="150" y="159" type="qcurve" smooth="yes"/>
      <point x="144" y="159" type="line"/>
    </contour>
    <contour>
      <point x="121" y="226" type="line"/>
      <point x="133" y="226" type="line"/>
      <point x="194" y="476" type="line"/>
      <point x="182" y="476" type="line"/>
    </contour>
  </outline>
</glyph>
<glyph name="yen" format="2">
  <advance width="158"/>
  <unicode hex="00A5"/>
  <outline>
    <contour>
      <point x="153" y="356" type="line"/>
      <point x="150" y="344" type="line"/>
      <point x="189" y="344" type="line"/>
      <point x="173" y="277" type="line"/>
      <point x="134" y="277" type="line"/>
      <point x="131" y="265" type="line"/>
      <point x="170" y="265" type="line"/>
      <point x="153" y="198" type="line"/>
      <point x="114" y="198" type="line"/>
      <point x="67" y="0" type="line"/>
      <point x="0" y="0" type="line"/>
      <point x="47" y="198" type="line"/>
      <point x="7" y="198" type="line"/>
      <point x="24" y="265" type="line"/>
      <point x="64" y="265" type="line"/>
      <point x="67" y="277" type="line"/>
      <point x="27" y="277" type="line"/>
      <point x="43" y="344" type="line"/>
      <point x="83" y="344" type="line"/>
      <point x="86" y="356" type="line"/>
      <point x="79" y="356" type="line" smooth="yes"/>
      <point x="65" y="356"/>
      <point x="50" y="376"/>
      <point x="54" y="390" type="qcurve" smooth="yes"/>
      <point x="129" y="700" type="line"/>
      <point x="196" y="700" type="line"/>
      <point x="129" y="423" type="line"/>
      <point x="141" y="423" type="line"/>
      <point x="208" y="700" type="line"/>
      <point x="275" y="700" type="line"/>
      <point x="200" y="390" type="line" smooth="yes"/>
      <point x="196" y="376"/>
      <point x="173" y="356"/>
      <point x="159" y="356" type="qcurve" smooth="yes"/>
    </contour>
  </outline>
</glyph>
<glyph name="brokenbar" format="2">
  <advance width="79"/>
  <unicode hex="00A6"/>
  <outline>
    <contour>
      <point x="7" y="-79" type="line"/>
      <point x="-59" y="-79" type="line"/>
      <point x="33" y="305" type="line"/>
      <point x="100" y="305" type="line"/>
      <point x="7" y="-79" type="line"/>
    </contour>
    <contour>
      <point x="122" y="396" type="line"/>
      <point x="55" y="396" type="line"/>
      <point x="148" y="779" type="line"/>
      <point x="215" y="779" type="line"/>
      <point x="122" y="396" type="line"/>
    </contour>
  </outline>
</glyph>
<glyph name="section" format="2">
  <advance width="158"/>
  <unicode hex="00A7"/>
  <outline>
    <contour>
      <point x="73" y="0" type="qcurve" smooth="yes"/>
      <point x="-7" y="0" type="line" smooth="yes"/>
      <point x="-21" y="0"/>
      <point x="-35" y="19"/>
      <point x="-32" y="33" type="qcurve" smooth="yes"/>
      <point x="14" y="225" type="line"/>
      <point x="81" y="225" type="line"/>
      <point x="43" y="67" type="line"/>
      <point x="55" y="67" type="line"/>
      <point x="96" y="237" type="line"/>
      <point x="50" y="237" type="line" smooth="yes"/>
      <point x="36" y="237"/>
      <point x="21" y="257"/>
      <point x="25" y="271" type="qcurve" smooth="yes"/>
      <point x="121" y="666" type="line" smooth="yes"/>
      <point x="124" y="680"/>
      <point x="148" y="700"/>
      <point x="162" y="700" type="qcurve" smooth="yes"/>
      <point x="242" y="700" type="line" smooth="yes"/>
      <point x="256" y="700"/>
      <point x="270" y="680"/>
      <point x="267" y="666" type="qcurve" smooth="yes"/>
      <point x="220" y="475" type="line"/>
      <point x="153" y="475" type="line"/>
      <point x="192" y="633" type="line"/>
      <point x="180" y="633" type="line"/>
      <point x="139" y="463" type="line"/>
      <point x="185" y="463" type="line" smooth="yes"/>
      <point x="199" y="463"/>
      <point x="213" y="443"/>
      <point x="209" y="429" type="qcurve" smooth="yes"/>
      <point x="113" y="33" type="line" smooth="yes"/>
      <point x="110" y="19"/>
      <point x="87" y="0"/>
    </contour>
    <contour>
      <point x="100" y="304" type="line"/>
      <point x="112" y="304" type="line"/>
      <point x="134" y="396" type="line"/>
      <point x="122" y="396" type="line"/>
    </contour>
  </outline>
</glyph>
<glyph name="dieresis" format="2">
  <advance width="158"/>
  <unicode hex="00A8"/>
  <outline>
    <contour>
      <point x="240" y="554" type="line"/>
      <point x="173" y="554" type="line"/>
      <point x="208" y="700" type="line"/>
      <point x="275" y="700" type="line"/>
    </contour>
    <contour>
      <point x="161" y="554" type="line"/>
      <point x="94" y="554" type="line"/>
      <point x="129" y="700" type="line"/>
      <point x="196" y="700" type="line"/>
    </contour>
  </outline>
</glyph>
<glyph name="copyright" format="2">
  <advance width="316"/>
  <unicode hex="00A9"/>
  <outline>
    <contour>
      <point x="190" y="158" type="qcurve" smooth="yes"/>
      <point x="111" y="158" type="line" smooth="yes"/>
      <point x="97" y="158"/>
      <point x="81" y="178"/>
      <point x="85" y="192" type="qcurve" smooth="yes"/>
      <point x="161" y="508" type="line" smooth="yes"/>
      <point x="165" y="522"/>
      <point x="190" y="542"/>
      <point x="204" y="542" type="qcurve" smooth="yes"/>
      <point x="283" y="542" type="line" smooth="yes"/>
      <point x="297" y="542"/>
      <point x="311" y="522"/>
      <point x="307" y="508" type="qcurve" smooth="yes"/>
      <point x="271" y="356" type="line"/>
      <point x="204" y="356" type="line"/>
      <point x="232" y="475" type="line"/>
      <point x="220" y="475" type="line"/>
      <point x="160" y="225" type="line"/>
      <point x="172" y="225" type="line"/>
      <point x="201" y="344" type="line"/>
      <point x="268" y="344" type="line"/>
      <point x="231" y="192" type="line" smooth="yes"/>
      <point x="227" y="178"/>
      <point x="204" y="158"/>
    </contour>
    <contour>
      <point x="250" y="79" type="qcurve" smooth="yes"/>
      <point x="12" y="79" type="line" smooth="yes"/>
      <point x="-1" y="79"/>
      <point x="-16" y="99"/>
      <point x="-12" y="113" type="qcurve" smooth="yes"/>
      <point x="102" y="587" type="line" smooth="yes"/>
      <point x="105" y="601"/>
      <point x="129" y="621"/>
      <point x="143" y="621" type="qcurve" smooth="yes"/>
      <point x="381" y="621" type="line" smooth="yes"/>
      <point x="395" y="621"/>
      <point x="409" y="601"/>
      <point x="406" y="587" type="qcurve" smooth="yes"/>
      <point x="291" y="113" type="line" smooth="yes"/>
      <point x="287" y="99"/>
      <point x="264" y="79"/>
    </contour>
    <contour>
      <point x="62" y="146" type="line"/>
      <point x="232" y="146" type="line"/>
      <point x="331" y="554" type="line"/>
      <point x="161" y="554" type="line"/>
    </contour>
  </outline>
</glyph>
<glyph name="ordfeminine" format="2">
  <advance width="158"/>
  <unicode hex="00AA"/>
  <outline>
    <contour>
      <point x="168" y="396" type="qcurve" smooth="yes"/>
      <point x="88" y="396" type="line" smooth="yes"/>
      <point x="74" y="396"/>
      <point x="60" y="415"/>
      <point x="63" y="429" type="qcurve" smooth="yes"/>
      <point x="92" y="548" type="line" smooth="yes"/>
      <point x="95" y="562"/>
      <point x="119" y="581"/>
      <point x="133" y="581" type="qcurve" smooth="yes"/>
      <point x="179" y="581" type="line"/>
      <point x="192" y="633" type="line"/>
      <point x="180" y="633" type="line"/>
      <point x="170" y="593" type="line"/>
      <point x="103" y="593" type="line"/>
      <point x="121" y="666" type="line" smooth="yes"/>
      <point x="124" y="680"/>
      <point x="148" y="700"/>
      <point x="162" y="700" type="qcurve" smooth="yes"/>
      <point x="242" y="700" type="line" smooth="yes"/>
      <point x="256" y="700"/>
      <point x="270" y="680"/>
      <point x="267" y="666" type="qcurve" smooth="yes"/>
      <point x="209" y="429" type="line" smooth="yes"/>
      <point x="206" y="415"/>
      <point x="182" y="396"/>
    </contour>
    <contour>
      <point x="139" y="463" type="line"/>
      <point x="151" y="463" type="line"/>
      <point x="163" y="514" type="line"/>
      <point x="151" y="514" type="line"/>
    </contour>
  </outline>
</glyph>
<glyph name="guillemotleft" format="2">
  <advance width="237"/>
  <unicode hex="00AB"/>
  <outline>
    <contour>
      <point x="223" y="159" type="line"/>
      <point x="150" y="159" type="line" smooth="yes"/>
      <point x="136" y="159"/>
      <point x="122" y="178"/>
      <point x="125" y="192" type="qcurve" smooth="yes"/>
      <point x="163" y="350" type="line" smooth="yes"/>
      <point x="167" y="364"/>
      <point x="190" y="384"/>
      <point x="204" y="384" type="qcurve" smooth="yes"/>
      <point x="277" y="384" type="line"/>
      <point x="261" y="317" type="line"/>
      <point x="222" y="317" type="line"/>
      <point x="200" y="226" type="line"/>
      <point x="239" y="226" type="line"/>
    </contour>
    <contour>
      <point x="105" y="159" type="line"/>
      <point x="31" y="159" type="line" smooth="yes"/>
      <point x="17" y="159"/>
      <point x="3" y="178"/>
      <point x="6" y="192" type="qcurve" smooth="yes"/>
      <point x="44" y="350" type="line" smooth="yes"/>
      <point x="48" y="364"/>
      <point x="71" y="384"/>
      <point x="85" y="384" type="qcurve" smooth="yes"/>
      <point x="159" y="384" type="line"/>
      <point x="143" y="317" type="line"/>
      <point x="103" y="317" type="line"/>
      <point x="81" y="226" type="line"/>
      <point x="121" y="226" type="line"/>
    </contour>
  </outline>
</glyph>
<glyph name="logicalnot" format="2">
  <advance width="237"/>
  <unicode hex="00AC"/>
  <outline>
    <contour>
      <point x="223" y="159" type="line"/>
      <point x="156" y="159" type="line"/>
      <point x="175" y="238" type="line"/>
      <point x="17" y="238" type="line"/>
      <point x="33" y="305" type="line"/>
      <point x="225" y="305" type="line" smooth="yes"/>
      <point x="239" y="305"/>
      <point x="254" y="285"/>
      <point x="250" y="271" type="qcurve" smooth="yes"/>
    </contour>
  </outline>
</glyph>
<glyph name="registered" format="2">
  <advance width="158"/>
  <unicode hex="00AE"/>
  <outline>
    <contour>
      <point x="182" y="316" type="line"/>
      <point x="115" y="316" type="line"/>
      <point x="144" y="435" type="line"/>
      <point x="132" y="435" type="line"/>
      <point x="103" y="316" type="line"/>
      <point x="36" y="316" type="line"/>
      <point x="121" y="666" type="line" smooth="yes"/>
      <point x="124" y="680"/>
      <point x="148" y="700"/>
      <point x="162" y="700" type="qcurve" smooth="yes"/>
      <point x="242" y="700" type="line" smooth="yes"/>
      <point x="256" y="700"/>
      <point x="270" y="680"/>
      <point x="267" y="666" type="qcurve" smooth="yes"/>
      <point x="238" y="548" type="line" smooth="yes"/>
      <point x="234" y="534"/>
      <point x="211" y="514"/>
      <point x="197" y="514" type="qcurve" smooth="yes"/>
      <point x="151" y="514" type="line"/>
      <point x="148" y="502" type="line"/>
      <point x="194" y="502" type="line" smooth="yes"/>
      <point x="208" y="502"/>
      <point x="222" y="483"/>
      <point x="219" y="469" type="qcurve" smooth="yes"/>
    </contour>
    <contour>
      <point x="167" y="581" type="line"/>
      <point x="179" y="581" type="line"/>
      <point x="192" y="633" type="line"/>
      <point x="180" y="633" type="line"/>
    </contour>
  </outline>
</glyph>
<glyph name="macron" format="2">
  <advance width="158"/>
  <unicode hex="00AF"/>
  <outline>
    <contour>
      <point x="240" y="554" type="line"/>
      <point x="94" y="554" type="line"/>
      <point x="110" y="621" type="line"/>
      <point x="256" y="621" type="line"/>
      <point x="240" y="554" type="line"/>
    </contour>
  </outline>
</glyph>
<glyph name="degree" format="2">
  <advance width="158"/>
  <unicode hex="00B0"/>
  <outline>
    <contour>
      <point x="242" y="700" type="line" smooth="yes"/>
      <point x="256" y="700"/>
      <point x="270" y="681"/>
      <point x="267" y="667" type="qcurve" smooth="yes"/>
      <point x="209" y="429" type="line" smooth="yes"/>
      <point x="206" y="415"/>
      <point x="182" y="396"/>
      <point x="168" y="396" type="qcurve" smooth="yes"/>
      <point x="88" y="396" type="line" smooth="yes"/>
      <point x="74" y="396"/>
      <point x="60" y="415"/>
      <point x="63" y="429" type="qcurve" smooth="yes"/>
      <point x="121" y="667" type="line" smooth="yes"/>
      <point x="124" y="681"/>
      <point x="148" y="700"/>
      <point x="162" y="700" type="qcurve" smooth="yes"/>
    </contour>
    <contour>
      <point x="192" y="633" type="line"/>
      <point x="180" y="633" type="line"/>
      <point x="139" y="463" type="line"/>
      <point x="151" y="463" type="line"/>
    </contour>
  </outline>
</glyph>
<glyph name="plusminus" format="2">
  <advance width="237"/>
  <unicode hex="00B1"/>
  <outline>
    <contour>
      <point x="213" y="119" type="line"/>
      <point x="-11" y="119" type="line"/>
      <point x="4" y="186" type="line"/>
      <point x="229" y="186" type="line"/>
      <point x="213" y="119" type="line"/>
    </contour>
    <contour>
      <point x="153" y="198" type="line"/>
      <point x="86" y="198" type="line"/>
      <point x="106" y="277" type="line"/>
      <point x="27" y="277" type="line"/>
      <point x="43" y="344" type="line"/>
      <point x="122" y="344" type="line"/>
      <point x="141" y="424" type="line"/>
      <point x="208" y="424" type="line"/>
      <point x="189" y="344" type="line"/>
      <point x="268" y="344" type="line"/>
      <point x="252" y="277" type="line"/>
      <point x="173" y="277" type="line"/>
      <point x="153" y="198" type="line"/>
    </contour>
  </outline>
</glyph>
<glyph name="acute" format="2">
  <advance width="158"/>
  <unicode hex="00B4"/>
  <outline>
    <contour>
      <point x="275" y="700" type="line"/>
      <point x="248" y="587" type="line" smooth="yes"/>
      <point x="244" y="573"/>
      <point x="221" y="554"/>
      <point x="207" y="554" type="qcurve" smooth="yes"/>
      <point x="94" y="554" type="line"/>
      <point x="110" y="621" type="line"/>
      <point x="189" y="621" type="line"/>
      <point x="208" y="700" type="line"/>
    </contour>
  </outline>
</glyph>
<glyph name="cedilla" format="2">
  <advance width="79"/>
  <unicode hex="00B8"/>
  <outline>
    <contour>
      <point x="43" y="67" type="line"/>
      <point x="24" y="-12" type="line"/>
      <point x="30" y="-12" type="line" smooth="yes"/>
      <point x="44" y="-12"/>
      <point x="59" y="-32"/>
      <point x="55" y="-46" type="qcurve" smooth="yes"/>
      <point x="36" y="-125" type="line" smooth="yes"/>
      <point x="33" y="-139"/>
      <point x="9" y="-158"/>
      <point x="-5" y="-158" type="qcurve" smooth="yes"/>
      <point x="-78" y="-158" type="line"/>
      <point x="-62" y="-91" type="line"/>
      <point x="-22" y="-91" type="line"/>
      <point x="-19" y="-79" type="line"/>
      <point x="-26" y="-79" type="line" smooth="yes"/>
      <point x="-40" y="-79"/>
      <point x="-54" y="-60"/>
      <point x="-51" y="-46" type="qcurve" smooth="yes"/>
      <point x="-23" y="67" type="line"/>
    </contour>
  </outline>
</glyph>
<glyph name="ordmasculine" format="2">
  <advance width="158"/>
  <unicode hex="00BA"/>
  <outline>
    <contour>
      <point x="168" y="396" type="qcurve" smooth="yes"/>
      <point x="89" y="396" type="line" smooth="yes"/>
      <point x="75" y="396"/>
      <point x="60" y="415"/>
      <point x="63" y="429" type="qcurve" smooth="yes"/>
      <point x="121" y="666" type="line" smooth="yes"/>
      <point x="124" y="680"/>
      <point x="149" y="700"/>
      <point x="163" y="700" type="qcurve" smooth="yes"/>
      <point x="242" y="700" type="line" smooth="yes"/>
      <point x="256" y="700"/>
      <point x="270" y="680"/>
      <point x="267" y="666" type="qcurve" smooth="yes"/>
      <point x="209" y="429" type="line" smooth="yes"/>
      <point x="206" y="415"/>
      <point x="182" y="396"/>
    </contour>
    <contour>
      <point x="139" y="463" type="line"/>
      <point x="151" y="463" type="line"/>
      <point x="192" y="633" type="line"/>
      <point x="180" y="633" type="line"/>
    </contour>
  </outline>
</glyph>
<glyph name="guillemotright" format="2">
  <advance width="237"/>
  <unicode hex="00BB"/>
  <outline>
    <contour>
      <point x="14" y="226" type="line"/>
      <point x="53" y="226" type="line"/>
      <point x="75" y="317" type="line"/>
      <point x="36" y="317" type="line"/>
      <point x="52" y="384" type="line"/>
      <point x="125" y="384" type="line" smooth="yes"/>
      <point x="139" y="384"/>
      <point x="154" y="364"/>
      <point x="150" y="350" type="qcurve" smooth="yes"/>
      <point x="112" y="192" type="line" smooth="yes"/>
      <point x="109" y="178"/>
      <point x="85" y="159"/>
      <point x="71" y="159" type="qcurve" smooth="yes"/>
      <point x="-1" y="159" type="line"/>
    </contour>
    <contour>
      <point x="132" y="226" type="line"/>
      <point x="172" y="226" type="line"/>
      <point x="194" y="317" type="line"/>
      <point x="154" y="317" type="line"/>
      <point x="170" y="384" type="line"/>
      <point x="244" y="384" type="line" smooth="yes"/>
      <point x="258" y="384"/>
      <point x="273" y="364"/>
      <point x="269" y="350" type="qcurve" smooth="yes"/>
      <point x="231" y="192" type="line" smooth="yes"/>
      <point x="228" y="178"/>
      <point x="204" y="159"/>
      <point x="190" y="159" type="qcurve" smooth="yes"/>
      <point x="116" y="159" type="line"/>
    </contour>
  </outline>
</glyph>
<glyph name="Acircumflex" format="2">
  <advance width="158"/>
  <unicode hex="00C2"/>
  <outline>
    <contour>
      <point x="204" y="542" type="qcurve" smooth="yes"/>
      <point x="124" y="542" type="line" smooth="yes"/>
      <point x="110" y="542"/>
      <point x="86" y="522"/>
      <point x="82" y="508" type="qcurve" smooth="yes"/>
      <point x="-40" y="0" type="line"/>
      <point x="27" y="0" type="line"/>
      <point x="84" y="237" type="line"/>
      <point x="96" y="237" type="line"/>
      <point x="39" y="0" type="line"/>
      <point x="106" y="0" type="line"/>
      <point x="228" y="508" type="line" smooth="yes"/>
      <point x="232" y="522"/>
      <point x="218" y="542"/>
    </contour>
    <contour>
      <point x="100" y="304" type="line"/>
      <point x="141" y="475" type="line"/>
      <point x="153" y="475" type="line"/>
      <point x="112" y="304" type="line"/>
    </contour>
    <contour>
      <point x="240" y="554" type="line"/>
      <point x="173" y="554" type="line"/>
      <point x="187" y="614" type="line"/>
      <point x="182" y="620" type="line"/>
      <point x="175" y="614" type="line"/>
      <point x="161" y="554" type="line"/>
      <point x="94" y="554" type="line"/>
      <point x="111" y="627" type="line" smooth="yes"/>
      <point x="112.5" y="634.0" name="inserted"/>
      <point x="120.5" y="646.0"/>
      <point x="127" y="651" type="qcurve" smooth="yes"/>
      <point x="176" y="691" type="line" smooth="yes"/>
      <point x="188" y="701"/>
      <point x="216" y="701"/>
      <point x="224" y="691" type="qcurve" smooth="yes"/>
      <point x="253" y="651" type="line"/>
      <point x="257.0" y="647.0" name="inserted"/>
      <point x="259.0" y="635.0"/>
      <point x="257" y="627" type="qcurve" smooth="yes"/>
    </contour>
  </outline>
</glyph>
<glyph name="Atilde" format="2">
  <advance width="158"/>
  <unicode hex="00C3"/>
  <outline>
    <contour>
      <point x="204" y="542" type="line" smooth="yes"/>
      <point x="218" y="542"/>
      <point x="232" y="522"/>
      <point x="228" y="508" type="qcurve" smooth="yes"/>
      <point x="106" y="0" type="line"/>
      <point x="39" y="0" type="line"/>
      <point x="96" y="237" type="line"/>
      <point x="84" y="237" type="line"/>
      <point x="27" y="0" type="line"/>
      <point x="-40" y="0" type="line"/>
      <point x="82" y="508" type="line" smooth="yes"/>
      <point x="86" y="522"/>
      <point x="110" y="542"/>
      <point x="124" y="542" type="qcurve" smooth="yes"/>
    </contour>
    <contour>
      <point x="112" y="304" type="line"/>
      <point x="153" y="475" type="line"/>
      <point x="141" y="475" type="line"/>
      <point x="100" y="304" type="line"/>
    </contour>
    <contour>
      <point x="275" y="700" type="line"/>
      <point x="257" y="627" type="line" smooth="yes"/>
      <point x="254" y="613"/>
      <point x="230" y="593"/>
      <point x="216" y="593" type="qcurve" smooth="yes"/>
      <point x="170" y="593" type="line"/>
      <point x="161" y="554" type="line"/>
      <point x="94" y="554" type="line"/>
      <point x="111" y="627" type="line" smooth="yes"/>
      <point x="115" y="641"/>
      <point x="138" y="660"/>
      <point x="152" y="660" type="qcurve" smooth="yes"/>
      <point x="198" y="660" type="line"/>
      <point x="208" y="700" type="line"/>
    </contour>
  </outline>
</glyph>
<glyph name="Adieresis" format="2">
  <advance width="158"/>
  <unicode hex="00C4"/>
  <outline>
    <contour>
      <point x="204" y="542" type="line" smooth="yes"/>
      <point x="218" y="542"/>
      <point x="232" y="522"/>
      <point x="228" y="508" type="qcurve" smooth="yes"/>
      <point x="106" y="0" type="line"/>
      <point x="39" y="0" type="line"/>
      <point x="96" y="237" type="line"/>
      <point x="84" y="237" type="line"/>
      <point x="27" y="0" type="line"/>
      <point x="-40" y="0" type="line"/>
      <point x="82" y="508" type="line" smooth="yes"/>
      <point x="86" y="522"/>
      <point x="110" y="542"/>
      <point x="124" y="542" type="qcurve" smooth="yes"/>
    </contour>
    <contour>
      <point x="112" y="304" type="line"/>
      <point x="153" y="475" type="line"/>
      <point x="141" y="475" type="line"/>
      <point x="100" y="304" type="line"/>
    </contour>
    <contour>
      <point x="240" y="554" type="line"/>
      <point x="173" y="554" type="line"/>
      <point x="208" y="700" type="line"/>
      <point x="275" y="700" type="line"/>
    </contour>
    <contour>
      <point x="161" y="554" type="line"/>
      <point x="94" y="554" type="line"/>
      <point x="129" y="700" type="line"/>
      <point x="196" y="700" type="line"/>
    </contour>
  </outline>
</glyph>
<glyph name="Aring" format="2">
  <advance width="158"/>
  <unicode hex="00C5"/>
  <outline>
    <contour>
      <point x="204" y="542" type="line" smooth="yes"/>
      <point x="218" y="542"/>
      <point x="232" y="522"/>
      <point x="228" y="508" type="qcurve" smooth="yes"/>
      <point x="106" y="0" type="line"/>
      <point x="39" y="0" type="line"/>
      <point x="96" y="237" type="line"/>
      <point x="84" y="237" type="line"/>
      <point x="27" y="0" type="line"/>
      <point x="-40" y="0" type="line"/>
      <point x="82" y="508" type="line" smooth="yes"/>
      <point x="86" y="522"/>
      <point x="110" y="542"/>
      <point x="124" y="542" type="qcurve" smooth="yes"/>
    </contour>
    <contour>
      <point x="112" y="304" type="line"/>
      <point x="153" y="475" type="line"/>
      <point x="141" y="475" type="line"/>
      <point x="100" y="304" type="line"/>
    </contour>
    <contour>
      <point x="241" y="700" type="line" smooth="yes"/>
      <point x="255" y="700"/>
      <point x="270" y="680"/>
      <point x="267" y="666" type="qcurve" smooth="yes"/>
      <point x="248" y="587" type="line" smooth="yes"/>
      <point x="244" y="573"/>
      <point x="220" y="554"/>
      <point x="206" y="554" type="qcurve" smooth="yes"/>
      <point x="127" y="554" type="line" smooth="yes"/>
      <point x="113" y="554"/>
      <point x="98" y="573"/>
      <point x="102" y="587" type="qcurve" smooth="yes"/>
      <point x="121" y="666" type="line" smooth="yes"/>
      <point x="124" y="680"/>
      <point x="148" y="700"/>
      <point x="162" y="700" type="qcurve" smooth="yes"/>
    </contour>
    <contour>
      <point x="192" y="633" type="line"/>
      <point x="180" y="633" type="line"/>
      <point x="177" y="621" type="line"/>
      <point x="189" y="621" type="line"/>
    </contour>
  </outline>
</glyph>
<glyph name="AE" format="2">
  <advance width="237"/>
  <unicode hex="00C6"/>
  <outline>
    <contour>
      <point x="152" y="0" type="qcurve" smooth="yes"/>
      <point x="73" y="0" type="line" smooth="yes"/>
      <point x="59" y="0"/>
      <point x="43" y="19"/>
      <point x="46" y="33" type="qcurve" smooth="yes"/>
      <point x="115" y="316" type="line"/>
      <point x="103" y="316" type="line"/>
      <point x="27" y="0" type="line"/>
      <point x="-40" y="0" type="line"/>
      <point x="121" y="666" type="line" smooth="yes"/>
      <point x="124" y="680"/>
      <point x="148" y="700"/>
      <point x="162" y="700" type="qcurve" smooth="yes"/>
      <point x="321" y="700" type="line" smooth="yes"/>
      <point x="335" y="700"/>
      <point x="349" y="680"/>
      <point x="346" y="666" type="qcurve" smooth="yes"/>
      <point x="280" y="396" type="line"/>
      <point x="213" y="396" type="line"/>
      <point x="271" y="633" type="line"/>
      <point x="259" y="633" type="line"/>
      <point x="198" y="383" type="line"/>
      <point x="277" y="383" type="line"/>
      <point x="261" y="316" type="line"/>
      <point x="182" y="316" type="line"/>
      <point x="122" y="67" type="line"/>
      <point x="134" y="67" type="line"/>
      <point x="191" y="304" type="line"/>
      <point x="258" y="304" type="line"/>
      <point x="192" y="33" type="line" smooth="yes"/>
      <point x="189" y="19"/>
      <point x="166" y="0"/>
    </contour>
    <contour>
      <point x="119" y="383" type="line"/>
      <point x="131" y="383" type="line"/>
      <point x="192" y="633" type="line"/>
      <point x="180" y="633" type="line"/>
    </contour>
  </outline>
</glyph>
<glyph name="Eacute" format="2">
  <advance width="158"/>
  <unicode hex="00C9"/>
  <outline>
    <contour>
      <point x="124" y="542" type="qcurve" smooth="yes"/>
      <point x="204" y="542" type="line" smooth="yes"/>
      <point x="218" y="542"/>
      <point x="232" y="523"/>
      <point x="229" y="509" type="qcurve" smooth="yes"/>
      <point x="182" y="317" type="line"/>
      <point x="115" y="317" type="line"/>
      <point x="153" y="475" type="line"/>
      <point x="141" y="475" type="line"/>
      <point x="100" y="305" type="line"/>
      <point x="179" y="305" type="line"/>
      <point x="163" y="238" type="line"/>
      <point x="84" y="238" type="line"/>
      <point x="43" y="67" type="line"/>
      <point x="55" y="67" type="line"/>
      <point x="93" y="225" type="line"/>
      <point x="160" y="225" type="line"/>
      <point x="113" y="33" type="line" smooth="yes"/>
      <point x="110" y="19"/>
      <point x="87" y="0"/>
      <point x="73" y="0" type="qcurve" smooth="yes"/>
      <point x="-7" y="0" type="line" smooth="yes"/>
      <point x="-21" y="0"/>
      <point x="-35" y="19"/>
      <point x="-32" y="33" type="qcurve" smooth="yes"/>
      <point x="83" y="509" type="line" smooth="yes"/>
      <point x="86" y="523"/>
      <point x="110" y="542"/>
    </contour>
    <contour>
      <point x="275" y="700" type="line"/>
      <point x="248" y="587" type="line" smooth="yes"/>
      <point x="244" y="573"/>
      <point x="221" y="554"/>
      <point x="207" y="554" type="qcurve" smooth="yes"/>
      <point x="94" y="554" type="line"/>
      <point x="110" y="621" type="line"/>
      <point x="189" y="621" type="line"/>
      <point x="208" y="700" type="line"/>
    </contour>
  </outline>
</glyph>
<glyph name="Icircumflex" format="2">
  <advance width="237"/>
  <unicode hex="00CE"/>
  <outline>
    <contour>
      <point x="151" y="0" type="qcurve" smooth="yes"/>
      <point x="-6" y="0" type="line" smooth="yes"/>
      <point x="-20" y="0"/>
      <point x="-35" y="19"/>
      <point x="-32" y="33" type="qcurve" smooth="yes"/>
      <point x="24" y="265" type="line"/>
      <point x="91" y="265" type="line"/>
      <point x="43" y="67" type="line"/>
      <point x="55" y="67" type="line"/>
      <point x="153" y="475" type="line"/>
      <point x="141" y="475" type="line"/>
      <point x="94" y="277" type="line"/>
      <point x="27" y="277" type="line"/>
      <point x="82" y="508" type="line" smooth="yes"/>
      <point x="86" y="522"/>
      <point x="111" y="542"/>
      <point x="125" y="542" type="qcurve" smooth="yes"/>
      <point x="282" y="542" type="line" smooth="yes"/>
      <point x="296" y="542"/>
      <point x="311" y="522"/>
      <point x="307" y="508" type="qcurve" smooth="yes"/>
      <point x="252" y="277" type="line"/>
      <point x="185" y="277" type="line"/>
      <point x="232" y="475" type="line"/>
      <point x="220" y="475" type="line"/>
      <point x="122" y="67" type="line"/>
      <point x="134" y="67" type="line"/>
      <point x="182" y="265" type="line"/>
      <point x="249" y="265" type="line"/>
      <point x="192" y="33" type="line" smooth="yes"/>
      <point x="189" y="19"/>
      <point x="165" y="0"/>
    </contour>
    <contour>
      <point x="279" y="554" type="line"/>
      <point x="212" y="554" type="line"/>
      <point x="226" y="614" type="line"/>
      <point x="221" y="620" type="line"/>
      <point x="214" y="614" type="line"/>
      <point x="200" y="554" type="line"/>
      <point x="133" y="554" type="line"/>
      <point x="150" y="627" type="line" smooth="yes"/>
      <point x="151.5" y="634.0" name="inserted"/>
      <point x="159.5" y="646.0"/>
      <point x="166" y="651" type="qcurve" smooth="yes"/>
      <point x="215" y="691" type="line" smooth="yes"/>
      <point x="227" y="701"/>
      <point x="255" y="701"/>
      <point x="263" y="691" type="qcurve" smooth="yes"/>
      <point x="292" y="651" type="line"/>
      <point x="296.0" y="647.0" name="inserted"/>
      <point x="298.0" y="635.0"/>
      <point x="296" y="627" type="qcurve" smooth="yes"/>
    </contour>
  </outline>
</glyph>
<glyph name="Ntilde" format="2">
  <advance width="237"/>
  <unicode hex="00D1"/>
  <outline>
    <contour>
      <point x="152" y="0" type="qcurve" smooth="yes"/>
      <point x="73" y="0" type="line" smooth="yes"/>
      <point x="59" y="0"/>
      <point x="43" y="19"/>
      <point x="46" y="33" type="qcurve" smooth="yes"/>
      <point x="153" y="475" type="line"/>
      <point x="141" y="475" type="line"/>
      <point x="27" y="0" type="line"/>
      <point x="-40" y="0" type="line"/>
      <point x="82" y="508" type="line" smooth="yes"/>
      <point x="86" y="522"/>
      <point x="110" y="542"/>
      <point x="124" y="542" type="qcurve" smooth="yes"/>
      <point x="204" y="542" type="line" smooth="yes"/>
      <point x="218" y="542"/>
      <point x="232" y="522"/>
      <point x="228" y="508" type="qcurve" smooth="yes"/>
      <point x="122" y="67" type="line"/>
      <point x="134" y="67" type="line"/>
      <point x="249" y="542" type="line"/>
      <point x="316" y="542" type="line"/>
      <point x="192" y="33" type="line" smooth="yes"/>
      <point x="189" y="19"/>
      <point x="166" y="0"/>
    </contour>
    <contour>
      <point x="320" y="700" type="line"/>
      <point x="302" y="627" type="line" smooth="yes"/>
      <point x="299" y="613"/>
      <point x="275" y="593"/>
      <point x="261" y="593" type="qcurve" smooth="yes"/>
      <point x="215" y="593" type="line"/>
      <point x="206" y="554" type="line"/>
      <point x="139" y="554" type="line"/>
      <point x="156" y="627" type="line" smooth="yes"/>
      <point x="160" y="641"/>
      <point x="183" y="660"/>
      <point x="197" y="660" type="qcurve" smooth="yes"/>
      <point x="243" y="660" type="line"/>
      <point x="253" y="700" type="line"/>
    </contour>
  </outline>
</glyph>
<glyph name="Ograve" format="2">
  <advance width="158"/>
  <unicode hex="00D2"/>
  <outline>
    <contour>
      <point x="203" y="542" type="line" smooth="yes"/>
      <point x="217" y="542"/>
      <point x="232" y="522"/>
      <point x="228" y="508" type="qcurve" smooth="yes"/>
      <point x="113" y="33" type="line" smooth="yes"/>
      <point x="110" y="19"/>
      <point x="86" y="0"/>
      <point x="72" y="0" type="qcurve" smooth="yes"/>
      <point x="-7" y="0" type="line" smooth="yes"/>
      <point x="-21" y="0"/>
      <point x="-35" y="19"/>
      <point x="-32" y="33" type="qcurve" smooth="yes"/>
      <point x="82" y="508" type="line" smooth="yes"/>
      <point x="86" y="522"/>
      <point x="110" y="542"/>
      <point x="124" y="542" type="qcurve" smooth="yes"/>
    </contour>
    <contour>
      <point x="153" y="475" type="line"/>
      <point x="141" y="475" type="line"/>
      <point x="43" y="67" type="line"/>
      <point x="55" y="67" type="line"/>
    </contour>
    <contour>
      <point x="240" y="554" type="line"/>
      <point x="127" y="554" type="line" smooth="yes"/>
      <point x="113" y="554"/>
      <point x="98" y="573"/>
      <point x="102" y="587" type="qcurve" smooth="yes"/>
      <point x="129" y="700" type="line"/>
      <point x="196" y="700" type="line"/>
      <point x="177" y="621" type="line"/>
      <point x="256" y="621" type="line"/>
    </contour>
  </outline>
</glyph>
<glyph name="Oacute" format="2">
  <advance width="158"/>
  <unicode hex="00D3"/>
  <outline>
    <contour>
      <point x="204" y="542" type="line" smooth="yes"/>
      <point x="218" y="542"/>
      <point x="233" y="522"/>
      <point x="229" y="508" type="qcurve" smooth="yes"/>
      <point x="114" y="33" type="line" smooth="yes"/>
      <point x="111" y="19"/>
      <point x="87" y="0"/>
      <point x="73" y="0" type="qcurve" smooth="yes"/>
      <point x="-6" y="0" type="line" smooth="yes"/>
      <point x="-20" y="0"/>
      <point x="-34" y="19"/>
      <point x="-31" y="33" type="qcurve" smooth="yes"/>
      <point x="83" y="508" type="line" smooth="yes"/>
      <point x="87" y="522"/>
      <point x="111" y="542"/>
      <point x="125" y="542" type="qcurve" smooth="yes"/>
    </contour>
    <contour>
      <point x="154" y="475" type="line"/>
      <point x="142" y="475" type="line"/>
      <point x="44" y="67" type="line"/>
      <point x="56" y="67" type="line"/>
    </contour>
    <contour>
      <point x="275" y="700" type="line"/>
      <point x="248" y="587" type="line" smooth="yes"/>
      <point x="244" y="573"/>
      <point x="221" y="554"/>
      <point x="207" y="554" type="qcurve" smooth="yes"/>
      <point x="94" y="554" type="line"/>
      <point x="110" y="621" type="line"/>
      <point x="189" y="621" type="line"/>
      <point x="208" y="700" type="line"/>
    </contour>
  </outline>
</glyph>
<glyph name="Otilde" format="2">
  <advance width="158"/>
  <unicode hex="00D5"/>
  <outline>
    <contour>
      <point x="203" y="542" type="line" smooth="yes"/>
      <point x="217" y="542"/>
      <point x="232" y="522"/>
      <point x="228" y="508" type="qcurve" smooth="yes"/>
      <point x="113" y="33" type="line" smooth="yes"/>
      <point x="110" y="19"/>
      <point x="86" y="0"/>
      <point x="72" y="0" type="qcurve" smooth="yes"/>
      <point x="-7" y="0" type="line" smooth="yes"/>
      <point x="-21" y="0"/>
      <point x="-35" y="19"/>
      <point x="-32" y="33" type="qcurve" smooth="yes"/>
      <point x="82" y="508" type="line" smooth="yes"/>
      <point x="86" y="522"/>
      <point x="110" y="542"/>
      <point x="124" y="542" type="qcurve" smooth="yes"/>
    </contour>
    <contour>
      <point x="153" y="475" type="line"/>
      <point x="141" y="475" type="line"/>
      <point x="43" y="67" type="line"/>
      <point x="55" y="67" type="line"/>
    </contour>
    <contour>
      <point x="275" y="700" type="line"/>
      <point x="257" y="627" type="line" smooth="yes"/>
      <point x="254" y="613"/>
      <point x="230" y="593"/>
      <point x="216" y="593" type="qcurve" smooth="yes"/>
      <point x="170" y="593" type="line"/>
      <point x="161" y="554" type="line"/>
      <point x="94" y="554" type="line"/>
      <point x="111" y="627" type="line" smooth="yes"/>
      <point x="115" y="641"/>
      <point x="138" y="660"/>
      <point x="152" y="660" type="qcurve" smooth="yes"/>
      <point x="198" y="660" type="line"/>
      <point x="208" y="700" type="line"/>
    </contour>
  </outline>
</glyph>
<glyph name="Oslash" format="2">
  <advance width="237"/>
  <unicode hex="00D8"/>
  <outline>
    <contour>
      <point x="302" y="621" type="line" smooth="yes"/>
      <point x="316" y="621"/>
      <point x="330" y="601"/>
      <point x="327" y="587" type="qcurve" smooth="yes"/>
      <point x="212" y="113" type="line" smooth="yes"/>
      <point x="208" y="99"/>
      <point x="185" y="79"/>
      <point x="171" y="79" type="qcurve" smooth="yes"/>
      <point x="125" y="79" type="line"/>
      <point x="106" y="0" type="line"/>
      <point x="39" y="0" type="line"/>
      <point x="58" y="79" type="line"/>
      <point x="12" y="79" type="line" smooth="yes"/>
      <point x="-1" y="79"/>
      <point x="-16" y="99"/>
      <point x="-12" y="113" type="qcurve" smooth="yes"/>
      <point x="102" y="587" type="line" smooth="yes"/>
      <point x="105" y="601"/>
      <point x="129" y="621"/>
      <point x="143" y="621" type="qcurve" smooth="yes"/>
      <point x="189" y="621" type="line"/>
      <point x="208" y="700" type="line"/>
      <point x="275" y="700" type="line"/>
      <point x="256" y="621" type="line"/>
    </contour>
    <contour>
      <point x="74" y="146" type="line"/>
      <point x="173" y="554" type="line"/>
      <point x="161" y="554" type="line"/>
      <point x="62" y="146" type="line"/>
    </contour>
    <contour>
      <point x="252" y="554" type="line"/>
      <point x="240" y="554" type="line"/>
      <point x="141" y="146" type="line"/>
      <point x="153" y="146" type="line"/>
    </contour>
  </outline>
</glyph>
<glyph name="Uacute" format="2">
  <advance width="158"/>
  <unicode hex="00DA"/>
  <outline>
    <contour>
      <point x="170" y="542" type="line"/>
      <point x="237" y="542" type="line"/>
      <point x="113" y="33" type="line" smooth="yes"/>
      <point x="110" y="19"/>
      <point x="86" y="0"/>
      <point x="72" y="0" type="qcurve" smooth="yes"/>
      <point x="-7" y="0" type="line" smooth="yes"/>
      <point x="-21" y="0"/>
      <point x="-35" y="19"/>
      <point x="-32" y="33" type="qcurve" smooth="yes"/>
      <point x="91" y="542" type="line"/>
      <point x="158" y="542" type="line"/>
      <point x="43" y="67" type="line"/>
      <point x="55" y="67" type="line"/>
    </contour>
    <contour>
      <point x="275" y="700" type="line"/>
      <point x="248" y="587" type="line" smooth="yes"/>
      <point x="244" y="573"/>
      <point x="221" y="554"/>
      <point x="207" y="554" type="qcurve" smooth="yes"/>
      <point x="94" y="554" type="line"/>
      <point x="110" y="621" type="line"/>
      <point x="189" y="621" type="line"/>
      <point x="208" y="700" type="line"/>
    </contour>
  </outline>
</glyph>
<glyph name="Yacute" format="2">
  <advance width="158"/>
  <unicode hex="00DD"/>
  <outline>
    <contour>
      <point x="237" y="542" type="line"/>
      <point x="171" y="271" type="line" smooth="yes"/>
      <point x="167" y="257"/>
      <point x="143" y="237"/>
      <point x="129" y="237" type="qcurve" smooth="yes"/>
      <point x="123" y="237" type="line"/>
      <point x="66" y="0" type="line"/>
      <point x="-1" y="0" type="line"/>
      <point x="56" y="237" type="line"/>
      <point x="50" y="237" type="line" smooth="yes"/>
      <point x="36" y="237"/>
      <point x="21" y="257"/>
      <point x="25" y="271" type="qcurve" smooth="yes"/>
      <point x="91" y="542" type="line"/>
      <point x="158" y="542" type="line"/>
      <point x="100" y="304" type="line"/>
      <point x="112" y="304" type="line"/>
      <point x="170" y="542" type="line"/>
    </contour>
    <contour>
      <point x="275" y="700" type="line"/>
      <point x="248" y="587" type="line" smooth="yes"/>
      <point x="244" y="573"/>
      <point x="221" y="554"/>
      <point x="207" y="554" type="qcurve" smooth="yes"/>
      <point x="94" y="554" type="line"/>
      <point x="110" y="621" type="line"/>
      <point x="189" y="621" type="line"/>
      <point x="208" y="700" type="line"/>
    </contour>
  </outline>
</glyph>
<glyph name="Thorn" format="2">
  <advance width="158"/>
  <unicode hex="00DE"/>
  <outline>
    <contour>
      <point x="27" y="0" type="line"/>
      <point x="-40" y="0" type="line"/>
      <point x="129" y="700" type="line"/>
      <point x="196" y="700" type="line"/>
      <point x="177" y="621" type="line"/>
      <point x="223" y="621" type="line" smooth="yes"/>
      <point x="237" y="621"/>
      <point x="251" y="602"/>
      <point x="248" y="588" type="qcurve" smooth="yes"/>
      <point x="133" y="113" type="line" smooth="yes"/>
      <point x="129" y="99"/>
      <point x="106" y="80"/>
      <point x="92" y="80" type="qcurve" smooth="yes"/>
      <point x="46" y="80" type="line"/>
    </contour>
    <contour>
      <point x="62" y="147" type="line"/>
      <point x="74" y="147" type="line"/>
      <point x="173" y="554" type="line"/>
      <point x="161" y="554" type="line"/>
    </contour>
  </outline>
</glyph>
<glyph name="germandbls" format="2">
  <advance width="198"/>
  <unicode hex="00DF"/>
  <outline>
    <contour>
      <point x="195" y="344" type="line" smooth="yes"/>
      <point x="209" y="344"/>
      <point x="224" y="324"/>
      <point x="220" y="310" type="qcurve" smooth="yes"/>
      <point x="153" y="33" type="line" smooth="yes"/>
      <point x="150" y="19"/>
      <point x="126" y="0"/>
      <point x="112" y="0" type="qcurve" smooth="yes"/>
      <point x="39" y="0" type="line"/>
      <point x="55" y="67" type="line"/>
      <point x="95" y="67" type="line"/>
      <point x="146" y="277" type="line"/>
      <point x="94" y="277" type="line"/>
      <point x="27" y="0" type="line"/>
      <point x="-40" y="0" type="line"/>
      <point x="121" y="667" type="line" smooth="yes"/>
      <point x="124" y="681"/>
      <point x="148" y="700"/>
      <point x="162" y="700" type="qcurve" smooth="yes"/>
      <point x="242" y="700" type="line" smooth="yes"/>
      <point x="256" y="700"/>
      <point x="270" y="681"/>
      <point x="267" y="667" type="qcurve" smooth="yes"/>
      <point x="200" y="390" type="line" smooth="yes"/>
      <point x="196" y="376"/>
      <point x="173" y="356"/>
      <point x="159" y="356" type="qcurve" smooth="yes"/>
      <point x="113" y="356" type="line"/>
      <point x="110" y="344" type="line"/>
    </contour>
    <contour>
      <point x="129" y="423" type="line"/>
      <point x="141" y="423" type="line"/>
      <point x="192" y="633" type="line"/>
      <point x="180" y="633" type="line"/>
    </contour>
  </outline>
</glyph>
<glyph name="ae" format="2">
  <advance width="237"/>
  <unicode hex="00E6"/>
  <outline>
    <contour>
      <point x="192" y="33" type="line" smooth="yes"/>
      <point x="189" y="19"/>
      <point x="166" y="0"/>
      <point x="152" y="0" type="qcurve" smooth="yes"/>
      <point x="-7" y="0" type="line" smooth="yes"/>
      <point x="-21" y="0"/>
      <point x="-35" y="19"/>
      <point x="-32" y="33" type="qcurve" smooth="yes"/>
      <point x="25" y="271" type="line" smooth="yes"/>
      <point x="28" y="285"/>
      <point x="52" y="304"/>
      <point x="66" y="304" type="qcurve" smooth="yes"/>
      <point x="112" y="304" type="line"/>
      <point x="153" y="475" type="line"/>
      <point x="141" y="475" type="line"/>
      <point x="103" y="316" type="line"/>
      <point x="36" y="316" type="line"/>
      <point x="82" y="508" type="line" smooth="yes"/>
      <point x="86" y="522"/>
      <point x="110" y="542"/>
      <point x="124" y="542" type="qcurve" smooth="yes"/>
      <point x="283" y="542" type="line" smooth="yes"/>
      <point x="297" y="542"/>
      <point x="311" y="522"/>
      <point x="307" y="508" type="qcurve" smooth="yes"/>
      <point x="250" y="271" type="line" smooth="yes"/>
      <point x="246" y="257"/>
      <point x="223" y="237"/>
      <point x="209" y="237" type="qcurve" smooth="yes"/>
      <point x="163" y="237" type="line"/>
      <point x="122" y="67" type="line"/>
      <point x="134" y="67" type="line"/>
      <point x="172" y="225" type="line"/>
      <point x="239" y="225" type="line"/>
    </contour>
    <contour>
      <point x="220" y="475" type="line"/>
      <point x="179" y="304" type="line"/>
      <point x="191" y="304" type="line"/>
      <point x="232" y="475" type="line"/>
    </contour>
    <contour>
      <point x="96" y="237" type="line"/>
      <point x="84" y="237" type="line"/>
      <point x="43" y="67" type="line"/>
      <point x="55" y="67" type="line"/>
    </contour>
  </outline>
</glyph>
<glyph name="ccedilla" format="2">
  <advance width="158"/>
  <unicode hex="00E7"/>
  <outline>
    <contour>
      <point x="73" y="0" type="qcurve" smooth="yes"/>
      <point x="66" y="0" type="line"/>
      <point x="63" y="-12" type="line"/>
      <point x="69" y="-12" type="line" smooth="yes"/>
      <point x="83" y="-12"/>
      <point x="98" y="-32"/>
      <point x="94" y="-46" type="qcurve" smooth="yes"/>
      <point x="75" y="-125" type="line" smooth="yes"/>
      <point x="72" y="-139"/>
      <point x="47" y="-158"/>
      <point x="33" y="-158" type="qcurve" smooth="yes"/>
      <point x="-39" y="-158" type="line"/>
      <point x="-23" y="-91" type="line"/>
      <point x="16" y="-91" type="line"/>
      <point x="19" y="-79" type="line"/>
      <point x="12" y="-79" type="line" smooth="yes"/>
      <point x="-1" y="-79"/>
      <point x="-15" y="-60"/>
      <point x="-12" y="-46" type="qcurve" smooth="yes"/>
      <point x="-1" y="0" type="line"/>
      <point x="-7" y="0" type="line" smooth="yes"/>
      <point x="-21" y="0"/>
      <point x="-35" y="19"/>
      <point x="-32" y="33" type="qcurve" smooth="yes"/>
      <point x="82" y="508" type="line" smooth="yes"/>
      <point x="86" y="522"/>
      <point x="110" y="542"/>
      <point x="124" y="542" type="qcurve" smooth="yes"/>
      <point x="204" y="542" type="line" smooth="yes"/>
      <point x="218" y="542"/>
      <point x="232" y="522"/>
      <point x="228" y="508" type="qcurve" smooth="yes"/>
      <point x="173" y="277" type="line"/>
      <point x="106" y="277" type="line"/>
      <point x="153" y="475" type="line"/>
      <point x="141" y="475" type="line"/>
      <point x="43" y="67" type="line"/>
      <point x="55" y="67" type="line"/>
      <point x="103" y="265" type="line"/>
      <point x="170" y="265" type="line"/>
      <point x="113" y="33" type="line" smooth="yes"/>
      <point x="110" y="19"/>
      <point x="87" y="0"/>
    </contour>
  </outline>
</glyph>
<glyph name="eth" format="2">
  <advance width="198"/>
  <unicode hex="00F0"/>
  <outline>
    <contour>
      <point x="73" y="0" type="qcurve" smooth="yes"/>
      <point x="-7" y="0" type="line" smooth="yes"/>
      <point x="-21" y="0"/>
      <point x="-35" y="19"/>
      <point x="-32" y="33" type="qcurve" smooth="yes"/>
      <point x="82" y="508" type="line" smooth="yes"/>
      <point x="86" y="522"/>
      <point x="110" y="542"/>
      <point x="124" y="542" type="qcurve" smooth="yes"/>
      <point x="170" y="542" type="line"/>
      <point x="173" y="554" type="line"/>
      <point x="134" y="554" type="line"/>
      <point x="150" y="621" type="line"/>
      <point x="189" y="621" type="line"/>
      <point x="208" y="700" type="line"/>
      <point x="275" y="700" type="line"/>
      <point x="256" y="621" type="line"/>
      <point x="296" y="621" type="line"/>
      <point x="280" y="554" type="line"/>
      <point x="240" y="554" type="line"/>
      <point x="113" y="33" type="line" smooth="yes"/>
      <point x="110" y="19"/>
      <point x="87" y="0"/>
    </contour>
    <contour>
      <point x="43" y="67" type="line"/>
      <point x="55" y="67" type="line"/>
      <point x="153" y="475" type="line"/>
      <point x="141" y="475" type="line"/>
    </contour>
  </outline>
</glyph>
<glyph name="oslash" format="2">
  <advance width="238"/>
  <unicode hex="00F8"/>
  <outline>
    <contour>
      <point x="283" y="542" type="line" smooth="yes"/>
      <point x="297" y="542"/>
      <point x="312" y="522"/>
      <point x="308" y="508" type="qcurve" smooth="yes"/>
      <point x="193" y="33" type="line" smooth="yes"/>
      <point x="190" y="19"/>
      <point x="166" y="0"/>
      <point x="152" y="0" type="qcurve" smooth="yes"/>
      <point x="107" y="0" type="line"/>
      <point x="87" y="-79" type="line"/>
      <point x="20" y="-79" type="line"/>
      <point x="40" y="0" type="line"/>
      <point x="-6" y="0" type="line" smooth="yes"/>
      <point x="-20" y="0"/>
      <point x="-35" y="19"/>
      <point x="-32" y="33" type="qcurve" smooth="yes"/>
      <point x="82" y="508" type="line" smooth="yes"/>
      <point x="86" y="522"/>
      <point x="111" y="542"/>
      <point x="125" y="542" type="qcurve" smooth="yes"/>
      <point x="171" y="542" type="line"/>
      <point x="190" y="621" type="line"/>
      <point x="257" y="621" type="line"/>
      <point x="238" y="542" type="line"/>
    </contour>
    <contour>
      <point x="56" y="67" type="line"/>
      <point x="154" y="475" type="line"/>
      <point x="141" y="475" type="line"/>
      <point x="43" y="67" type="line"/>
    </contour>
    <contour>
      <point x="233" y="475" type="line"/>
      <point x="221" y="475" type="line"/>
      <point x="123" y="67" type="line"/>
      <point x="135" y="67" type="line"/>
    </contour>
  </outline>
</glyph>
<glyph name="thorn" format="2">
  <advance width="158"/>
  <unicode hex="00FE"/>
  <outline>
    <contour>
      <point x="-11" y="-158" type="line"/>
      <point x="-78" y="-158" type="line"/>
      <point x="129" y="700" type="line"/>
      <point x="196" y="700" type="line"/>
      <point x="158" y="542" type="line"/>
      <point x="204" y="542" type="line" smooth="yes"/>
      <point x="218" y="542"/>
      <point x="232" y="522"/>
      <point x="228" y="508" type="qcurve" smooth="yes"/>
      <point x="113" y="33" type="line" smooth="yes"/>
      <point x="110" y="19"/>
      <point x="87" y="0"/>
      <point x="73" y="0" type="qcurve" smooth="yes"/>
      <point x="27" y="0" type="line"/>
    </contour>
    <contour>
      <point x="43" y="67" type="line"/>
      <point x="55" y="67" type="line"/>
      <point x="153" y="475" type="line"/>
      <point x="141" y="475" type="line"/>
    </contour>
  </outline>
</glyph>
<glyph name="Amacron" format="2">
  <advance width="158"/>
  <unicode hex="0100"/>
  <outline>
    <contour>
      <point x="223" y="621" type="qcurve" smooth="yes"/>
      <point x="143" y="621" type="line" smooth="yes"/>
      <point x="129" y="621"/>
      <point x="105" y="601"/>
      <point x="102" y="587" type="qcurve" smooth="yes"/>
      <point x="43" y="344" type="line"/>
      <point x="27" y="277" type="line"/>
      <point x="-40" y="0" type="line"/>
      <point x="27" y="0" type="line"/>
      <point x="94" y="277" type="line"/>
      <point x="106" y="277" type="line"/>
      <point x="39" y="0" type="line"/>
      <point x="106" y="0" type="line"/>
      <point x="173" y="277" type="line"/>
      <point x="189" y="344" type="line"/>
      <point x="248" y="587" type="line" smooth="yes"/>
      <point x="251" y="601"/>
      <point x="237" y="621"/>
    </contour>
    <contour>
      <point x="110" y="344" type="line"/>
      <point x="161" y="554" type="line"/>
      <point x="173" y="554" type="line"/>
      <point x="122" y="344" type="line"/>
    </contour>
    <contour>
      <point x="259" y="633" type="line"/>
      <point x="113" y="633" type="line"/>
      <point x="129" y="700" type="line"/>
      <point x="275" y="700" type="line"/>
    </contour>
  </outline>
</glyph>
<glyph name="Abreve" format="2">
  <advance width="158"/>
  <unicode hex="0102"/>
  <outline>
    <contour>
      <point x="204" y="542" type="line" smooth="yes"/>
      <point x="218" y="542"/>
      <point x="232" y="522"/>
      <point x="228" y="508" type="qcurve" smooth="yes"/>
      <point x="106" y="0" type="line"/>
      <point x="39" y="0" type="line"/>
      <point x="96" y="237" type="line"/>
      <point x="84" y="237" type="line"/>
      <point x="27" y="0" type="line"/>
      <point x="-40" y="0" type="line"/>
      <point x="82" y="508" type="line" smooth="yes"/>
      <point x="86" y="522"/>
      <point x="110" y="542"/>
      <point x="124" y="542" type="qcurve" smooth="yes"/>
    </contour>
    <contour>
      <point x="112" y="304" type="line"/>
      <point x="153" y="475" type="line"/>
      <point x="141" y="475" type="line"/>
      <point x="100" y="304" type="line"/>
    </contour>
    <contour>
      <point x="129" y="700" type="line"/>
      <point x="196" y="700" type="line"/>
      <point x="177" y="621" type="line"/>
      <point x="189" y="621" type="line"/>
      <point x="208" y="700" type="line"/>
      <point x="275" y="700" type="line"/>
      <point x="248" y="588" type="line" smooth="yes"/>
      <point x="244" y="574"/>
      <point x="221" y="554"/>
      <point x="207" y="554" type="qcurve" smooth="yes"/>
      <point x="127" y="554" type="line" smooth="yes"/>
      <point x="113" y="554"/>
      <point x="98" y="574"/>
      <point x="102" y="588" type="qcurve" smooth="yes"/>
    </contour>
  </outline>
</glyph>
<glyph name="Aogonek" format="2">
  <advance width="158"/>
  <unicode hex="0104"/>
  <outline>
    <contour>
      <point x="52" y="-79" type="line" smooth="yes"/>
      <point x="38" y="-79"/>
      <point x="24" y="-60"/>
      <point x="27" y="-46" type="qcurve" smooth="yes"/>
      <point x="115" y="316" type="line"/>
      <point x="103" y="316" type="line"/>
      <point x="27" y="0" type="line"/>
      <point x="-40" y="0" type="line"/>
      <point x="121" y="666" type="line" smooth="yes"/>
      <point x="124" y="680"/>
      <point x="148" y="700"/>
      <point x="162" y="700" type="qcurve" smooth="yes"/>
      <point x="242" y="700" type="line" smooth="yes"/>
      <point x="256" y="700"/>
      <point x="270" y="680"/>
      <point x="267" y="666" type="qcurve" smooth="yes"/>
      <point x="103" y="-12" type="line"/>
      <point x="142" y="-12" type="line"/>
      <point x="125" y="-79" type="line"/>
    </contour>
    <contour>
      <point x="131" y="383" type="line"/>
      <point x="192" y="633" type="line"/>
      <point x="180" y="633" type="line"/>
      <point x="119" y="383" type="line"/>
    </contour>
  </outline>
</glyph>
<glyph name="aogonek" format="2">
  <advance width="158"/>
  <unicode hex="0105"/>
  <outline>
    <contour>
      <point x="52" y="-79" type="line" smooth="yes"/>
      <point x="38" y="-79"/>
      <point x="24" y="-60"/>
      <point x="27" y="-46" type="qcurve" smooth="yes"/>
      <point x="39" y="0" type="line"/>
      <point x="-7" y="0" type="line" smooth="yes"/>
      <point x="-21" y="0"/>
      <point x="-35" y="19"/>
      <point x="-32" y="33" type="qcurve" smooth="yes"/>
      <point x="25" y="271" type="line" smooth="yes"/>
      <point x="28" y="285"/>
      <point x="52" y="304"/>
      <point x="66" y="304" type="qcurve" smooth="yes"/>
      <point x="112" y="304" type="line"/>
      <point x="153" y="475" type="line"/>
      <point x="141" y="475" type="line"/>
      <point x="103" y="316" type="line"/>
      <point x="36" y="316" type="line"/>
      <point x="82" y="508" type="line" smooth="yes"/>
      <point x="86" y="522"/>
      <point x="110" y="542"/>
      <point x="124" y="542" type="qcurve" smooth="yes"/>
      <point x="204" y="542" type="line" smooth="yes"/>
      <point x="218" y="542"/>
      <point x="232" y="522"/>
      <point x="228" y="508" type="qcurve" smooth="yes"/>
      <point x="103" y="-12" type="line"/>
      <point x="142" y="-12" type="line"/>
      <point x="125" y="-79" type="line"/>
    </contour>
    <contour>
      <point x="43" y="67" type="line"/>
      <point x="55" y="67" type="line"/>
      <point x="96" y="237" type="line"/>
      <point x="84" y="237" type="line"/>
    </contour>
  </outline>
</glyph>
<glyph name="Cacute" format="2">
  <advance width="158"/>
  <unicode hex="0106"/>
  <outline>
    <contour>
      <point x="-7" y="0" type="line" smooth="yes"/>
      <point x="-21" y="0"/>
      <point x="-35" y="19"/>
      <point x="-32" y="33" type="qcurve" smooth="yes"/>
      <point x="82" y="508" type="line" smooth="yes"/>
      <point x="86" y="522"/>
      <point x="110" y="542"/>
      <point x="124" y="542" type="qcurve" smooth="yes"/>
      <point x="203" y="542" type="line" smooth="yes"/>
      <point x="217" y="542"/>
      <point x="232" y="522"/>
      <point x="228" y="508" type="qcurve" smooth="yes"/>
      <point x="174" y="283" type="line"/>
      <point x="107" y="283" type="line"/>
      <point x="153" y="475" type="line"/>
      <point x="141" y="475" type="line"/>
      <point x="43" y="67" type="line"/>
      <point x="55" y="67" type="line"/>
      <point x="104" y="271" type="line"/>
      <point x="171" y="271" type="line"/>
      <point x="113" y="33" type="line" smooth="yes"/>
      <point x="110" y="19"/>
      <point x="86" y="0"/>
      <point x="72" y="0" type="qcurve" smooth="yes"/>
    </contour>
    <contour>
      <point x="275" y="700" type="line"/>
      <point x="248" y="587" type="line" smooth="yes"/>
      <point x="244" y="573"/>
      <point x="221" y="554"/>
      <point x="207" y="554" type="qcurve" smooth="yes"/>
      <point x="94" y="554" type="line"/>
      <point x="110" y="621" type="line"/>
      <point x="189" y="621" type="line"/>
      <point x="208" y="700" type="line"/>
    </contour>
  </outline>
</glyph>
<glyph name="Ccircumflex" format="2">
  <advance width="158"/>
  <unicode hex="0108"/>
  <outline>
    <contour>
      <point x="73" y="0" type="qcurve" smooth="yes"/>
      <point x="-7" y="0" type="line" smooth="yes"/>
      <point x="-21" y="0"/>
      <point x="-35" y="19"/>
      <point x="-32" y="33" type="qcurve" smooth="yes"/>
      <point x="83" y="509" type="line" smooth="yes"/>
      <point x="86" y="523"/>
      <point x="110" y="542"/>
      <point x="124" y="542" type="qcurve" smooth="yes"/>
      <point x="204" y="542" type="line" smooth="yes"/>
      <point x="218" y="542"/>
      <point x="232" y="523"/>
      <point x="229" y="509" type="qcurve" smooth="yes"/>
      <point x="172" y="276" type="line"/>
      <point x="105" y="276" type="line"/>
      <point x="153" y="474" type="line"/>
      <point x="141" y="474" type="line"/>
      <point x="43" y="67" type="line"/>
      <point x="55" y="67" type="line"/>
      <point x="102" y="264" type="line"/>
      <point x="169" y="264" type="line"/>
      <point x="113" y="33" type="line" smooth="yes"/>
      <point x="110" y="19"/>
      <point x="87" y="0"/>
    </contour>
    <contour>
      <point x="240" y="554" type="line"/>
      <point x="173" y="554" type="line"/>
      <point x="187" y="614" type="line"/>
      <point x="182" y="620" type="line"/>
      <point x="175" y="614" type="line"/>
      <point x="161" y="554" type="line"/>
      <point x="94" y="554" type="line"/>
      <point x="111" y="627" type="line" smooth="yes"/>
      <point x="112.5" y="634.0" name="inserted"/>
      <point x="120.5" y="646.0"/>
      <point x="127" y="651" type="qcurve" smooth="yes"/>
      <point x="176" y="691" type="line" smooth="yes"/>
      <point x="188" y="701"/>
      <point x="216" y="701"/>
      <point x="224" y="691" type="qcurve" smooth="yes"/>
      <point x="253" y="651" type="line"/>
      <point x="257.0" y="647.0" name="inserted"/>
      <point x="259.0" y="635.0"/>
      <point x="257" y="627" type="qcurve" smooth="yes"/>
    </contour>
  </outline>
</glyph>
<glyph name="Cdotaccent" format="2">
  <advance width="158"/>
  <unicode hex="010A"/>
  <outline>
    <contour>
      <point x="73" y="0" type="qcurve" smooth="yes"/>
      <point x="-7" y="0" type="line" smooth="yes"/>
      <point x="-21" y="0"/>
      <point x="-35" y="19"/>
      <point x="-32" y="33" type="qcurve" smooth="yes"/>
      <point x="83" y="509" type="line" smooth="yes"/>
      <point x="86" y="523"/>
      <point x="110" y="542"/>
      <point x="124" y="542" type="qcurve" smooth="yes"/>
      <point x="204" y="542" type="line" smooth="yes"/>
      <point x="218" y="542"/>
      <point x="232" y="523"/>
      <point x="229" y="509" type="qcurve" smooth="yes"/>
      <point x="173" y="277" type="line"/>
      <point x="106" y="277" type="line"/>
      <point x="153" y="475" type="line"/>
      <point x="141" y="475" type="line"/>
      <point x="43" y="67" type="line"/>
      <point x="55" y="67" type="line"/>
      <point x="103" y="265" type="line"/>
      <point x="170" y="265" type="line"/>
      <point x="113" y="33" type="line" smooth="yes"/>
      <point x="110" y="19"/>
      <point x="87" y="0"/>
    </contour>
    <contour>
      <point x="169" y="700" type="line"/>
      <point x="236" y="700" type="line"/>
      <point x="201" y="554" type="line"/>
      <point x="134" y="554" type="line"/>
    </contour>
  </outline>
</glyph>
<glyph name="Ccaron" format="2">
  <advance width="158"/>
  <unicode hex="010C"/>
  <outline>
    <contour>
      <point x="-7" y="0" type="qcurve" smooth="yes"/>
      <point x="72" y="0" type="line" smooth="yes"/>
      <point x="86" y="0"/>
      <point x="110" y="19"/>
      <point x="113" y="33" type="qcurve" smooth="yes"/>
      <point x="171" y="271" type="line"/>
      <point x="104" y="271" type="line"/>
      <point x="55" y="67" type="line"/>
      <point x="43" y="67" type="line"/>
      <point x="141" y="475" type="line"/>
      <point x="153" y="475" type="line"/>
      <point x="107" y="283" type="line"/>
      <point x="174" y="283" type="line"/>
      <point x="228" y="508" type="line" smooth="yes"/>
      <point x="232" y="522"/>
      <point x="217" y="542"/>
      <point x="203" y="542" type="qcurve" smooth="yes"/>
      <point x="124" y="542" type="line" smooth="yes"/>
      <point x="110" y="542"/>
      <point x="86" y="522"/>
      <point x="82" y="508" type="qcurve" smooth="yes"/>
      <point x="-32" y="33" type="line" smooth="yes"/>
      <point x="-35" y="19"/>
      <point x="-21" y="0"/>
    </contour>
    <contour>
      <point x="129" y="700" type="line"/>
      <point x="196" y="700" type="line"/>
      <point x="181" y="640" type="line"/>
      <point x="186" y="634" type="line"/>
      <point x="193" y="640" type="line"/>
      <point x="208" y="700" type="line"/>
      <point x="275" y="700" type="line"/>
      <point x="257" y="627" type="line"/>
      <point x="255.5" y="619.0" name="inserted"/>
      <point x="247.5" y="607.0"/>
      <point x="241" y="603" type="qcurve"/>
      <point x="193" y="563" type="line" smooth="yes"/>
      <point x="181" y="553"/>
      <point x="153" y="553"/>
      <point x="145" y="563" type="qcurve" smooth="yes"/>
      <point x="115" y="603" type="line" smooth="yes"/>
      <point x="111.5" y="607.5" name="inserted"/>
      <point x="109.5" y="619.5"/>
      <point x="111" y="627" type="qcurve" smooth="yes"/>
    </contour>
  </outline>
</glyph>
<glyph name="Dcaron" format="2">
  <advance width="237"/>
  <unicode hex="010E"/>
  <outline>
    <contour>
      <point x="151" y="0" type="qcurve" smooth="yes"/>
      <point x="-7" y="0" type="line" smooth="yes"/>
      <point x="-21" y="0"/>
      <point x="-35" y="19"/>
      <point x="-32" y="33" type="qcurve" smooth="yes"/>
      <point x="24" y="265" type="line"/>
      <point x="91" y="265" type="line"/>
      <point x="43" y="67" type="line"/>
      <point x="55" y="67" type="line"/>
      <point x="153" y="475" type="line"/>
      <point x="141" y="475" type="line"/>
      <point x="94" y="277" type="line"/>
      <point x="27" y="277" type="line"/>
      <point x="82" y="508" type="line" smooth="yes"/>
      <point x="86" y="522"/>
      <point x="110" y="542"/>
      <point x="124" y="542" type="qcurve" smooth="yes"/>
      <point x="282" y="542" type="line" smooth="yes"/>
      <point x="296" y="542"/>
      <point x="311" y="522"/>
      <point x="307" y="508" type="qcurve" smooth="yes"/>
      <point x="192" y="33" type="line" smooth="yes"/>
      <point x="189" y="19"/>
      <point x="165" y="0"/>
    </contour>
    <contour>
      <point x="122" y="67" type="line"/>
      <point x="134" y="67" type="line"/>
      <point x="232" y="475" type="line"/>
      <point x="220" y="475" type="line"/>
    </contour>
    <contour>
      <point x="168" y="700" type="line"/>
      <point x="235" y="700" type="line"/>
      <point x="220" y="640" type="line"/>
      <point x="225" y="634" type="line"/>
      <point x="232" y="640" type="line"/>
      <point x="247" y="700" type="line"/>
      <point x="314" y="700" type="line"/>
      <point x="296" y="627" type="line"/>
      <point x="294.5" y="619.0" name="inserted"/>
      <point x="286.5" y="607.0"/>
      <point x="280" y="603" type="qcurve"/>
      <point x="232" y="563" type="line" smooth="yes"/>
      <point x="220" y="553"/>
      <point x="192" y="553"/>
      <point x="184" y="563" type="qcurve" smooth="yes"/>
      <point x="154" y="603" type="line" smooth="yes"/>
      <point x="150.5" y="607.5" name="inserted"/>
      <point x="148.5" y="619.5"/>
      <point x="150" y="627" type="qcurve" smooth="yes"/>
    </contour>
  </outline>
</glyph>
<glyph name="Dcroat" format="2">
  <advance width="237"/>
  <unicode hex="0110"/>
  <outline>
    <contour>
      <point x="152" y="0" type="qcurve" smooth="yes"/>
      <point x="-7" y="0" type="line" smooth="yes"/>
      <point x="-21" y="0"/>
      <point x="-35" y="19"/>
      <point x="-32" y="33" type="qcurve" smooth="yes"/>
      <point x="33" y="304" type="line"/>
      <point x="100" y="304" type="line"/>
      <point x="43" y="67" type="line"/>
      <point x="55" y="67" type="line"/>
      <point x="115" y="316" type="line"/>
      <point x="36" y="316" type="line"/>
      <point x="52" y="383" type="line"/>
      <point x="131" y="383" type="line"/>
      <point x="192" y="633" type="line"/>
      <point x="180" y="633" type="line"/>
      <point x="122" y="396" type="line"/>
      <point x="55" y="396" type="line"/>
      <point x="121" y="666" type="line" smooth="yes"/>
      <point x="124" y="680"/>
      <point x="148" y="700"/>
      <point x="162" y="700" type="qcurve" smooth="yes"/>
      <point x="321" y="700" type="line" smooth="yes"/>
      <point x="335" y="700"/>
      <point x="349" y="680"/>
      <point x="346" y="666" type="qcurve" smooth="yes"/>
      <point x="192" y="33" type="line" smooth="yes"/>
      <point x="189" y="19"/>
      <point x="166" y="0"/>
    </contour>
    <contour>
      <point x="122" y="67" type="line"/>
      <point x="134" y="67" type="line"/>
      <point x="194" y="316" type="line"/>
      <point x="182" y="316" type="line"/>
    </contour>
    <contour>
      <point x="198" y="383" type="line"/>
      <point x="210" y="383" type="line"/>
      <point x="271" y="633" type="line"/>
      <point x="259" y="633" type="line"/>
    </contour>
  </outline>
</glyph>
<glyph name="Emacron" format="2">
  <advance width="158"/>
  <unicode hex="0112"/>
  <outline>
    <contour>
      <point x="142" y="620" type="qcurve" smooth="yes"/>
      <point x="222" y="620" type="line" smooth="yes"/>
      <point x="236" y="620"/>
      <point x="251" y="601"/>
      <point x="248" y="587" type="qcurve" smooth="yes"/>
      <point x="191" y="355" type="line"/>
      <point x="124" y="355" type="line"/>
      <point x="172" y="553" type="line"/>
      <point x="160" y="553" type="line"/>
      <point x="109" y="343" type="line"/>
      <point x="188" y="343" type="line"/>
      <point x="172" y="276" type="line"/>
      <point x="93" y="276" type="line"/>
      <point x="43" y="67" type="line"/>
      <point x="55" y="67" type="line"/>
      <point x="102" y="263" type="line"/>
      <point x="169" y="263" type="line"/>
      <point x="113" y="33" type="line" smooth="yes"/>
      <point x="110" y="19"/>
      <point x="87" y="0"/>
      <point x="73" y="0" type="qcurve" smooth="yes"/>
      <point x="-7" y="0" type="line" smooth="yes"/>
      <point x="-21" y="0"/>
      <point x="-35" y="19"/>
      <point x="-32" y="33" type="qcurve" smooth="yes"/>
      <point x="102" y="587" type="line" smooth="yes"/>
      <point x="105" y="601"/>
      <point x="128" y="620"/>
    </contour>
    <contour>
      <point x="259" y="633" type="line"/>
      <point x="113" y="633" type="line"/>
      <point x="129" y="700" type="line"/>
      <point x="275" y="700" type="line"/>
    </contour>
  </outline>
</glyph>
<glyph name="Eogonek" format="2">
  <advance width="158"/>
  <unicode hex="0118"/>
  <outline>
    <contour>
      <point x="162" y="700" type="qcurve" smooth="yes"/>
      <point x="242" y="700" type="line" smooth="yes"/>
      <point x="256" y="700"/>
      <point x="270" y="681"/>
      <point x="267" y="667" type="qcurve" smooth="yes"/>
      <point x="201" y="396" type="line"/>
      <point x="134" y="396" type="line"/>
      <point x="192" y="633" type="line"/>
      <point x="180" y="633" type="line"/>
      <point x="119" y="384" type="line"/>
      <point x="198" y="384" type="line"/>
      <point x="182" y="317" type="line"/>
      <point x="103" y="317" type="line"/>
      <point x="43" y="67" type="line"/>
      <point x="55" y="67" type="line"/>
      <point x="112" y="304" type="line"/>
      <point x="179" y="304" type="line"/>
      <point x="113" y="33" type="line" smooth="yes"/>
      <point x="110" y="19"/>
      <point x="87" y="0"/>
      <point x="73" y="0" type="qcurve" smooth="yes"/>
      <point x="66" y="0" type="line"/>
      <point x="63" y="-12" type="line"/>
      <point x="103" y="-12" type="line"/>
      <point x="86" y="-79" type="line"/>
      <point x="12" y="-79" type="line" smooth="yes"/>
      <point x="-1" y="-79"/>
      <point x="-15" y="-60"/>
      <point x="-12" y="-46" type="qcurve" smooth="yes"/>
      <point x="-1" y="0" type="line"/>
      <point x="-7" y="0" type="line" smooth="yes"/>
      <point x="-21" y="0"/>
      <point x="-35" y="19"/>
      <point x="-32" y="33" type="qcurve" smooth="yes"/>
      <point x="121" y="667" type="line" smooth="yes"/>
      <point x="124" y="681"/>
      <point x="148" y="700"/>
    </contour>
  </outline>
</glyph>
<glyph name="eogonek" format="2">
  <advance width="158"/>
  <unicode hex="0119"/>
  <outline>
    <contour>
      <point x="12" y="-79" type="line" smooth="yes"/>
      <point x="-1" y="-79"/>
      <point x="-15" y="-60"/>
      <point x="-12" y="-46" type="qcurve" smooth="yes"/>
      <point x="-1" y="0" type="line"/>
      <point x="-7" y="0" type="line" smooth="yes"/>
      <point x="-21" y="0"/>
      <point x="-35" y="19"/>
      <point x="-32" y="33" type="qcurve" smooth="yes"/>
      <point x="82" y="508" type="line" smooth="yes"/>
      <point x="86" y="522"/>
      <point x="110" y="542"/>
      <point x="124" y="542" type="qcurve" smooth="yes"/>
      <point x="204" y="542" type="line" smooth="yes"/>
      <point x="218" y="542"/>
      <point x="232" y="522"/>
      <point x="228" y="508" type="qcurve" smooth="yes"/>
      <point x="171" y="271" type="line" smooth="yes"/>
      <point x="167" y="257"/>
      <point x="144" y="237"/>
      <point x="130" y="237" type="qcurve" smooth="yes"/>
      <point x="84" y="237" type="line"/>
      <point x="43" y="67" type="line"/>
      <point x="55" y="67" type="line"/>
      <point x="93" y="225" type="line"/>
      <point x="160" y="225" type="line"/>
      <point x="113" y="33" type="line" smooth="yes"/>
      <point x="110" y="19"/>
      <point x="87" y="0"/>
      <point x="73" y="0" type="qcurve" smooth="yes"/>
      <point x="66" y="0" type="line"/>
      <point x="63" y="-12" type="line"/>
      <point x="103" y="-12" type="line"/>
      <point x="86" y="-79" type="line"/>
    </contour>
    <contour>
      <point x="100" y="304" type="line"/>
      <point x="112" y="304" type="line"/>
      <point x="153" y="475" type="line"/>
      <point x="141" y="475" type="line"/>
    </contour>
  </outline>
</glyph>
<glyph name="Ecaron" format="2">
  <advance width="158"/>
  <unicode hex="011A"/>
  <outline>
    <contour>
      <point x="124" y="542" type="qcurve" smooth="yes"/>
      <point x="204" y="542" type="line" smooth="yes"/>
      <point x="218" y="542"/>
      <point x="232" y="523"/>
      <point x="229" y="509" type="qcurve" smooth="yes"/>
      <point x="182" y="317" type="line"/>
      <point x="115" y="317" type="line"/>
      <point x="153" y="475" type="line"/>
      <point x="141" y="475" type="line"/>
      <point x="100" y="305" type="line"/>
      <point x="179" y="305" type="line"/>
      <point x="163" y="238" type="line"/>
      <point x="84" y="238" type="line"/>
      <point x="43" y="67" type="line"/>
      <point x="55" y="67" type="line"/>
      <point x="93" y="225" type="line"/>
      <point x="160" y="225" type="line"/>
      <point x="113" y="33" type="line" smooth="yes"/>
      <point x="110" y="19"/>
      <point x="87" y="0"/>
      <point x="73" y="0" type="qcurve" smooth="yes"/>
      <point x="-7" y="0" type="line" smooth="yes"/>
      <point x="-21" y="0"/>
      <point x="-35" y="19"/>
      <point x="-32" y="33" type="qcurve" smooth="yes"/>
      <point x="83" y="509" type="line" smooth="yes"/>
      <point x="86" y="523"/>
      <point x="110" y="542"/>
    </contour>
    <contour>
      <point x="129" y="700" type="line"/>
      <point x="196" y="700" type="line"/>
      <point x="181" y="640" type="line"/>
      <point x="186" y="634" type="line"/>
      <point x="193" y="640" type="line"/>
      <point x="208" y="700" type="line"/>
      <point x="275" y="700" type="line"/>
      <point x="257" y="627" type="line"/>
      <point x="255.5" y="619.0" name="inserted"/>
      <point x="247.5" y="607.0"/>
      <point x="241" y="603" type="qcurve"/>
      <point x="193" y="563" type="line" smooth="yes"/>
      <point x="181" y="553"/>
      <point x="153" y="553"/>
      <point x="145" y="563" type="qcurve" smooth="yes"/>
      <point x="115" y="603" type="line" smooth="yes"/>
      <point x="111.5" y="607.5" name="inserted"/>
      <point x="109.5" y="619.5"/>
      <point x="111" y="627" type="qcurve" smooth="yes"/>
    </contour>
  </outline>
</glyph>
<glyph name="Gcircumflex" format="2">
  <advance width="198"/>
  <unicode hex="011C"/>
  <outline>
    <contour>
      <point x="73" y="0" type="qcurve" smooth="yes"/>
      <point x="-7" y="0" type="line" smooth="yes"/>
      <point x="-21" y="0"/>
      <point x="-35" y="19"/>
      <point x="-32" y="33" type="qcurve" smooth="yes"/>
      <point x="82" y="508" type="line" smooth="yes"/>
      <point x="86" y="522"/>
      <point x="110" y="542"/>
      <point x="124" y="542" type="qcurve" smooth="yes"/>
      <point x="204" y="542" type="line" smooth="yes"/>
      <point x="218" y="542"/>
      <point x="232" y="522"/>
      <point x="228" y="508" type="qcurve" smooth="yes"/>
      <point x="173" y="277" type="line"/>
      <point x="106" y="277" type="line"/>
      <point x="153" y="475" type="line"/>
      <point x="141" y="475" type="line"/>
      <point x="43" y="67" type="line"/>
      <point x="55" y="67" type="line"/>
      <point x="103" y="265" type="line"/>
      <point x="210" y="265" type="line"/>
      <point x="193" y="198" type="line"/>
      <point x="153" y="198" type="line"/>
      <point x="113" y="33" type="line" smooth="yes"/>
      <point x="110" y="19"/>
      <point x="87" y="0"/>
    </contour>
    <contour>
      <point x="240" y="554" type="line"/>
      <point x="173" y="554" type="line"/>
      <point x="187" y="614" type="line"/>
      <point x="182" y="620" type="line"/>
      <point x="175" y="614" type="line"/>
      <point x="161" y="554" type="line"/>
      <point x="94" y="554" type="line"/>
      <point x="111" y="627" type="line" smooth="yes"/>
      <point x="112.5" y="634.0" name="inserted"/>
      <point x="120.5" y="646.0"/>
      <point x="127" y="651" type="qcurve" smooth="yes"/>
      <point x="176" y="691" type="line" smooth="yes"/>
      <point x="188" y="701"/>
      <point x="216" y="701"/>
      <point x="224" y="691" type="qcurve" smooth="yes"/>
      <point x="253" y="651" type="line"/>
      <point x="257.0" y="647.0" name="inserted"/>
      <point x="259.0" y="635.0"/>
      <point x="257" y="627" type="qcurve" smooth="yes"/>
    </contour>
  </outline>
</glyph>
<glyph name="Gbreve" format="2">
  <advance width="198"/>
  <unicode hex="011E"/>
  <outline>
    <contour>
      <point x="73" y="0" type="qcurve" smooth="yes"/>
      <point x="-7" y="0" type="line" smooth="yes"/>
      <point x="-21" y="0"/>
      <point x="-35" y="19"/>
      <point x="-32" y="33" type="qcurve" smooth="yes"/>
      <point x="82" y="508" type="line" smooth="yes"/>
      <point x="86" y="522"/>
      <point x="110" y="542"/>
      <point x="124" y="542" type="qcurve" smooth="yes"/>
      <point x="204" y="542" type="line" smooth="yes"/>
      <point x="218" y="542"/>
      <point x="232" y="522"/>
      <point x="228" y="508" type="qcurve" smooth="yes"/>
      <point x="173" y="277" type="line"/>
      <point x="106" y="277" type="line"/>
      <point x="153" y="475" type="line"/>
      <point x="141" y="475" type="line"/>
      <point x="43" y="67" type="line"/>
      <point x="55" y="67" type="line"/>
      <point x="103" y="265" type="line"/>
      <point x="210" y="265" type="line"/>
      <point x="193" y="198" type="line"/>
      <point x="153" y="198" type="line"/>
      <point x="113" y="33" type="line" smooth="yes"/>
      <point x="110" y="19"/>
      <point x="87" y="0"/>
    </contour>
    <contour>
      <point x="129" y="700" type="line"/>
      <point x="196" y="700" type="line"/>
      <point x="177" y="621" type="line"/>
      <point x="189" y="621" type="line"/>
      <point x="208" y="700" type="line"/>
      <point x="275" y="700" type="line"/>
      <point x="248" y="588" type="line" smooth="yes"/>
      <point x="244" y="574"/>
      <point x="221" y="554"/>
      <point x="207" y="554" type="qcurve" smooth="yes"/>
      <point x="127" y="554" type="line" smooth="yes"/>
      <point x="113" y="554"/>
      <point x="98" y="574"/>
      <point x="102" y="588" type="qcurve" smooth="yes"/>
    </contour>
  </outline>
</glyph>
<glyph name="uni0122" format="2">
  <advance width="198"/>
  <unicode hex="0122"/>
  <outline>
    <contour>
      <point x="-23" y="-91" type="line"/>
      <point x="-62" y="-91" type="line"/>
      <point x="-78" y="-158" type="line"/>
      <point x="-5" y="-158" type="line" smooth="yes"/>
      <point x="8" y="-158"/>
      <point x="32" y="-139"/>
      <point x="35" y="-125" type="qcurve" smooth="yes"/>
      <point x="63" y="-12" type="line"/>
      <point x="-3" y="-12" type="line"/>
    </contour>
    <contour>
      <point x="73" y="0" type="qcurve" smooth="yes"/>
      <point x="-6" y="0" type="line" smooth="yes"/>
      <point x="-20" y="0"/>
      <point x="-35" y="19"/>
      <point x="-32" y="33" type="qcurve" smooth="yes"/>
      <point x="121" y="666" type="line" smooth="yes"/>
      <point x="124" y="680"/>
      <point x="149" y="700"/>
      <point x="163" y="700" type="qcurve" smooth="yes"/>
      <point x="242" y="700" type="line" smooth="yes"/>
      <point x="256" y="700"/>
      <point x="271" y="680"/>
      <point x="268" y="666" type="qcurve" smooth="yes"/>
      <point x="193" y="356" type="line"/>
      <point x="126" y="356" type="line"/>
      <point x="193" y="633" type="line"/>
      <point x="180" y="633" type="line"/>
      <point x="43" y="67" type="line"/>
      <point x="56" y="67" type="line"/>
      <point x="123" y="344" type="line"/>
      <point x="229" y="344" type="line"/>
      <point x="213" y="277" type="line"/>
      <point x="174" y="277" type="line"/>
      <point x="114" y="33" type="line" smooth="yes"/>
      <point x="111" y="19"/>
      <point x="87" y="0"/>
    </contour>
  </outline>
</glyph>
<glyph name="uni0123" format="2">
  <advance width="158"/>
  <unicode hex="0123"/>
  <outline>
    <contour>
      <point x="200" y="554" type="line"/>
      <point x="133" y="554" type="line"/>
      <point x="160" y="667" type="line" smooth="yes"/>
      <point x="163" y="681"/>
      <point x="187" y="700"/>
      <point x="201" y="700" type="qcurve" smooth="yes"/>
      <point x="275" y="700" type="line"/>
      <point x="259" y="633" type="line"/>
      <point x="219" y="633" type="line"/>
    </contour>
    <contour>
      <point x="34" y="-158" type="qcurve" smooth="yes"/>
      <point x="-44" y="-158" type="line" smooth="yes"/>
      <point x="-58" y="-158"/>
      <point x="-73" y="-139"/>
      <point x="-70" y="-125" type="qcurve" smooth="yes"/>
      <point x="-42" y="-12" type="line"/>
      <point x="24" y="-12" type="line"/>
      <point x="4" y="-91" type="line"/>
      <point x="17" y="-91" type="line"/>
      <point x="40" y="0" type="line"/>
      <point x="-6" y="0" type="line" smooth="yes"/>
      <point x="-20" y="0"/>
      <point x="-35" y="19"/>
      <point x="-32" y="33" type="qcurve" smooth="yes"/>
      <point x="82" y="508" type="line" smooth="yes"/>
      <point x="86" y="522"/>
      <point x="111" y="542"/>
      <point x="125" y="542" type="qcurve" smooth="yes"/>
      <point x="204" y="542" type="line" smooth="yes"/>
      <point x="218" y="542"/>
      <point x="233" y="522"/>
      <point x="229" y="508" type="qcurve" smooth="yes"/>
      <point x="76" y="-125" type="line" smooth="yes"/>
      <point x="73" y="-139"/>
      <point x="48" y="-158"/>
    </contour>
    <contour>
      <point x="43" y="67" type="line"/>
      <point x="56" y="67" type="line"/>
      <point x="154" y="475" type="line"/>
      <point x="141" y="475" type="line"/>
    </contour>
  </outline>
</glyph>
<glyph name="hcircumflex" format="2">
  <advance width="158"/>
  <unicode hex="0125"/>
  <outline>
    <contour>
      <point x="106" y="0" type="line"/>
      <point x="39" y="0" type="line"/>
      <point x="134" y="396" type="line"/>
      <point x="122" y="396" type="line"/>
      <point x="27" y="0" type="line"/>
      <point x="-40" y="0" type="line"/>
      <point x="91" y="542" type="line"/>
      <point x="158" y="542" type="line"/>
      <point x="139" y="463" type="line"/>
      <point x="185" y="463" type="line" smooth="yes"/>
      <point x="199" y="463"/>
      <point x="213" y="443"/>
      <point x="209" y="429" type="qcurve" smooth="yes"/>
    </contour>
    <contour>
      <point x="240" y="554" type="line"/>
      <point x="173" y="554" type="line"/>
      <point x="187" y="614" type="line"/>
      <point x="182" y="620" type="line"/>
      <point x="175" y="614" type="line"/>
      <point x="161" y="554" type="line"/>
      <point x="94" y="554" type="line"/>
      <point x="111" y="627" type="line" smooth="yes"/>
      <point x="112.5" y="634.0" name="inserted"/>
      <point x="120.5" y="646.0"/>
      <point x="127" y="651" type="qcurve" smooth="yes"/>
      <point x="176" y="691" type="line" smooth="yes"/>
      <point x="188" y="701"/>
      <point x="216" y="701"/>
      <point x="224" y="691" type="qcurve" smooth="yes"/>
      <point x="253" y="651" type="line"/>
      <point x="257.0" y="647.0" name="inserted"/>
      <point x="259.0" y="635.0"/>
      <point x="257" y="627" type="qcurve" smooth="yes"/>
    </contour>
  </outline>
</glyph>
<glyph name="Hbar" format="2">
  <advance width="237"/>
  <unicode hex="0126"/>
  <outline>
    <contour>
      <point x="146" y="0" type="line"/>
      <point x="79" y="0" type="line"/>
      <point x="155" y="316" type="line"/>
      <point x="143" y="316" type="line"/>
      <point x="67" y="0" type="line"/>
      <point x="0" y="0" type="line"/>
      <point x="114" y="475" type="line"/>
      <point x="74" y="475" type="line"/>
      <point x="91" y="542" type="line"/>
      <point x="131" y="542" type="line"/>
      <point x="169" y="700" type="line"/>
      <point x="236" y="700" type="line"/>
      <point x="198" y="542" type="line"/>
      <point x="210" y="542" type="line"/>
      <point x="248" y="700" type="line"/>
      <point x="315" y="700" type="line"/>
      <point x="277" y="542" type="line"/>
      <point x="316" y="542" type="line"/>
      <point x="299" y="475" type="line"/>
      <point x="260" y="475" type="line"/>
      <point x="146" y="0" type="line"/>
    </contour>
    <contour>
      <point x="159" y="383" type="line"/>
      <point x="171" y="383" type="line"/>
      <point x="193" y="475" type="line"/>
      <point x="181" y="475" type="line"/>
      <point x="159" y="383" type="line"/>
    </contour>
  </outline>
</glyph>
<glyph name="hbar" format="2">
  <advance width="198"/>
  <unicode hex="0127"/>
  <outline>
    <contour>
      <point x="146" y="0" type="line"/>
      <point x="79" y="0" type="line"/>
      <point x="193" y="475" type="line"/>
      <point x="181" y="475" type="line"/>
      <point x="67" y="0" type="line"/>
      <point x="0" y="0" type="line"/>
      <point x="134" y="554" type="line"/>
      <point x="94" y="554" type="line"/>
      <point x="110" y="621" type="line"/>
      <point x="150" y="621" type="line"/>
      <point x="169" y="700" type="line"/>
      <point x="236" y="700" type="line"/>
      <point x="217" y="621" type="line"/>
      <point x="256" y="621" type="line"/>
      <point x="240" y="554" type="line"/>
      <point x="201" y="554" type="line"/>
      <point x="198" y="542" type="line"/>
      <point x="243" y="542" type="line" smooth="yes"/>
      <point x="257" y="542"/>
      <point x="272" y="522"/>
      <point x="268" y="508" type="qcurve" smooth="yes"/>
    </contour>
  </outline>
</glyph>
<glyph name="Imacron" format="2">
  <advance width="237"/>
  <unicode hex="012A"/>
  <outline>
    <contour>
      <point x="151" y="0" type="qcurve" smooth="yes"/>
      <point x="-6" y="0" type="line" smooth="yes"/>
      <point x="-20" y="0"/>
      <point x="-35" y="19"/>
      <point x="-32" y="33" type="qcurve" smooth="yes"/>
      <point x="33" y="305" type="line"/>
      <point x="100" y="305" type="line"/>
      <point x="43" y="67" type="line"/>
      <point x="55" y="67" type="line"/>
      <point x="173" y="554" type="line"/>
      <point x="161" y="554" type="line"/>
      <point x="103" y="317" type="line"/>
      <point x="36" y="317" type="line"/>
      <point x="102" y="587" type="line" smooth="yes"/>
      <point x="105" y="601"/>
      <point x="130" y="621"/>
      <point x="144" y="621" type="qcurve" smooth="yes"/>
      <point x="301" y="621" type="line" smooth="yes"/>
      <point x="315" y="621"/>
      <point x="330" y="601"/>
      <point x="327" y="587" type="qcurve" smooth="yes"/>
      <point x="261" y="317" type="line"/>
      <point x="194" y="317" type="line"/>
      <point x="252" y="554" type="line"/>
      <point x="240" y="554" type="line"/>
      <point x="122" y="67" type="line"/>
      <point x="134" y="67" type="line"/>
      <point x="191" y="305" type="line"/>
      <point x="258" y="305" type="line"/>
      <point x="192" y="33" type="line" smooth="yes"/>
      <point x="189" y="19"/>
      <point x="165" y="0"/>
    </contour>
    <contour>
      <point x="299" y="633" type="line"/>
      <point x="153" y="633" type="line"/>
      <point x="169" y="700" type="line"/>
      <point x="315" y="700" type="line"/>
    </contour>
  </outline>
</glyph>
<glyph name="Ibreve" format="2">
  <advance width="237"/>
  <unicode hex="012C"/>
  <outline>
    <contour>
      <point x="151" y="0" type="qcurve" smooth="yes"/>
      <point x="-6" y="0" type="line" smooth="yes"/>
      <point x="-20" y="0"/>
      <point x="-35" y="19"/>
      <point x="-32" y="33" type="qcurve" smooth="yes"/>
      <point x="24" y="265" type="line"/>
      <point x="91" y="265" type="line"/>
      <point x="43" y="67" type="line"/>
      <point x="55" y="67" type="line"/>
      <point x="153" y="475" type="line"/>
      <point x="141" y="475" type="line"/>
      <point x="94" y="277" type="line"/>
      <point x="27" y="277" type="line"/>
      <point x="82" y="508" type="line" smooth="yes"/>
      <point x="86" y="522"/>
      <point x="111" y="542"/>
      <point x="125" y="542" type="qcurve" smooth="yes"/>
      <point x="282" y="542" type="line" smooth="yes"/>
      <point x="296" y="542"/>
      <point x="311" y="522"/>
      <point x="307" y="508" type="qcurve" smooth="yes"/>
      <point x="252" y="277" type="line"/>
      <point x="185" y="277" type="line"/>
      <point x="232" y="475" type="line"/>
      <point x="220" y="475" type="line"/>
      <point x="122" y="67" type="line"/>
      <point x="134" y="67" type="line"/>
      <point x="182" y="265" type="line"/>
      <point x="249" y="265" type="line"/>
      <point x="192" y="33" type="line" smooth="yes"/>
      <point x="189" y="19"/>
      <point x="165" y="0"/>
    </contour>
    <contour>
      <point x="168" y="700" type="line"/>
      <point x="235" y="700" type="line"/>
      <point x="216" y="621" type="line"/>
      <point x="228" y="621" type="line"/>
      <point x="247" y="700" type="line"/>
      <point x="314" y="700" type="line"/>
      <point x="287" y="588" type="line" smooth="yes"/>
      <point x="283" y="574"/>
      <point x="260" y="554"/>
      <point x="246" y="554" type="qcurve" smooth="yes"/>
      <point x="166" y="554" type="line" smooth="yes"/>
      <point x="152" y="554"/>
      <point x="137" y="574"/>
      <point x="141" y="588" type="qcurve" smooth="yes"/>
    </contour>
  </outline>
</glyph>
<glyph name="Iogonek" format="2">
  <advance width="237"/>
  <unicode hex="012E"/>
  <outline>
    <contour>
      <point x="152" y="0" type="qcurve" smooth="yes"/>
      <point x="107" y="0" type="line"/>
      <point x="104" y="-12" type="line"/>
      <point x="144" y="-12" type="line"/>
      <point x="127" y="-79" type="line"/>
      <point x="53" y="-79" type="line" smooth="yes"/>
      <point x="39" y="-79"/>
      <point x="25" y="-60"/>
      <point x="28" y="-46" type="qcurve" smooth="yes"/>
      <point x="40" y="0" type="line"/>
      <point x="-6" y="0" type="line" smooth="yes"/>
      <point x="-20" y="0"/>
      <point x="-35" y="19"/>
      <point x="-32" y="33" type="qcurve" smooth="yes"/>
      <point x="43" y="344" type="line"/>
      <point x="110" y="344" type="line"/>
      <point x="43" y="67" type="line"/>
      <point x="56" y="67" type="line"/>
      <point x="193" y="633" type="line"/>
      <point x="180" y="633" type="line"/>
      <point x="113" y="356" type="line"/>
      <point x="46" y="356" type="line"/>
      <point x="121" y="666" type="line" smooth="yes"/>
      <point x="124" y="680"/>
      <point x="149" y="700"/>
      <point x="163" y="700" type="qcurve" smooth="yes"/>
      <point x="321" y="700" type="line" smooth="yes"/>
      <point x="335" y="700"/>
      <point x="350" y="680"/>
      <point x="347" y="666" type="qcurve" smooth="yes"/>
      <point x="272" y="356" type="line"/>
      <point x="205" y="356" type="line"/>
      <point x="272" y="633" type="line"/>
      <point x="260" y="633" type="line"/>
      <point x="123" y="67" type="line"/>
      <point x="135" y="67" type="line"/>
      <point x="202" y="344" type="line"/>
      <point x="269" y="344" type="line"/>
      <point x="193" y="33" type="line" smooth="yes"/>
      <point x="190" y="19"/>
      <point x="166" y="0"/>
    </contour>
  </outline>
</glyph>
<glyph name="iogonek" format="2">
  <advance width="79"/>
  <unicode hex="012F"/>
  <outline>
    <contour>
      <point x="-26" y="-79" type="line" smooth="yes"/>
      <point x="-40" y="-79"/>
      <point x="-54" y="-60"/>
      <point x="-51" y="-46" type="qcurve" smooth="yes"/>
      <point x="91" y="542" type="line"/>
      <point x="158" y="542" type="line"/>
      <point x="24" y="-12" type="line"/>
      <point x="63" y="-12" type="line"/>
      <point x="46" y="-79" type="line"/>
    </contour>
    <contour>
      <point x="161" y="554" type="line"/>
      <point x="94" y="554" type="line"/>
      <point x="129" y="700" type="line"/>
      <point x="196" y="700" type="line"/>
    </contour>
  </outline>
</glyph>
<glyph name="dotlessi" format="2">
  <advance width="79"/>
  <unicode hex="0131"/>
  <outline>
    <contour>
      <point x="-40" y="0" type="line"/>
      <point x="91" y="542" type="line"/>
      <point x="158" y="542" type="line"/>
      <point x="27" y="0" type="line"/>
      <point x="-40" y="0" type="line"/>
    </contour>
  </outline>
</glyph>
<glyph name="jcircumflex" format="2">
  <advance width="158"/>
  <unicode hex="0135"/>
  <outline>
    <contour>
      <point x="76" y="-124" type="qcurve" smooth="yes"/>
      <point x="237" y="542" type="line"/>
      <point x="170" y="542" type="line"/>
      <point x="16" y="-91" type="line"/>
      <point x="4" y="-91" type="line"/>
      <point x="24" y="-11" type="line"/>
      <point x="-42" y="-11" type="line"/>
      <point x="-69" y="-124" type="line" smooth="yes"/>
      <point x="-73" y="-138"/>
      <point x="-59" y="-158"/>
      <point x="-45" y="-158" type="qcurve" smooth="yes"/>
      <point x="34" y="-158" type="line" smooth="yes"/>
      <point x="48" y="-158"/>
      <point x="72" y="-138"/>
    </contour>
    <contour>
      <point x="240" y="554" type="line"/>
      <point x="173" y="554" type="line"/>
      <point x="187" y="614" type="line"/>
      <point x="182" y="620" type="line"/>
      <point x="175" y="614" type="line"/>
      <point x="161" y="554" type="line"/>
      <point x="94" y="554" type="line"/>
      <point x="111" y="627" type="line" smooth="yes"/>
      <point x="112.5" y="634.0" name="inserted"/>
      <point x="120.5" y="646.0"/>
      <point x="127" y="651" type="qcurve" smooth="yes"/>
      <point x="176" y="691" type="line" smooth="yes"/>
      <point x="188" y="701"/>
      <point x="216" y="701"/>
      <point x="224" y="691" type="qcurve" smooth="yes"/>
      <point x="253" y="651" type="line"/>
      <point x="257.0" y="647.0" name="inserted"/>
      <point x="259.0" y="635.0"/>
      <point x="257" y="627" type="qcurve" smooth="yes"/>
    </contour>
  </outline>
</glyph>
<glyph name="uni0136" format="2">
  <advance width="158"/>
  <unicode hex="0136"/>
  <outline>
    <contour>
      <point x="-3" y="-12" type="line"/>
      <point x="63" y="-12" type="line"/>
      <point x="35" y="-125" type="line" smooth="yes"/>
      <point x="32" y="-139"/>
      <point x="8" y="-158"/>
      <point x="-5" y="-158" type="qcurve" smooth="yes"/>
      <point x="-78" y="-158" type="line"/>
      <point x="-62" y="-91" type="line"/>
      <point x="-23" y="-91" type="line"/>
    </contour>
    <contour>
      <point x="27" y="0" type="line"/>
      <point x="-40" y="0" type="line"/>
      <point x="129" y="700" type="line"/>
      <point x="196" y="700" type="line"/>
      <point x="129" y="423" type="line"/>
      <point x="141" y="423" type="line"/>
      <point x="208" y="700" type="line"/>
      <point x="275" y="700" type="line"/>
      <point x="200" y="390" type="line" smooth="yes"/>
      <point x="196" y="376"/>
      <point x="173" y="356"/>
      <point x="159" y="356" type="qcurve" smooth="yes"/>
      <point x="113" y="356" type="line"/>
      <point x="110" y="344" type="line"/>
      <point x="156" y="344" type="line" smooth="yes"/>
      <point x="170" y="344"/>
      <point x="184" y="324"/>
      <point x="180" y="310" type="qcurve" smooth="yes"/>
      <point x="106" y="0" type="line"/>
      <point x="39" y="0" type="line"/>
      <point x="106" y="277" type="line"/>
      <point x="94" y="277" type="line"/>
    </contour>
  </outline>
</glyph>
<glyph name="Lacute" format="2">
  <advance width="158"/>
  <unicode hex="0139"/>
  <outline>
    <contour>
      <point x="73" y="0" type="qcurve" smooth="yes"/>
      <point x="-7" y="0" type="line" smooth="yes"/>
      <point x="-21" y="0"/>
      <point x="-35" y="19"/>
      <point x="-32" y="33" type="qcurve" smooth="yes"/>
      <point x="91" y="542" type="line"/>
      <point x="158" y="542" type="line"/>
      <point x="43" y="67" type="line"/>
      <point x="55" y="67" type="line"/>
      <point x="122" y="344" type="line"/>
      <point x="189" y="344" type="line"/>
      <point x="113" y="33" type="line" smooth="yes"/>
      <point x="110" y="19"/>
      <point x="87" y="0"/>
    </contour>
    <contour>
      <point x="275" y="700" type="line"/>
      <point x="248" y="587" type="line" smooth="yes"/>
      <point x="244" y="573"/>
      <point x="221" y="554"/>
      <point x="207" y="554" type="qcurve" smooth="yes"/>
      <point x="94" y="554" type="line"/>
      <point x="110" y="621" type="line"/>
      <point x="189" y="621" type="line"/>
      <point x="208" y="700" type="line"/>
    </contour>
  </outline>
</glyph>
<glyph name="lacute" format="2">
  <advance width="158"/>
  <unicode hex="013A"/>
  <outline>
    <contour>
      <point x="152" y="621" type="line"/>
      <point x="217" y="621" type="line"/>
      <point x="67" y="0" type="line"/>
      <point x="2" y="0" type="line"/>
    </contour>
    <contour>
      <point x="294" y="779" type="line"/>
      <point x="267" y="666" type="line" smooth="yes"/>
      <point x="263" y="652"/>
      <point x="240" y="633"/>
      <point x="226" y="633" type="qcurve" smooth="yes"/>
      <point x="113" y="633" type="line"/>
      <point x="129" y="700" type="line"/>
      <point x="208" y="700" type="line"/>
      <point x="227" y="779" type="line"/>
    </contour>
  </outline>
</glyph>
<glyph name="uni013B" format="2">
  <advance width="158"/>
  <unicode hex="013B"/>
  <outline>
    <contour>
      <point x="-23" y="-91" type="line"/>
      <point x="-62" y="-91" type="line"/>
      <point x="-78" y="-158" type="line"/>
      <point x="-5" y="-158" type="line" smooth="yes"/>
      <point x="8" y="-158"/>
      <point x="32" y="-139"/>
      <point x="35" y="-125" type="qcurve" smooth="yes"/>
      <point x="63" y="-12" type="line"/>
      <point x="-3" y="-12" type="line"/>
    </contour>
    <contour>
      <point x="73" y="0" type="qcurve" smooth="yes"/>
      <point x="-7" y="0" type="line" smooth="yes"/>
      <point x="-21" y="0"/>
      <point x="-35" y="19"/>
      <point x="-32" y="33" type="qcurve" smooth="yes"/>
      <point x="129" y="700" type="line"/>
      <point x="196" y="700" type="line"/>
      <point x="43" y="67" type="line"/>
      <point x="55" y="67" type="line"/>
      <point x="122" y="344" type="line"/>
      <point x="189" y="344" type="line"/>
      <point x="113" y="33" type="line" smooth="yes"/>
      <point x="110" y="19"/>
      <point x="87" y="0"/>
    </contour>
  </outline>
</glyph>
<glyph name="uni013C" format="2">
  <advance width="79"/>
  <unicode hex="013C"/>
  <outline>
    <contour>
      <point x="-42" y="-12" type="line"/>
      <point x="24" y="-12" type="line"/>
      <point x="-3" y="-125" type="line" smooth="yes"/>
      <point x="-6" y="-139"/>
      <point x="-30" y="-158"/>
      <point x="-44" y="-158" type="qcurve" smooth="yes"/>
      <point x="-117" y="-158" type="line"/>
      <point x="-101" y="-91" type="line"/>
      <point x="-62" y="-91" type="line"/>
    </contour>
    <contour>
      <point x="129" y="700" type="line"/>
      <point x="196" y="700" type="line"/>
      <point x="27" y="0" type="line"/>
      <point x="-40" y="0" type="line"/>
    </contour>
  </outline>
</glyph>
<glyph name="Ldot" format="2">
  <advance width="158"/>
  <unicode hex="013F"/>
  <outline>
    <contour>
      <point x="73" y="0" type="qcurve" smooth="yes"/>
      <point x="-7" y="0" type="line" smooth="yes"/>
      <point x="-21" y="0"/>
      <point x="-35" y="19"/>
      <point x="-32" y="33" type="qcurve" smooth="yes"/>
      <point x="129" y="700" type="line"/>
      <point x="196" y="700" type="line"/>
      <point x="43" y="67" type="line"/>
      <point x="55" y="67" type="line"/>
      <point x="103" y="265" type="line"/>
      <point x="170" y="265" type="line"/>
      <point x="113" y="33" type="line" smooth="yes"/>
      <point x="110" y="19"/>
      <point x="87" y="0"/>
    </contour>
    <contour>
      <point x="173" y="277" type="line"/>
      <point x="106" y="277" type="line"/>
      <point x="141" y="423" type="line"/>
      <point x="208" y="423" type="line"/>
    </contour>
  </outline>
</glyph>
<glyph name="Lslash" format="2">
  <advance width="198"/>
  <unicode hex="0141"/>
  <outline>
    <contour>
      <point x="112" y="0" type="qcurve" smooth="yes"/>
      <point x="33" y="0" type="line" smooth="yes"/>
      <point x="19" y="0"/>
      <point x="4" y="19"/>
      <point x="7" y="33" type="qcurve" smooth="yes"/>
      <point x="86" y="356" type="line"/>
      <point x="46" y="356" type="line"/>
      <point x="62" y="423" type="line"/>
      <point x="102" y="423" type="line"/>
      <point x="169" y="700" type="line"/>
      <point x="236" y="700" type="line"/>
      <point x="169" y="423" type="line"/>
      <point x="208" y="423" type="line"/>
      <point x="192" y="356" type="line"/>
      <point x="153" y="356" type="line"/>
      <point x="83" y="67" type="line"/>
      <point x="95" y="67" type="line"/>
      <point x="162" y="344" type="line"/>
      <point x="229" y="344" type="line"/>
      <point x="153" y="33" type="line" smooth="yes"/>
      <point x="150" y="19"/>
      <point x="126" y="0"/>
    </contour>
  </outline>
</glyph>
<glyph name="lslash" format="2">
  <advance width="159"/>
  <unicode hex="0142"/>
  <outline>
    <contour>
      <point x="67" y="0" type="line"/>
      <point x="0" y="0" type="line"/>
      <point x="86" y="357" type="line"/>
      <point x="46" y="357" type="line"/>
      <point x="62" y="424" type="line"/>
      <point x="102" y="424" type="line"/>
      <point x="169" y="700" type="line"/>
      <point x="236" y="700" type="line"/>
      <point x="169" y="424" type="line"/>
      <point x="209" y="424" type="line"/>
      <point x="193" y="357" type="line"/>
      <point x="153" y="357" type="line"/>
      <point x="67" y="0" type="line"/>
    </contour>
  </outline>
</glyph>
<glyph name="Nacute" format="2">
  <advance width="237"/>
  <unicode hex="0143"/>
  <outline>
    <contour>
      <point x="152" y="0" type="qcurve" smooth="yes"/>
      <point x="73" y="0" type="line" smooth="yes"/>
      <point x="59" y="0"/>
      <point x="43" y="19"/>
      <point x="46" y="33" type="qcurve" smooth="yes"/>
      <point x="153" y="475" type="line"/>
      <point x="141" y="475" type="line"/>
      <point x="27" y="0" type="line"/>
      <point x="-40" y="0" type="line"/>
      <point x="82" y="508" type="line" smooth="yes"/>
      <point x="86" y="522"/>
      <point x="110" y="542"/>
      <point x="124" y="542" type="qcurve" smooth="yes"/>
      <point x="204" y="542" type="line" smooth="yes"/>
      <point x="218" y="542"/>
      <point x="232" y="522"/>
      <point x="228" y="508" type="qcurve" smooth="yes"/>
      <point x="122" y="67" type="line"/>
      <point x="134" y="67" type="line"/>
      <point x="249" y="542" type="line"/>
      <point x="316" y="542" type="line"/>
      <point x="192" y="33" type="line" smooth="yes"/>
      <point x="189" y="19"/>
      <point x="166" y="0"/>
    </contour>
    <contour>
      <point x="314" y="700" type="line"/>
      <point x="287" y="587" type="line" smooth="yes"/>
      <point x="283" y="573"/>
      <point x="260" y="554"/>
      <point x="246" y="554" type="qcurve" smooth="yes"/>
      <point x="133" y="554" type="line"/>
      <point x="149" y="621" type="line"/>
      <point x="228" y="621" type="line"/>
      <point x="247" y="700" type="line"/>
    </contour>
  </outline>
</glyph>
<glyph name="uni0145" format="2">
  <advance width="237"/>
  <unicode hex="0145"/>
  <outline>
    <contour>
      <point x="16" y="-91" type="line"/>
      <point x="-22" y="-91" type="line"/>
      <point x="-38" y="-158" type="line"/>
      <point x="34" y="-158" type="line" smooth="yes"/>
      <point x="48" y="-158"/>
      <point x="72" y="-139"/>
      <point x="75" y="-125" type="qcurve" smooth="yes"/>
      <point x="103" y="-12" type="line"/>
      <point x="36" y="-12" type="line"/>
    </contour>
    <contour>
      <point x="151" y="0" type="qcurve" smooth="yes"/>
      <point x="72" y="0" type="line" smooth="yes"/>
      <point x="58" y="0"/>
      <point x="43" y="19"/>
      <point x="46" y="33" type="qcurve" smooth="yes"/>
      <point x="192" y="633" type="line"/>
      <point x="180" y="633" type="line"/>
      <point x="27" y="0" type="line"/>
      <point x="-40" y="0" type="line"/>
      <point x="121" y="666" type="line" smooth="yes"/>
      <point x="124" y="680"/>
      <point x="148" y="700"/>
      <point x="162" y="700" type="qcurve" smooth="yes"/>
      <point x="241" y="700" type="line" smooth="yes"/>
      <point x="255" y="700"/>
      <point x="270" y="680"/>
      <point x="267" y="666" type="qcurve" smooth="yes"/>
      <point x="122" y="67" type="line"/>
      <point x="134" y="67" type="line"/>
      <point x="287" y="700" type="line"/>
      <point x="354" y="700" type="line"/>
      <point x="192" y="33" type="line" smooth="yes"/>
      <point x="189" y="19"/>
      <point x="165" y="0"/>
    </contour>
  </outline>
</glyph>
<glyph name="uni0146" format="2">
  <advance width="158"/>
  <unicode hex="0146"/>
  <outline>
    <contour>
      <point x="-23" y="-91" type="line"/>
      <point x="-62" y="-91" type="line"/>
      <point x="-78" y="-158" type="line"/>
      <point x="-5" y="-158" type="line" smooth="yes"/>
      <point x="8" y="-158"/>
      <point x="32" y="-139"/>
      <point x="35" y="-125" type="qcurve" smooth="yes"/>
      <point x="63" y="-12" type="line"/>
      <point x="-3" y="-12" type="line"/>
    </contour>
    <contour>
      <point x="124" y="542" type="qcurve" smooth="yes"/>
      <point x="204" y="542" type="line" smooth="yes"/>
      <point x="218" y="542"/>
      <point x="232" y="523"/>
      <point x="229" y="509" type="qcurve" smooth="yes"/>
      <point x="106" y="0" type="line"/>
      <point x="39" y="0" type="line"/>
      <point x="153" y="475" type="line"/>
      <point x="141" y="475" type="line"/>
      <point x="27" y="0" type="line"/>
      <point x="-40" y="0" type="line"/>
      <point x="83" y="509" type="line" smooth="yes"/>
      <point x="86" y="523"/>
      <point x="110" y="542"/>
    </contour>
  </outline>
</glyph>
<glyph name="Ncaron" format="2">
  <advance width="237"/>
  <unicode hex="0147"/>
  <outline>
    <contour>
      <point x="152" y="0" type="qcurve" smooth="yes"/>
      <point x="73" y="0" type="line" smooth="yes"/>
      <point x="59" y="0"/>
      <point x="43" y="19"/>
      <point x="46" y="33" type="qcurve" smooth="yes"/>
      <point x="153" y="475" type="line"/>
      <point x="141" y="475" type="line"/>
      <point x="27" y="0" type="line"/>
      <point x="-40" y="0" type="line"/>
      <point x="82" y="508" type="line" smooth="yes"/>
      <point x="86" y="522"/>
      <point x="110" y="542"/>
      <point x="124" y="542" type="qcurve" smooth="yes"/>
      <point x="204" y="542" type="line" smooth="yes"/>
      <point x="218" y="542"/>
      <point x="232" y="522"/>
      <point x="228" y="508" type="qcurve" smooth="yes"/>
      <point x="122" y="67" type="line"/>
      <point x="134" y="67" type="line"/>
      <point x="249" y="542" type="line"/>
      <point x="316" y="542" type="line"/>
      <point x="192" y="33" type="line" smooth="yes"/>
      <point x="189" y="19"/>
      <point x="166" y="0"/>
    </contour>
    <contour>
      <point x="168" y="700" type="line"/>
      <point x="235" y="700" type="line"/>
      <point x="220" y="640" type="line"/>
      <point x="225" y="634" type="line"/>
      <point x="232" y="640" type="line"/>
      <point x="247" y="700" type="line"/>
      <point x="314" y="700" type="line"/>
      <point x="296" y="627" type="line"/>
      <point x="294.5" y="619.0" name="inserted"/>
      <point x="286.5" y="607.0"/>
      <point x="280" y="603" type="qcurve"/>
      <point x="232" y="563" type="line" smooth="yes"/>
      <point x="220" y="553"/>
      <point x="192" y="553"/>
      <point x="184" y="563" type="qcurve" smooth="yes"/>
      <point x="154" y="603" type="line" smooth="yes"/>
      <point x="150.5" y="607.5" name="inserted"/>
      <point x="148.5" y="619.5"/>
      <point x="150" y="627" type="qcurve" smooth="yes"/>
    </contour>
  </outline>
</glyph>
<glyph name="Eng" format="2">
  <advance width="158"/>
  <unicode hex="014A"/>
  <outline>
    <contour>
      <point x="53" y="-79" type="qcurve" smooth="yes"/>
      <point x="-19" y="-79" type="line"/>
      <point x="-2" y="-12" type="line"/>
      <point x="36" y="-12" type="line"/>
      <point x="192" y="633" type="line"/>
      <point x="180" y="633" type="line"/>
      <point x="27" y="0" type="line"/>
      <point x="-40" y="0" type="line"/>
      <point x="121" y="666" type="line" smooth="yes"/>
      <point x="124" y="680"/>
      <point x="148" y="700"/>
      <point x="162" y="700" type="qcurve" smooth="yes"/>
      <point x="242" y="700" type="line" smooth="yes"/>
      <point x="256" y="700"/>
      <point x="270" y="680"/>
      <point x="267" y="666" type="qcurve" smooth="yes"/>
      <point x="94" y="-46" type="line" smooth="yes"/>
      <point x="91" y="-60"/>
      <point x="67" y="-79"/>
    </contour>
  </outline>
</glyph>
<glyph name="eng" format="2">
  <advance width="158"/>
  <unicode hex="014B"/>
  <outline>
    <contour>
      <point x="53" y="-79" type="qcurve" smooth="yes"/>
      <point x="-19" y="-79" type="line"/>
      <point x="-2" y="-12" type="line"/>
      <point x="36" y="-12" type="line"/>
      <point x="153" y="475" type="line"/>
      <point x="141" y="475" type="line"/>
      <point x="27" y="0" type="line"/>
      <point x="-40" y="0" type="line"/>
      <point x="82" y="508" type="line" smooth="yes"/>
      <point x="86" y="522"/>
      <point x="110" y="542"/>
      <point x="124" y="542" type="qcurve" smooth="yes"/>
      <point x="204" y="542" type="line" smooth="yes"/>
      <point x="218" y="542"/>
      <point x="232" y="522"/>
      <point x="228" y="508" type="qcurve" smooth="yes"/>
      <point x="94" y="-46" type="line" smooth="yes"/>
      <point x="91" y="-60"/>
      <point x="67" y="-79"/>
    </contour>
  </outline>
</glyph>
<glyph name="Omacron" format="2">
  <advance width="158"/>
  <unicode hex="014C"/>
  <outline>
    <contour>
      <point x="223" y="621" type="qcurve" smooth="yes"/>
      <point x="143" y="621" type="line" smooth="yes"/>
      <point x="129" y="621"/>
      <point x="105" y="601"/>
      <point x="102" y="587" type="qcurve" smooth="yes"/>
      <point x="-32" y="33" type="line" smooth="yes"/>
      <point x="-35" y="19"/>
      <point x="-21" y="0"/>
      <point x="-7" y="0" type="qcurve" smooth="yes"/>
      <point x="73" y="0" type="line" smooth="yes"/>
      <point x="87" y="0"/>
      <point x="110" y="19"/>
      <point x="113" y="33" type="qcurve" smooth="yes"/>
      <point x="248" y="587" type="line" smooth="yes"/>
      <point x="251" y="601"/>
      <point x="237" y="621"/>
    </contour>
    <contour>
      <point x="55" y="67" type="line"/>
      <point x="43" y="67" type="line"/>
      <point x="161" y="554" type="line"/>
      <point x="173" y="554" type="line"/>
    </contour>
    <contour>
      <point x="259" y="633" type="line"/>
      <point x="113" y="633" type="line"/>
      <point x="129" y="700" type="line"/>
      <point x="275" y="700" type="line"/>
    </contour>
  </outline>
</glyph>
